<svg width="17" height="17" viewBox="0 0 17 17" fill="none" xmlns="http://www.w3.org/2000/svg">
<path d="M16.4813 12.4187C16.0187 11.6373 15.3311 9.42642 15.3311 6.53874C15.3311 4.80456 14.6286 3.14141 13.3781 1.91515C12.1277 0.688901 10.4317 0 8.66326 0C6.89484 0 5.19886 0.688901 3.9484 1.91515C2.69794 3.14141 1.99544 4.80456 1.99544 6.53874C1.99544 9.42723 1.30699 11.6373 0.844407 12.4187C0.726279 12.6174 0.663655 12.843 0.66285 13.073C0.662045 13.303 0.723087 13.5291 0.839822 13.7285C0.956557 13.9279 1.12486 14.0937 1.32775 14.209C1.53063 14.3243 1.76094 14.3851 1.99544 14.3852H5.39686C5.5507 15.1234 5.95981 15.7869 6.555 16.2633C7.1502 16.7398 7.89494 17 8.66326 17C9.43158 17 10.1763 16.7398 10.7715 16.2633C11.3667 15.7869 11.7758 15.1234 11.9297 14.3852H15.3311C15.5655 14.3849 15.7957 14.324 15.9985 14.2087C16.2013 14.0933 16.3694 13.9276 16.4861 13.7281C16.6027 13.5287 16.6637 13.3027 16.6628 13.0728C16.662 12.8429 16.5994 12.6173 16.4813 12.4187ZM8.66326 15.693C8.2497 15.6929 7.84635 15.567 7.50872 15.3328C7.17109 15.0987 6.91578 14.7676 6.77793 14.3852H10.5486C10.4107 14.7676 10.1554 15.0987 9.81779 15.3328C9.48016 15.567 9.07681 15.6929 8.66326 15.693ZM1.99544 13.0775C2.63722 11.9953 3.329 9.48772 3.329 6.53874C3.329 5.1514 3.891 3.82087 4.89137 2.83987C5.89174 1.85887 7.24853 1.30775 8.66326 1.30775C10.078 1.30775 11.4348 1.85887 12.4351 2.83987C13.4355 3.82087 13.9975 5.1514 13.9975 6.53874C13.9975 9.48527 14.6876 11.9929 15.3311 13.0775H1.99544Z" fill="#2665FE"/>
</svg>
