<?xml version="1.0" standalone="no"?>
<!DOCTYPE svg PUBLIC "-//W3C//DTD SVG 20010904//EN"
 "http://www.w3.org/TR/2001/REC-SVG-20010904/DTD/svg10.dtd">
<svg version="1.0" xmlns="http://www.w3.org/2000/svg"
 width="259.000000pt" height="194.000000pt" viewBox="0 0 259.000000 194.000000"
 preserveAspectRatio="xMidYMid meet">

<g transform="translate(0.000000,194.000000) scale(0.100000,-0.100000)"
fill="#000000" stroke="none">
<path d="M545 1909 l-70 -31 -69 16 c-38 9 -71 14 -74 11 -3 -3 2 -5 10 -5 9
0 18 -7 22 -15 3 -8 11 -15 18 -15 9 0 8 3 -2 10 -8 5 -10 10 -5 10 15 0 57
-48 47 -54 -5 -3 -3 -35 5 -72 8 -37 12 -71 11 -76 -4 -10 -134 -68 -153 -68
-24 0 -85 -22 -81 -29 3 -4 -8 -7 -24 -6 -17 1 -30 -3 -30 -8 0 -5 -6 -4 -14
2 -10 8 -16 9 -21 1 -4 -6 -1 -9 6 -8 7 2 15 -5 17 -14 5 -24 -14 -23 -45 2
-14 11 -40 20 -58 20 -30 0 -32 -2 -33 -40 -1 -28 2 -40 12 -40 8 0 16 -4 18
-9 5 -13 128 -60 133 -50 3 4 -7 15 -22 23 -15 8 -21 15 -13 16 8 0 27 -6 42
-14 24 -13 38 -11 144 20 127 37 165 42 124 19 -14 -8 -19 -14 -11 -15 11 0
10 -4 -5 -16 -16 -13 -16 -15 -1 -10 9 3 17 1 17 -5 0 -6 5 -7 10 -4 12 7 13
-5 2 -20 -4 -6 -59 -28 -122 -49 -63 -21 -122 -43 -130 -48 -18 -12 -15 -11
145 36 140 41 160 44 126 16 -30 -26 -25 -25 45 6 33 14 85 29 117 31 49 5 57
9 57 26 0 11 -8 26 -17 33 -16 12 -16 13 -1 8 14 -5 17 8 23 93 16 232 18 244
47 266 27 20 29 20 200 3 95 -9 268 -26 383 -37 375 -35 475 -48 498 -64 12
-8 31 -15 42 -15 16 0 17 2 5 10 -11 7 0 10 36 10 36 0 59 -6 75 -19 23 -18
24 -25 27 -178 3 -151 4 -159 25 -168 17 -8 26 -7 39 6 9 10 14 19 12 22 -2 2
20 9 49 16 33 7 92 36 157 76 57 36 107 61 111 57 3 -4 46 -63 95 -131 l89
-125 3 112 c2 90 -1 117 -14 136 -8 14 -13 30 -10 35 4 5 3 12 -2 15 -4 2 -14
-9 -21 -26 l-13 -30 -13 24 c-6 13 -17 22 -23 20 -7 -1 -12 6 -12 15 0 10 -7
26 -15 36 -7 10 -19 41 -25 69 -7 27 -19 52 -26 55 -8 3 -14 19 -14 39 0 63
-18 71 -170 79 -88 5 -154 14 -189 26 -38 13 -83 19 -147 19 -84 0 -94 -2
-108 -22 l-15 -22 -128 22 c-117 20 -162 22 -535 22 -259 0 -418 -4 -435 -11
-19 -7 -29 -7 -31 0 -5 16 -20 13 -97 -20z m85 11 c0 -14 -35 -30 -67 -30 -27
1 -26 2 12 20 46 22 55 24 55 10z m-310 -334 c0 -19 -21 -25 -45 -13 -19 10
-19 10 0 18 31 12 45 10 45 -5z m30 -26 c0 -5 -5 -10 -11 -10 -5 0 -7 5 -4 10
3 6 8 10 11 10 2 0 4 -4 4 -10z m50 -10 c0 -5 -7 -7 -15 -4 -8 4 -15 8 -15 10
0 2 7 4 15 4 8 0 15 -4 15 -10z m2116 -31 c3 -6 -5 -3 -20 6 -14 10 -26 19
-26 22 0 7 39 -17 46 -28z m-2448 -8 l16 -24 -31 17 c-41 21 -53 39 -23 34 13
-1 30 -14 38 -27z m92 -7 c0 -8 -4 -12 -10 -9 -5 3 -10 10 -10 16 0 5 5 9 10
9 6 0 10 -7 10 -16z"/>
<path d="M107 1875 c3 -8 9 -12 14 -9 12 7 11 11 -5 17 -10 4 -13 1 -9 -8z"/>
<path d="M1370 1780 c0 -5 7 -10 16 -10 8 0 12 5 9 10 -3 6 -10 10 -16 10 -5
0 -9 -4 -9 -10z"/>
<path d="M776 1738 c-5 -40 -36 -566 -36 -615 0 -16 6 -23 20 -23 11 0 20 -7
20 -15 0 -8 -4 -15 -10 -15 -5 0 -10 -5 -10 -11 0 -7 9 -5 24 4 21 14 25 15
30 1 3 -8 2 -13 -3 -9 -14 8 -38 -4 -38 -20 0 -21 25 -27 35 -8 6 10 16 13 31
8 19 -6 31 -27 14 -24 -5 1 -10 0 -13 -1 -13 -5 -78 -5 -75 0 2 4 -2 18 -10
33 -7 14 -12 27 -10 29 2 2 -14 2 -36 0 -29 -3 -40 0 -45 12 -3 9 -30 29 -59
46 -30 17 -66 45 -81 63 -15 18 -31 31 -36 29 -4 -1 -8 2 -8 8 0 5 -10 14 -21
21 -15 7 -19 8 -15 0 5 -7 1 -9 -8 -5 -9 3 -13 10 -10 15 3 5 0 10 -5 10 -6 1
-17 2 -23 3 -7 1 -16 -2 -19 -7 -3 -4 -25 3 -48 16 l-42 24 61 23 c33 12 59
24 57 26 -8 8 -187 -62 -187 -73 0 -7 -7 -16 -16 -21 -16 -9 47 -57 249 -187
66 -42 93 -64 82 -68 -8 -4 -15 -17 -14 -29 0 -13 3 -18 5 -12 6 15 44 5 44
-11 0 -11 -34 -29 -52 -26 -4 0 -10 -16 -14 -37 -3 -20 -13 -64 -21 -96 -8
-33 -12 -68 -10 -78 3 -10 2 -16 -3 -13 -4 3 -10 -4 -13 -15 -3 -12 1 -24 11
-30 14 -8 15 -11 3 -19 -11 -7 -11 -10 0 -15 11 -4 11 -7 2 -12 -7 -3 -15 -21
-19 -39 -7 -40 -24 -57 -43 -45 -12 7 -12 13 -1 40 10 24 15 28 22 18 7 -9 8
-6 5 11 -5 19 20 161 39 222 3 12 -1 16 -13 15 -10 0 -17 4 -16 10 1 6 -9 10
-23 8 -21 -2 -23 0 -13 12 7 8 19 12 28 9 13 -4 13 -2 -1 8 -10 8 -14 18 -10
22 4 5 3 6 -3 3 -11 -6 -67 23 -72 37 -1 6 1 16 6 23 12 20 51 -5 43 -27 -3
-9 -2 -13 3 -9 10 10 47 -10 40 -22 -3 -5 0 -12 6 -16 8 -5 9 -3 4 6 -5 9 -2
10 13 6 13 -4 22 -1 25 9 4 8 3 14 -1 14 -25 -4 -52 3 -47 11 3 6 -1 7 -10 4
-11 -5 -14 -2 -9 10 4 11 -8 24 -42 46 -48 30 -63 33 -48 8 15 -24 14 -48 -2
-48 -9 0 -12 5 -8 13 4 6 -2 4 -13 -6 -20 -17 -21 -17 -28 0 -9 20 -13 38 -18
71 -2 12 -13 33 -26 45 l-22 22 16 -32 c16 -32 13 -59 -6 -48 -5 4 -9 0 -9 -7
0 -9 -3 -9 -10 2 -8 12 -10 12 -11 -5 0 -11 -3 -14 -6 -8 -4 10 -9 10 -26 1
-12 -7 -25 -11 -29 -10 -5 1 -5 -35 -3 -80 6 -84 14 -115 16 -62 2 25 3 23 9
-11 l7 -40 2 38 c0 20 6 37 11 37 6 0 8 -11 4 -25 -3 -14 -2 -25 2 -24 21 4
45 -2 40 -9 -2 -4 -1 -14 5 -22 6 -10 9 -11 9 -2 0 26 30 12 31 -15 l1 -28 8
30 c7 29 8 29 10 5 2 -20 3 -21 7 -6 4 15 8 13 24 -13 23 -38 24 -42 2 -34
-11 4 -14 3 -9 -5 4 -7 -9 -19 -33 -31 -22 -12 -42 -25 -45 -30 -3 -5 -1 -32
6 -60 10 -45 20 -59 76 -106 35 -30 68 -55 73 -55 5 0 9 13 9 29 0 28 1 29 41
24 29 -4 44 -2 50 8 6 9 9 10 9 2 0 -6 -4 -15 -10 -18 -5 -3 -10 -14 -10 -23
0 -28 -16 -45 -44 -46 -30 -2 -55 -31 -56 -63 0 -21 5 -23 49 -23 28 0 53 5
56 10 9 14 37 12 33 -2 -3 -7 1 -19 9 -26 15 -15 17 -32 4 -32 -10 0 -2 -50
12 -67 7 -10 4 -13 -13 -13 -18 0 -21 4 -18 24 4 20 0 26 -20 31 -20 5 -23 8
-12 15 13 8 13 11 1 22 -11 11 -13 11 -6 -1 5 -9 4 -12 -3 -7 -19 11 -14 24
11 29 19 4 19 4 -5 6 -19 1 -29 -5 -33 -20 -5 -14 -14 -20 -33 -19 -49 4 -52
1 -52 -40 0 -37 2 -40 19 -30 11 5 29 10 40 10 14 0 23 10 30 33 5 17 10 25
10 17 1 -9 -8 -41 -19 -73 -22 -62 -26 -127 -9 -159 13 -24 69 -49 99 -43 12
2 66 7 121 11 72 5 99 4 99 -5 0 -8 152 -11 580 -11 554 0 581 1 599 19 10 10
20 24 22 30 3 9 13 6 31 -8 14 -12 32 -21 40 -21 8 0 19 -5 24 -10 7 -7 51
-10 109 -8 l99 3 -112 74 c-62 41 -110 76 -108 79 4 3 100 17 249 36 29 4 42
23 28 40 -7 8 -10 20 -6 26 3 5 -1 13 -9 16 -9 3 -13 10 -10 15 3 5 0 9 -6 9
-7 0 -10 -6 -7 -13 8 -22 -6 -35 -38 -37 -49 -3 -55 -1 -65 25 -7 19 -17 25
-40 25 -28 0 -29 -2 -23 -31 l6 -31 -54 2 c-123 5 -309 -1 -309 -10 0 -26 -44
-119 -71 -150 l-31 -35 27 39 c25 35 65 124 65 145 0 4 -57 7 -127 5 -833 -18
-1067 -22 -1019 -17 38 4 38 5 16 16 -33 17 -40 41 -9 33 21 -6 22 -6 7 7 -15
12 -15 14 4 26 13 8 23 9 32 2 9 -7 16 -5 26 9 8 11 22 20 32 20 9 0 20 5 23
10 7 11 46 3 55 -11 3 -4 21 -4 40 1 33 7 33 8 7 9 -36 1 -27 16 14 25 40 8
82 -13 69 -34 -7 -11 -10 -11 -10 -2 0 7 -4 11 -8 8 -5 -3 -7 -19 -4 -37 3
-22 7 -27 13 -18 7 11 9 11 9 -1 0 -12 2 -13 9 -1 14 22 5 71 -15 86 -16 13
-17 14 -1 9 9 -3 17 -1 17 5 0 6 -6 11 -12 11 -9 0 -8 3 1 9 12 8 10 11 -10
16 -13 3 -34 7 -46 8 -41 3 -12 12 48 14 l59 3 0 -29 c0 -16 -6 -32 -12 -34
-10 -4 -10 -8 1 -15 9 -7 10 -12 2 -16 -6 -4 -8 -12 -5 -18 5 -7 2 -8 -6 -3
-8 5 -11 3 -8 -6 3 -8 9 -13 14 -12 5 1 9 -12 9 -27 0 -27 -3 -29 -49 -36 -43
-6 -52 -4 -67 15 -9 11 -23 21 -31 21 -7 0 -19 9 -25 19 -10 16 -18 18 -40 11
-52 -15 -64 -23 -59 -36 3 -7 -1 -18 -9 -24 -11 -9 -12 -7 -8 9 4 16 1 21 -13
20 -11 0 -13 -3 -7 -6 9 -3 10 -10 3 -24 -9 -16 -7 -19 13 -19 14 0 30 7 37
15 16 20 37 19 48 -1 8 -14 30 -16 188 -10 98 3 221 5 273 5 88 0 96 1 113 23
l18 23 19 -23 c19 -22 23 -22 194 -19 96 3 179 7 185 11 9 5 15 43 28 174 l5
54 -43 -4 c-39 -2 -44 0 -52 25 -7 19 -6 31 3 40 10 10 11 8 6 -6 -6 -15 -1
-17 39 -17 39 0 46 3 46 19 0 13 -9 21 -29 26 -16 3 -35 13 -42 21 -6 8 -21
15 -33 15 -17 1 -17 2 -3 6 14 4 21 23 19 53 0 3 23 6 51 8 57 3 78 15 59 34
-9 9 -12 9 -12 0 0 -7 -5 -12 -11 -12 -5 0 -8 4 -5 9 7 11 -22 36 -31 27 -3
-3 -1 -6 6 -6 9 0 8 -4 -3 -15 -8 -8 -20 -13 -28 -12 -7 2 -10 2 -5 0 4 -3 5
-8 2 -13 -7 -11 -96 9 -112 25 -7 7 -17 15 -23 17 -18 6 -1 35 23 42 12 3 38
6 57 7 l35 1 -39 9 c-63 15 -55 19 37 19 70 0 87 -3 87 -15 0 -9 -6 -12 -15
-9 -8 4 -23 3 -32 -1 -16 -6 -15 -8 5 -16 23 -9 52 -3 52 12 0 4 8 5 18 2 15
-6 16 -5 2 12 -14 17 -13 18 2 12 10 -3 20 -2 23 3 4 6 -2 10 -12 11 -189 5
-203 8 -203 35 0 19 39 18 46 -1 7 -18 54 -20 54 -2 0 17 91 7 113 -12 10 -8
17 -9 22 -1 9 14 -5 32 -20 26 -8 -3 -19 3 -27 12 -10 12 -10 14 0 8 7 -4 18
-4 25 2 13 10 61 -10 50 -21 -3 -4 3 -7 15 -7 12 0 22 -4 22 -8 0 -7 29 -8 83
-4 9 1 17 9 17 17 0 8 5 15 10 15 6 0 10 -11 10 -25 0 -14 7 -28 16 -32 8 -3
13 -12 10 -19 -5 -14 86 -230 105 -248 6 -7 9 -7 7 -1 -4 12 27 57 34 50 3 -3
11 2 19 11 13 16 12 17 -9 12 -12 -4 -20 -2 -17 2 3 5 19 11 35 15 31 7 80 56
80 81 0 13 14 18 48 17 6 -1 12 5 12 12 0 21 31 40 69 41 20 0 62 6 94 13 51
11 57 15 57 37 0 22 -3 24 -22 19 -13 -4 -31 -9 -42 -12 -12 -3 -16 -1 -12 6
4 6 16 11 26 11 45 0 50 9 50 86 0 41 -3 74 -7 74 -26 -1 -128 -40 -125 -49 1
-6 -6 -11 -15 -11 -16 0 -223 196 -223 211 0 9 118 49 143 49 17 0 79 -51 190
-154 15 -14 30 -26 33 -26 2 0 4 31 4 69 l0 68 -126 113 -126 113 -50 -12
c-61 -14 -78 -14 -58 0 12 8 11 9 -5 6 -11 -2 -19 -8 -18 -14 2 -7 -13 -12
-38 -11 -23 0 -44 -4 -48 -10 -4 -6 -31 -18 -61 -25 l-55 -14 -3 -128 c-2 -82
-7 -134 -15 -144 -10 -12 -9 -13 1 -7 10 6 12 -1 8 -36 -3 -23 -5 -51 -5 -61
-1 -13 -7 -16 -26 -13 -18 3 -29 -1 -38 -15 -16 -26 -22 -24 -25 8 -1 15 -7
32 -12 37 -6 6 -10 14 -10 20 0 5 9 -1 20 -14 11 -13 20 -28 20 -33 0 -6 10 1
22 14 22 23 22 24 4 29 -11 3 -22 12 -24 19 -3 10 0 12 11 8 11 -4 14 -2 10 8
-3 8 -9 12 -14 9 -5 -3 -9 0 -9 5 0 6 -7 11 -16 11 -8 0 -12 -4 -9 -10 3 -5
-1 -10 -9 -10 -9 0 -16 4 -16 9 0 13 34 23 52 16 13 -5 16 27 21 221 4 125 7
268 7 319 l0 91 -207 18 c-115 9 -372 32 -573 51 -201 19 -370 35 -377 35 -6
0 -14 -19 -17 -42z m-396 -508 c-19 -13 -30 -13 -30 0 0 6 10 10 23 10 18 0
19 -2 7 -10z m-30 -34 c0 -3 -4 -8 -10 -11 -5 -3 -10 -1 -10 4 0 6 5 11 10 11
6 0 10 -2 10 -4z m1837 -12 c-3 -3 -12 -4 -19 -1 -8 3 -5 6 6 6 11 1 17 -2 13
-5z m-1550 -100 c-3 -3 -12 -4 -19 -1 -8 3 -5 6 6 6 11 1 17 -2 13 -5z m274
-6 c-23 -6 -37 -6 -44 1 -8 8 2 11 34 10 l44 -1 -34 -10z m268 -4 c155 -6 181
-9 166 -20 -12 -9 -16 -21 -13 -39 4 -17 1 -25 -9 -25 -8 0 -11 -4 -8 -10 4
-6 -12 -10 -39 -10 -26 0 -46 5 -46 11 0 5 -4 7 -10 4 -6 -4 -10 7 -10 24 0
25 -4 31 -22 31 -13 0 -63 3 -113 6 -51 3 -85 2 -78 -3 7 -5 37 -8 66 -8 37 1
54 -3 54 -11 0 -7 -7 -13 -16 -13 -170 -3 -171 -3 -169 -18 2 -11 -6 -16 -24
-17 -23 -1 -28 3 -28 21 0 13 5 23 10 23 19 0 25 3 37 19 10 14 15 14 34 3 21
-13 21 -13 5 9 -22 32 -20 42 7 36 12 -3 105 -9 206 -13z m-549 -16 c0 -5 4
-7 8 -4 4 2 9 -4 9 -15 1 -10 -4 -19 -10 -19 -7 0 -6 -4 3 -10 19 -12 33 -13
26 -1 -6 10 24 25 32 16 3 -3 0 -5 -6 -5 -7 0 -12 -4 -12 -9 0 -4 16 -7 35 -4
34 3 48 -10 23 -20 -8 -3 -6 -6 5 -6 9 -1 17 -6 17 -12 0 -5 -4 -8 -9 -4 -5 3
-17 -2 -26 -12 -16 -16 -18 -16 -27 0 -5 10 -14 14 -20 11 -7 -5 -9 -2 -5 8 6
16 -28 33 -37 19 -7 -11 33 -43 44 -36 6 4 10 -6 10 -22 0 -15 4 -23 8 -18 7
10 10 11 62 14 26 1 29 4 21 19 -9 16 -6 18 20 14 16 -2 29 -10 29 -18 0 -7
10 -20 23 -29 l22 -17 -23 7 c-22 6 -23 5 -13 -14 14 -25 41 -28 41 -4 0 14 2
14 20 -2 44 -39 12 -136 -56 -168 -17 -8 -57 -18 -90 -21 -32 -3 -51 -3 -41 0
21 7 21 5 2 40 -12 23 -20 28 -44 26 -16 -2 -31 0 -34 5 -9 15 19 124 33 133
13 8 12 10 -2 10 -10 0 -18 5 -18 11 0 6 -7 8 -16 5 -12 -5 -15 -2 -10 10 4
12 1 14 -13 9 -30 -9 -34 12 -6 31 19 12 23 20 15 29 -8 10 -7 16 6 23 15 8
15 10 -2 16 -10 4 -21 1 -25 -5 -5 -9 -15 -9 -39 3 -18 9 -27 18 -22 22 6 3
13 2 17 -4 3 -5 14 -10 23 -10 14 0 14 2 -2 13 -16 12 -14 13 18 9 20 -2 36
-8 36 -14z m310 8 c0 -2 -7 -6 -15 -10 -8 -3 -15 -1 -15 4 0 6 7 10 15 10 8 0
15 -2 15 -4z m524 -21 c3 -9 0 -15 -9 -15 -16 0 -27 14 -18 24 10 10 21 7 27
-9z m36 0 c0 -8 -4 -15 -10 -15 -5 0 -7 7 -4 15 4 8 8 15 10 15 2 0 4 -7 4
-15z m60 0 c0 -8 -9 -15 -19 -15 -10 0 -21 7 -25 15 -4 11 1 15 19 15 16 0 25
-6 25 -15z m47 9 c-3 -3 -12 -4 -19 -1 -8 3 -5 6 6 6 11 1 17 -2 13 -5z m53 2
c0 -9 -30 -14 -35 -6 -4 6 3 10 14 10 12 0 21 -2 21 -4z m76 -11 c-4 -26 -14
-28 -42 -6 l-27 21 36 0 c25 0 35 -4 33 -15z m64 1 c0 -8 -4 -18 -10 -21 -5
-3 -10 1 -10 9 0 8 -8 17 -17 19 -11 3 -7 5 10 6 17 1 27 -4 27 -13z m60 -51
c6 -19 16 -35 22 -35 6 0 8 -9 5 -20 -3 -11 -1 -20 4 -20 5 0 8 -3 8 -7 -3
-21 2 -33 16 -33 8 0 15 6 15 13 0 8 3 7 9 -3 16 -24 2 -30 -51 -21 -5 0 -8
10 -8 22 0 11 -5 17 -10 14 -6 -4 -7 -12 -3 -18 3 -7 -2 -5 -13 4 -20 18 -174
32 -174 17 0 -5 -5 -8 -11 -8 -5 0 -8 3 -6 8 3 4 -16 5 -41 3 -38 -3 -42 -5
-27 -14 10 -5 34 -10 52 -9 20 1 33 -3 33 -11 0 -8 4 -7 10 3 8 13 10 12 10
-2 0 -12 -8 -18 -21 -18 -11 0 -18 4 -15 9 4 5 -3 7 -13 4 -10 -3 -28 0 -40 6
-17 10 -21 9 -21 -4 0 -9 5 -25 10 -36 10 -18 7 -19 -40 -19 -43 0 -50 3 -50
20 0 13 -7 20 -20 20 -11 0 -20 7 -20 15 0 8 -6 15 -14 15 -19 0 -22 6 -30 60
l-7 45 46 -3 c28 -3 45 -9 45 -17 0 -17 69 -25 222 -25 l128 0 -6 28 c-4 15
-11 33 -17 40 -6 8 -6 12 1 12 6 0 16 -16 22 -35z m233 1 c36 -47 34 -54 -4
-14 -17 18 -29 26 -26 18 3 -12 -40 -50 -58 -50 -10 0 17 56 32 68 23 17 25
16 56 -22z m-1503 15 c0 -12 -20 -25 -27 -18 -7 7 6 27 18 27 5 0 9 -4 9 -9z
m390 -20 c0 -2 -8 -10 -17 -18 -10 -8 0 -4 21 8 22 13 36 17 32 11 -9 -16 6
-16 22 0 9 9 12 9 12 0 0 -6 -8 -16 -17 -21 -10 -6 -13 -11 -7 -11 6 0 17 7
24 15 7 8 17 15 22 15 6 0 5 -7 -2 -15 -10 -12 -10 -15 0 -15 10 0 10 -3 0
-15 -6 -8 -9 -19 -6 -24 4 -6 -2 -8 -15 -6 -31 6 -34 12 -10 20 40 12 20 20
-50 19 -66 -2 -69 -1 -55 15 9 10 14 20 11 22 -2 3 5 5 15 5 11 0 20 -2 20 -5z
m384 -31 c-5 -5 -10 3 -11 18 -1 22 0 24 9 8 6 -10 6 -22 2 -26z m-136 0 c12
-8 22 -24 22 -36 0 -17 -5 -20 -25 -16 -13 2 -32 2 -40 -2 -13 -5 -14 -8 -3
-20 7 -7 18 -11 25 -9 6 2 14 -4 17 -14 4 -10 16 -29 27 -43 14 -16 19 -19 15
-7 -3 9 -1 17 5 17 7 0 9 10 5 25 -4 15 -2 25 4 25 6 0 8 -4 5 -10 -3 -5 -2
-10 4 -10 12 0 -16 -71 -33 -83 -7 -6 -4 -7 8 -3 13 5 17 2 13 -9 -4 -8 -2
-17 3 -20 30 -19 -3 -25 -125 -25 -87 0 -135 4 -135 10 0 12 13 30 50 68 22
22 22 24 5 19 -20 -7 -20 -7 -1 8 29 22 6 18 -32 -5 -26 -16 -37 -18 -47 -10
-16 14 -9 40 11 40 8 0 19 10 24 23 5 12 9 16 9 8 1 -11 4 -11 18 0 9 8 19 13
22 12 3 -2 7 2 7 7 1 6 2 15 3 21 1 8 5 8 15 0 11 -9 16 -9 23 2 4 8 15 17 23
21 8 3 2 4 -13 1 -17 -4 -26 -2 -23 4 3 5 0 12 -6 15 -7 4 1 4 19 2 21 -4 33
-1 37 9 6 16 24 11 64 -15z m399 4 c-3 -3 -12 -4 -19 -1 -8 3 -5 6 6 6 11 1
17 -2 13 -5z m160 0 c-3 -3 -12 -4 -19 -1 -8 3 -5 6 6 6 11 1 17 -2 13 -5z
m-460 -11 c-4 -3 -2 -12 4 -19 7 -9 4 -14 -13 -20 -13 -4 -25 -6 -27 -5 -2 2
-8 -3 -12 -11 -7 -10 -9 -10 -9 0 0 7 10 17 23 22 12 5 17 9 10 9 -18 1 -4 31
15 31 8 0 12 -3 9 -7z m-938 -45 c8 3 11 0 7 -7 -4 -6 0 -11 11 -11 15 0 16
-2 3 -10 -10 -6 -21 -4 -35 9 -28 25 -65 44 -65 32 0 -5 6 -12 13 -14 9 -4 9
-6 -1 -6 -19 -1 -27 30 -11 40 9 5 22 0 39 -15 14 -13 31 -21 39 -18z m891 21
c0 -5 -4 -9 -10 -9 -5 0 -10 7 -10 16 0 8 5 12 10 9 6 -3 10 -10 10 -16z
m-368 4 c-6 -2 -9 -10 -6 -15 4 -7 2 -8 -5 -4 -13 9 -5 26 12 25 9 0 8 -2 -1
-6z m465 -30 c-3 -10 -5 -4 -5 12 0 17 2 24 5 18 2 -7 2 -21 0 -30z m-367 14
c0 -4 -5 -17 -10 -28 -12 -21 -56 -27 -46 -6 3 6 9 19 12 27 5 16 44 22 44 7z
m992 -15 c4 -12 0 -19 -11 -19 -18 0 -32 17 -25 29 9 15 32 8 36 -10z m-232
-12 c0 -5 -2 -10 -4 -10 -3 0 -8 5 -11 10 -3 6 -1 10 4 10 6 0 11 -4 11 -10z
m-1405 -18 c-3 -3 -11 0 -18 7 -9 10 -8 11 6 5 10 -3 15 -9 12 -12z m1075 8
c0 -5 -4 -10 -10 -10 -5 0 -10 5 -10 10 0 6 5 10 10 10 6 0 10 -4 10 -10z
m-864 -27 c-2 -16 -4 -40 -5 -54 -1 -16 -7 -26 -17 -26 -11 0 -14 6 -9 21 4
12 9 36 12 54 6 39 23 43 19 5z m694 -3 c0 -5 -7 -10 -16 -10 -8 0 -12 5 -9
10 3 6 10 10 16 10 5 0 9 -4 9 -10z m170 0 c0 -5 -4 -10 -10 -10 -5 0 -10 -7
-10 -15 0 -8 -4 -15 -10 -15 -11 0 -14 33 -3 43 10 11 33 8 33 -3z m-470 -10
c0 -5 -2 -10 -4 -10 -3 0 -8 5 -11 10 -3 6 -1 10 4 10 6 0 11 -4 11 -10z m514
-6 c5 -14 4 -15 -9 -4 -17 14 -19 20 -6 20 5 0 12 -7 15 -16z m213 10 c-3 -3
-12 -4 -19 -1 -8 3 -5 6 6 6 11 1 17 -2 13 -5z m798 -4 c3 -5 -1 -10 -10 -10
-9 0 -13 5 -10 10 3 6 8 10 10 10 2 0 7 -4 10 -10z m-1188 -32 c-3 -8 -6 -5
-6 6 -1 11 2 17 5 13 3 -3 4 -12 1 -19z m1146 15 c-7 -2 -19 -2 -25 0 -7 3 -2
5 12 5 14 0 19 -2 13 -5z m-1463 -18 c10 -13 9 -15 -9 -15 -12 0 -21 6 -21 15
0 8 4 15 9 15 5 0 14 -7 21 -15z m1400 10 c0 -2 -10 -9 -22 -15 -22 -11 -22
-10 -4 4 21 17 26 19 26 11z m-1340 -14 c0 -5 -9 -11 -21 -14 -16 -4 -18 -3
-8 9 13 16 29 19 29 5z m437 -23 c-3 -8 -6 -5 -6 6 -1 11 2 17 5 13 3 -3 4
-12 1 -19z m-127 -22 c0 -8 -7 -16 -15 -20 -16 -6 -16 14 0 26 14 10 15 10 15
-6z m-460 -40 c0 -2 -7 -7 -16 -10 -8 -3 -12 -2 -9 4 6 10 25 14 25 6z m616
-12 c-3 -8 1 -48 9 -90 8 -41 15 -77 15 -78 0 -2 -11 -1 -25 2 -17 3 -27 13
-30 31 -3 14 -10 40 -15 57 -13 40 -13 45 3 42 6 -2 13 9 15 23 2 15 9 26 18
26 8 0 13 -6 10 -13z m-88 -19 c-3 -3 -9 2 -12 12 -6 14 -5 15 5 6 7 -7 10
-15 7 -18z m-740 -20 c8 -8 -40 -4 -68 6 -19 6 -14 7 19 4 24 -3 46 -7 49 -10z
m600 7 c36 -13 2 -22 -82 -22 -103 0 -156 7 -156 22 0 9 212 10 238 0z m-327
-15 c-6 -8 -8 -17 -4 -20 3 -4 -3 -7 -15 -7 -12 0 -22 -5 -22 -12 0 -9 -3 -9
-11 -1 -6 6 -19 9 -28 6 -13 -4 -13 -2 2 7 9 6 22 8 27 5 6 -3 10 -1 10 4 0 6
7 11 15 11 8 0 15 5 15 10 0 6 5 10 11 10 8 0 9 -4 0 -13z m586 -17 c1 -11 -2
-20 -8 -20 -5 0 -9 9 -9 20 0 11 4 20 8 20 4 0 8 -9 9 -20z m-87 -10 c0 -5 -4
-10 -10 -10 -5 0 -10 5 -10 10 0 6 5 10 10 10 6 0 10 -4 10 -10z m-902 -28
c-10 -12 -10 -16 0 -19 17 -6 15 -23 -5 -45 -19 -22 -40 -24 -40 -3 0 8 4 12
8 9 4 -2 11 0 14 6 4 6 3 10 -2 9 -38 -7 -46 24 -10 42 12 7 24 13 27 13 3 1
4 5 2 9 -1 5 2 6 8 2 8 -5 7 -12 -2 -23z m109 -4 c-3 -8 -6 -5 -6 6 -1 11 2
17 5 13 3 -3 4 -12 1 -19z m291 0 c-2 -12 -10 -24 -18 -26 -13 -5 -13 -3 -1
12 12 14 12 16 -3 10 -9 -3 -16 -10 -16 -15 0 -5 -8 -9 -17 -9 -14 1 -11 6 12
25 37 31 47 31 43 3z m-321 -4 c-3 -3 -12 -4 -19 -1 -8 3 -5 6 6 6 11 1 17 -2
13 -5z m663 -9 c0 -13 -21 -15 -130 -15 -119 0 -142 4 -123 23 3 4 62 7 130 7
103 0 123 -2 123 -15z m160 -9 c0 -13 -7 -26 -15 -30 -11 -4 -15 2 -15 24 0
20 5 30 15 30 9 0 15 -9 15 -24z m-765 -6 c-3 -5 -12 -10 -18 -10 -7 0 -6 4 3
10 19 12 23 12 15 0z m-75 -20 c0 -5 -5 -10 -11 -10 -5 0 -7 5 -4 10 3 6 8 10
11 10 2 0 4 -4 4 -10z m107 -21 c-3 -11 -1 -19 4 -19 15 0 10 -27 -6 -34 -12
-4 -14 4 -13 39 1 24 6 41 11 38 5 -3 7 -14 4 -24z m193 21 c0 -5 -7 -7 -15
-4 -8 4 -15 8 -15 10 0 2 7 4 15 4 8 0 15 -4 15 -10z m837 -17 c-7 -6 -46 10
-41 18 3 5 14 3 24 -3 11 -7 18 -13 17 -15z m-1060 11 c-3 -3 -12 -4 -19 -1
-8 3 -5 6 6 6 11 1 17 -2 13 -5z m97 -19 c16 -12 17 -15 4 -15 -9 0 -19 6 -21
13 -4 9 -8 8 -16 -3 -6 -8 -11 -10 -11 -4 0 26 17 29 44 9z m254 -7 c14 -4 25
-1 31 9 5 10 11 12 15 5 4 -6 13 -9 21 -5 10 3 15 -1 15 -12 0 -12 -7 -16 -28
-14 -15 2 -33 -1 -41 -5 -10 -6 -12 -5 -7 2 4 7 1 12 -9 12 -9 0 -13 -4 -10
-10 3 -5 -1 -10 -9 -10 -11 0 -16 9 -16 28 0 15 4 22 8 16 4 -6 17 -13 30 -16z
m252 5 c0 -15 -2 -16 -10 -3 -5 8 -10 10 -10 4 0 -7 -9 -14 -20 -17 -25 -6
-26 1 -2 19 24 19 42 17 42 -3z m-404 -13 c8 0 14 5 14 10 0 6 6 5 14 -2 18
-17 15 -19 -27 -23 -31 -2 -34 -1 -29 18 3 12 7 16 10 9 2 -6 10 -12 18 -12z
m104 0 c0 -13 -5 -18 -15 -14 -11 5 -12 9 -2 20 16 18 17 17 17 -6z m-439 1
c13 21 12 -7 -1 -32 -13 -23 -40 -26 -40 -4 0 22 4 30 13 28 4 -2 7 3 8 10 0
8 2 8 6 -2 5 -11 7 -11 14 0z m282 -5 c3 -8 -2 -16 -13 -19 -25 -6 -32 2 -17
19 16 17 24 17 30 0z m377 10 c0 -2 -7 -7 -16 -10 -8 -3 -12 -2 -9 4 6 10 25
14 25 6z m187 -18 c-3 -8 -6 -5 -6 6 -1 11 2 17 5 13 3 -3 4 -12 1 -19z m-740
-5 c-4 -3 -2 -12 4 -19 13 -16 3 -34 -19 -34 -15 0 -15 -2 -2 -10 11 -7 -1
-10 -40 -11 -30 0 -65 -2 -77 -3 -13 -2 -23 1 -23 6 0 4 27 8 60 8 44 0 58 3
54 13 -5 13 25 57 40 57 5 0 6 -3 3 -7z m123 3 c0 -2 -7 -6 -15 -10 -8 -3 -15
-1 -15 4 0 6 7 10 15 10 8 0 15 -2 15 -4z m799 -35 c11 -15 20 -17 47 -11 19
4 34 5 34 1 0 -4 14 -6 30 -3 17 2 30 8 30 13 0 5 7 9 15 9 8 0 12 -6 10 -15
-3 -8 -7 -22 -9 -29 -4 -12 -12 -13 -35 -6 -17 5 -33 5 -36 0 -3 -4 -14 -6
-26 -3 -16 4 -17 8 -7 14 10 7 9 9 -4 9 -10 0 -18 -5 -18 -11 0 -6 -7 -9 -15
-5 -8 3 -15 1 -15 -4 0 -6 -11 -10 -25 -10 -14 0 -25 4 -25 10 0 6 -6 9 -12 8
-24 -5 -20 37 4 48 28 12 40 9 57 -15z m-94 -2 c-4 -5 -9 -23 -12 -40 -3 -21
0 -29 10 -29 10 0 13 -7 10 -20 -3 -11 -9 -20 -14 -20 -5 0 -9 9 -9 20 0 11
-4 20 -8 20 -14 0 -52 36 -52 49 0 6 14 11 30 11 17 0 30 5 30 10 0 6 5 10 11
10 5 0 7 -5 4 -11z m-782 -14 c-3 -9 -8 -14 -10 -11 -3 3 -2 9 2 15 9 16 15
13 8 -4z m513 -1 c20 -5 21 -7 7 -35 -18 -36 -34 -37 -50 -3 -19 40 -6 51 43
38z m358 -55 c-8 -14 -54 -10 -54 4 0 9 10 12 30 9 16 -2 27 -8 24 -13z m-194
-19 c0 -5 -4 -10 -10 -10 -5 0 -10 5 -10 10 0 6 5 10 10 10 6 0 10 -4 10 -10z
m-746 -38 c2 -4 -3 -8 -12 -8 -9 -1 -26 -5 -37 -9 l-20 -8 20 16 c22 18 41 21
49 9z m1083 -9 c-11 -10 -127 -15 -127 -5 0 6 26 12 58 14 56 3 78 0 69 -9z
m-290 -15 c-3 -8 -6 -5 -6 6 -1 11 2 17 5 13 3 -3 4 -12 1 -19z m-960 -224
c-8 -8 -37 26 -37 43 0 11 7 7 21 -11 12 -15 19 -29 16 -32z"/>
<path d="M1268 983 c6 -2 18 -2 25 0 6 3 1 5 -13 5 -14 0 -19 -2 -12 -5z"/>
<path d="M698 983 c7 -3 16 -2 19 1 4 3 -2 6 -13 5 -11 0 -14 -3 -6 -6z"/>
<path d="M595 960 c-8 -13 5 -13 25 0 13 8 13 10 -2 10 -9 0 -20 -4 -23 -10z"/>
<path d="M725 894 c-22 -7 -41 -14 -42 -14 -5 0 -3 -37 2 -42 3 -3 18 7 33 22
15 15 34 29 42 32 8 3 13 8 10 11 -3 3 -23 -1 -45 -9z"/>
<path d="M797 884 c-3 -3 6 -16 20 -30 16 -16 23 -32 20 -45 -4 -17 -3 -18 9
-8 24 20 17 57 -15 73 -16 9 -31 13 -34 10z"/>
<path d="M670 809 c0 -5 11 -16 25 -25 20 -13 34 -15 67 -8 23 5 43 14 45 21
3 9 -3 9 -26 1 -23 -9 -38 -8 -70 4 -23 9 -41 12 -41 7z"/>
<path d="M1530 886 c0 -2 12 -12 28 -21 l27 -18 -19 21 c-17 20 -36 29 -36 18z"/>
<path d="M1190 804 c0 -5 -22 -7 -50 -6 -32 3 -50 0 -50 -7 0 -6 5 -11 10 -11
6 0 10 -7 10 -15 0 -16 26 -21 32 -5 2 5 17 10 34 12 19 1 31 7 30 15 -2 15
-16 30 -16 17z"/>
<path d="M1220 760 c0 -5 5 -10 11 -10 5 0 7 5 4 10 -3 6 -8 10 -11 10 -2 0
-4 -4 -4 -10z"/>
<path d="M3 1679 l1 -89 41 2 c22 1 49 6 60 12 11 6 22 12 23 13 2 1 -25 35
-61 76 l-65 75 1 -89z"/>
<path d="M296 1669 c2 -4 -2 -10 -8 -12 -9 -4 -8 -6 2 -6 8 0 26 6 38 13 24
13 24 13 -7 13 -16 0 -28 -4 -25 -8z"/>
<path d="M238 1643 c7 -3 16 -2 19 1 4 3 -2 6 -13 5 -11 0 -14 -3 -6 -6z"/>
<path d="M201 1424 c0 -11 3 -14 6 -6 3 7 2 16 -1 19 -3 4 -6 -2 -5 -13z"/>
<path d="M182 1375 c-7 -14 -12 -31 -12 -38 1 -7 7 3 16 22 17 39 13 54 -4 16z"/>
<path d="M2078 1393 c10 -4 10 -8 1 -20 -11 -12 -9 -12 15 -2 25 12 26 14 9
20 -10 4 -22 8 -28 8 -5 -1 -4 -3 3 -6z"/>
<path d="M121 1256 l-24 -31 28 27 c16 15 27 29 24 31 -2 3 -15 -10 -28 -27z"/>
<path d="M2372 1104 c-28 -19 -28 -26 1 -60 l23 -26 62 17 c34 10 65 21 67 25
8 13 -70 60 -101 60 -16 0 -40 -7 -52 -16z"/>
<path d="M280 1022 c6 -13 14 -21 18 -18 3 4 -2 14 -12 24 -18 16 -18 16 -6
-6z"/>
<path d="M308 1015 c2 -14 8 -25 12 -25 10 0 1 38 -10 45 -4 2 -5 -7 -2 -20z"/>
<path d="M112 940 c0 -19 2 -27 5 -17 2 9 2 25 0 35 -3 9 -5 1 -5 -18z"/>
<path d="M370 950 c0 -5 5 -10 11 -10 5 0 7 5 4 10 -3 6 -8 10 -11 10 -2 0 -4
-4 -4 -10z"/>
<path d="M102 880 c0 -14 2 -19 5 -12 2 6 2 18 0 25 -3 6 -5 1 -5 -13z"/>
<path d="M122 870 c0 -19 2 -27 5 -17 2 9 2 25 0 35 -3 9 -5 1 -5 -18z"/>
<path d="M1843 805 c-19 -28 -20 -34 -7 -39 10 -4 12 -2 8 6 -12 20 21 33 75
30 57 -4 75 -29 19 -28 -25 1 -33 -4 -36 -19 -4 -17 -2 -18 13 -5 11 9 9 2 -7
-23 -26 -40 -44 -46 -64 -19 -13 16 -14 16 -7 -2 4 -13 3 -17 -5 -12 -7 4 -15
0 -19 -9 -8 -22 13 -35 55 -35 17 0 32 -4 32 -9 0 -5 3 -16 6 -25 5 -12 -1
-16 -24 -16 -21 0 -33 -6 -37 -19 -3 -10 -19 -21 -35 -25 -18 -3 -30 -12 -30
-21 0 -12 18 -15 109 -15 100 0 109 -2 114 -20 5 -19 0 -20 -105 -20 -83 0
-109 -3 -105 -12 2 -7 12 -13 23 -13 12 0 20 -8 22 -21 3 -18 -1 -20 -27 -16
-32 4 -34 1 -47 -110 l-6 -58 75 0 c68 0 75 2 80 22 6 20 7 20 30 5 13 -8 54
-18 91 -21 60 -4 65 -3 57 12 -6 12 -4 24 5 37 19 26 18 44 -1 19 -14 -17 -14
-15 0 13 8 18 20 33 26 33 6 0 7 5 3 12 -5 8 -2 9 9 5 19 -7 21 1 7 23 -7 10
-10 11 -10 2 0 -18 -37 7 -43 30 -4 13 0 18 14 18 22 0 21 1 -73 228 -48 115
-53 122 -79 123 -63 3 -70 4 -77 16 -5 7 -15 0 -29 -22z m191 -177 c26 -36 20
-48 -24 -48 -31 0 -43 5 -56 25 -20 31 -11 45 31 45 24 0 39 -7 49 -22z m-110
-178 c14 -5 26 -14 26 -20 0 -16 -67 -12 -73 4 -10 26 7 32 47 16z m114 -7
c-10 -2 -26 -2 -35 0 -10 3 -2 5 17 5 19 0 27 -2 18 -5z m-103 -43 c-3 -5 -11
-10 -16 -10 -6 0 -7 5 -4 10 3 6 11 10 16 10 6 0 7 -4 4 -10z m175 -10 c0 -5
-4 -10 -10 -10 -5 0 -10 5 -10 10 0 6 5 10 10 10 6 0 10 -4 10 -10z m-241 -18
c7 -13 6 -19 -2 -19 -7 0 -13 9 -13 19 0 10 1 18 3 18 1 0 7 -8 12 -18z m211
6 c0 -13 -20 -19 -40 -13 -30 9 -24 21 10 20 17 0 30 -3 30 -7z m-93 -11 c0
-8 -6 -14 -14 -14 -17 0 -17 14 0 20 6 3 12 6 13 6 0 1 1 -5 1 -12z m37 -6
c17 -19 17 -19 -3 -14 -12 3 -21 12 -21 19 0 18 4 18 24 -5z m-34 -32 c0 -5
-32 -9 -71 -9 -44 0 -68 4 -64 10 7 12 135 11 135 -1z"/>
<path d="M1860 780 c0 -5 5 -10 11 -10 5 0 7 5 4 10 -3 6 -8 10 -11 10 -2 0
-4 -4 -4 -10z"/>
<path d="M2570 554 c-11 -12 -10 -18 3 -32 16 -15 17 -14 17 16 0 36 -2 38
-20 16z"/>
<path d="M2194 529 c-3 -6 -2 -15 4 -21 6 -6 12 -6 17 3 6 8 4 10 -5 4 -10 -6
-12 -4 -7 8 7 19 2 23 -9 6z"/>
<path d="M2165 520 c3 -5 8 -10 11 -10 2 0 4 5 4 10 0 6 -5 10 -11 10 -5 0 -7
-4 -4 -10z"/>
<path d="M918 423 c7 -3 16 -2 19 1 4 3 -2 6 -13 5 -11 0 -14 -3 -6 -6z"/>
<path d="M2160 370 c0 -5 -10 -11 -22 -11 -18 -1 -17 -3 7 -8 23 -5 31 -13 36
-39 8 -40 6 -38 47 -45 29 -6 32 -4 32 18 0 26 -26 58 -41 50 -5 -4 -9 -1 -9
5 0 6 -4 9 -9 6 -5 -3 -11 1 -14 9 -5 11 -1 12 18 5 18 -7 23 -6 19 3 -6 15
-64 22 -64 7z"/>
<path d="M2560 329 c0 -7 -10 -9 -26 -5 l-25 7 28 -36 c25 -32 29 -34 41 -18
16 23 15 50 -3 57 -8 3 -15 1 -15 -5z"/>
<path d="M2505 39 c-4 -6 -1 -15 6 -20 21 -13 31 -11 27 8 -4 20 -24 28 -33
12z"/>
<path d="M2460 18 c0 -7 10 -14 21 -15 12 -1 20 -1 18 0 -2 2 -12 9 -21 16
-15 11 -18 11 -18 -1z"/>
</g>
</svg>
