<?xml version="1.0" standalone="no"?>
<!DOCTYPE svg PUBLIC "-//W3C//DTD SVG 20010904//EN"
 "http://www.w3.org/TR/2001/REC-SVG-20010904/DTD/svg10.dtd">
<svg version="1.0" xmlns="http://www.w3.org/2000/svg"
 width="725.000000pt" height="440.000000pt" viewBox="0 0 725.000000 440.000000"
 preserveAspectRatio="xMidYMid meet">

<g transform="translate(0.000000,440.000000) scale(0.100000,-0.100000)"
fill="#000000" stroke="none">
<path d="M70 4390 c0 -5 7 -10 15 -10 8 0 23 -8 33 -18 22 -22 78 -33 185 -35
83 -2 102 6 37 17 -34 5 -40 10 -40 31 l0 25 -115 0 c-70 0 -115 -4 -115 -10z"/>
<path d="M437 4394 c-12 -13 34 -64 66 -72 39 -10 50 -46 17 -55 -11 -3 -127
1 -258 9 -130 7 -243 13 -249 14 -9 0 -13 -19 -13 -63 l0 -63 52 6 c64 9 367
-4 458 -19 36 -6 124 -10 196 -9 103 1 138 -3 164 -16 41 -20 63 -20 120 0 70
25 294 6 250 -21 -22 -14 -203 -33 -261 -28 -35 4 -76 0 -110 -10 -30 -8 -202
-32 -384 -51 -181 -20 -353 -43 -381 -52 -48 -15 -53 -15 -78 1 l-26 17 1 -73
c0 -70 1 -72 12 -40 7 19 18 36 25 39 17 5 15 -43 -3 -58 -26 -22 -18 -58 17
-76 18 -10 45 -26 59 -36 25 -19 30 -18 345 17 758 84 865 96 979 110 189 24
274 34 355 40 71 6 158 17 625 79 250 34 588 72 750 86 72 6 162 17 200 25 39
7 140 21 225 30 85 9 222 25 305 36 107 13 153 15 162 7 15 -12 17 -62 3 -88
-14 -25 1 -32 33 -15 23 12 27 12 27 0 0 -26 49 -30 80 -6 16 11 41 21 55 21
42 0 28 18 -20 25 -34 6 -48 3 -60 -9 -24 -24 -41 -20 -55 13 -18 45 -2 66 55
69 25 1 65 8 88 16 23 7 85 19 137 26 52 6 140 18 195 25 247 35 557 75 628
81 l77 7 1 -74 2 -74 8 70 c5 39 14 83 19 99 6 16 10 33 10 38 0 5 -296 7
-707 5 l-708 -3 -345 -42 c-579 -71 -961 -112 -1044 -112 -67 0 -77 2 -72 16
3 9 9 28 13 42 3 15 17 40 30 55 34 41 29 48 -29 45 -51 -3 -53 -4 -56 -33 -5
-42 -16 -50 -73 -50 -44 0 -53 -4 -75 -33 -32 -41 -83 -69 -94 -52 -5 8 -14 5
-29 -11 -11 -12 -21 -27 -21 -32 0 -5 -12 -6 -27 -3 -84 20 -125 24 -154 14
-22 -8 -37 -7 -53 1 -15 8 -30 9 -47 2 -26 -10 -380 3 -429 15 -14 4 -99 8
-190 9 -287 3 -583 24 -600 41 -27 27 12 44 104 45 62 0 76 3 60 10 -11 6 -24
25 -30 42 l-9 32 -156 3 c-85 1 -158 0 -162 -4z"/>
<path d="M840 4375 c0 -27 25 -44 40 -29 15 15 0 54 -21 54 -14 0 -19 -7 -19
-25z"/>
<path d="M945 4377 c3 -38 17 -87 25 -87 5 0 14 15 20 34 7 23 19 36 35 40 45
12 28 31 -29 33 -49 2 -53 0 -51 -20z"/>
<path d="M1285 4383 c-3 -10 -1 -19 6 -22 7 -2 22 -14 34 -27 12 -13 29 -24
37 -24 21 0 58 43 58 68 0 20 -5 22 -64 22 -51 0 -65 -3 -71 -17z"/>
<path d="M1476 4378 c3 -13 13 -30 20 -39 8 -8 14 -21 14 -27 0 -7 5 -12 10
-12 6 0 10 23 10 50 0 49 -1 50 -31 50 -27 0 -30 -3 -23 -22z"/>
<path d="M1770 4369 c0 -26 3 -30 23 -27 16 2 23 11 25 31 3 23 0 27 -22 27
-22 0 -26 -4 -26 -31z"/>
<path d="M5260 4299 c0 -7 -10 -9 -25 -7 -27 6 -34 -6 -10 -16 9 -3 25 0 35 7
21 13 26 27 10 27 -5 0 -10 -5 -10 -11z"/>
<path d="M4915 4271 c-28 -6 -30 -9 -33 -60 l-3 -53 37 7 c20 3 47 13 59 21
12 8 42 18 66 22 38 7 44 11 44 32 0 24 -2 25 -51 22 -30 -2 -55 1 -58 7 -8
12 -15 12 -61 2z"/>
<path d="M4538 4223 c-10 -2 -18 -9 -18 -15 0 -6 18 -7 49 -3 51 7 66 -1 55
-28 -3 -9 -25 -18 -55 -22 -27 -4 -49 -12 -49 -17 0 -16 81 0 103 19 10 10 17
27 15 42 -3 23 -8 26 -43 28 -22 0 -48 -1 -57 -4z"/>
<path d="M3710 4111 c-22 -6 -25 -13 -28 -60 l-3 -54 39 6 c22 2 53 14 68 25
16 11 50 23 77 27 39 5 47 10 47 27 0 19 -5 20 -49 16 -30 -3 -58 0 -72 8 -26
15 -41 16 -79 5z"/>
<path d="M5015 4066 c-159 -28 -202 -41 -210 -67 -10 -29 2 -39 44 -34 47 4
53 -21 7 -34 -28 -8 -25 -9 26 -10 56 -1 57 -1 69 -38 16 -49 13 -107 -6 -137
-12 -19 -13 -25 -3 -28 27 -9 -60 -40 -120 -42 -54 -2 -95 -17 -81 -29 5 -5
139 9 182 19 29 6 29 6 25 -35 -4 -43 4 -53 21 -23 10 16 10 16 11 0 0 -10
-13 -24 -30 -33 -16 -9 -30 -19 -30 -23 0 -4 5 -38 11 -77 5 -38 7 -94 4 -122
-6 -49 -9 -53 -38 -61 -17 -4 -33 -14 -35 -21 -3 -9 2 -11 17 -6 25 8 28 -7 5
-30 -12 -11 -14 -19 -6 -27 7 -7 5 -16 -6 -29 -18 -21 -32 -9 -32 29 0 26 -17
30 -22 5 -5 -23 12 -63 26 -63 6 0 29 7 51 14 30 11 43 23 56 52 l18 39 0 -36
c1 -34 -27 -79 -49 -79 -5 0 -18 -10 -29 -22 -16 -17 -18 -24 -9 -35 9 -11 8
-17 -3 -24 -11 -7 -9 -9 8 -9 27 0 37 -14 20 -28 -7 -6 -136 -42 -287 -81
-236 -61 -262 -71 -145 -55 11 1 20 3 20 4 0 1 28 3 63 4 54 2 62 0 62 -16 0
-22 18 -23 45 -4 11 8 48 18 83 23 61 10 62 9 62 -14 0 -12 5 -23 12 -23 23 0
-7 -18 -60 -35 -44 -14 -53 -21 -49 -36 3 -10 1 -22 -4 -25 -15 -9 -10 -27 6
-20 9 3 15 0 15 -10 0 -10 6 -14 15 -10 8 3 15 1 15 -4 0 -6 -10 -11 -22 -11
-22 -2 -43 -4 -62 -8 -5 0 -3 -8 4 -16 6 -8 9 -23 5 -36 -5 -14 -4 -19 4 -15
6 4 11 0 11 -8 0 -9 -4 -16 -9 -16 -16 0 -24 -42 -10 -50 8 -6 -2 -12 -29 -21
-40 -12 -42 -14 -42 -51 0 -32 3 -38 23 -39 12 0 45 -2 74 -2 49 -2 73 -11 61
-23 -4 -3 -22 -1 -42 4 -22 6 -38 7 -42 1 -3 -5 -1 -9 5 -9 19 0 42 -47 63
-127 18 -68 21 -105 20 -283 -1 -170 2 -217 18 -280 10 -41 22 -97 26 -125 4
-27 22 -81 40 -120 46 -96 74 -232 74 -352 0 -109 -6 -135 -79 -340 l-50 -141
20 -62 c14 -46 19 -89 18 -164 -1 -100 4 -126 62 -343 6 -24 16 -43 21 -43 6
0 8 18 6 43 -6 52 6 321 32 712 11 165 22 338 25 385 3 47 10 141 15 210 5 69
15 211 21 315 6 105 12 191 13 191 0 1 21 -8 46 -20 l45 -22 -2 -54 c-3 -62
-28 -411 -43 -595 -6 -66 -15 -214 -20 -329 -6 -115 -13 -212 -15 -216 -2 -3
-6 -75 -10 -160 -3 -85 -11 -213 -17 -284 l-11 -128 -36 -34 c-35 -33 -35 -34
-8 -24 40 14 47 13 47 -10 0 -19 7 -20 100 -20 l99 0 5 33 c3 17 10 90 16 162
6 72 22 240 35 375 13 135 28 339 34 455 14 274 41 684 47 713 l4 22 38 -19
c66 -34 127 -96 161 -165 31 -63 123 -176 143 -176 5 0 2 8 -8 17 -15 16 -15
17 2 24 15 6 15 8 3 8 -9 1 -24 10 -34 21 -18 20 -18 20 18 5 44 -18 86 -20
46 -2 -71 32 -72 63 -2 52 35 -5 49 -3 64 11 26 23 24 32 -8 36 -17 2 -28 10
-30 23 -3 11 -6 27 -7 35 -2 8 -8 28 -15 43 -6 16 -11 33 -11 38 0 5 -5 9 -11
9 -5 0 -8 4 -4 9 3 5 -3 12 -14 16 -15 5 -19 14 -17 53 1 47 1 47 34 44 18 -2
32 1 32 7 0 17 56 13 70 -4 7 -9 21 -13 31 -10 10 4 28 1 41 -6 12 -7 31 -13
43 -14 34 -4 35 -5 35 -18 0 -9 13 -14 35 -15 26 -1 33 2 28 13 -4 11 3 15 26
15 23 0 29 4 25 15 -4 8 -1 15 5 15 6 0 11 7 11 15 0 8 15 22 33 31 17 9 36
23 40 30 4 8 16 14 27 14 10 0 26 3 35 6 13 6 14 9 3 16 -10 7 -10 11 0 15 27
11 9 18 -43 18 -30 0 -56 5 -57 10 -2 6 22 18 52 28 30 9 64 27 75 38 20 22
20 22 0 14 -28 -11 -135 -14 -135 -4 0 5 9 13 20 19 24 13 26 30 3 30 -32 0
-83 24 -80 38 3 18 -17 29 -66 37 -27 4 -37 10 -34 20 4 8 -4 16 -21 20 -14 3
-47 20 -72 37 l-45 31 -225 8 c-150 5 -236 4 -258 -3 -18 -5 -42 -8 -53 -5
-17 5 -39 0 -99 -21 -56 -20 -113 -24 -153 -12 -49 16 -67 34 -67 70 0 49 -22
79 -62 85 -21 4 -38 11 -38 16 0 5 17 28 39 52 21 23 51 62 66 87 15 25 46 65
70 90 l43 45 12 215 c7 118 14 244 15 280 2 36 8 112 14 170 6 58 13 165 15
237 3 73 7 136 9 140 3 5 8 59 12 121 4 61 10 112 14 112 4 0 7 21 6 47 0 35
-4 48 -15 49 -8 1 -74 -8 -145 -20z m-20 -596 c3 -5 -1 -10 -10 -10 -9 0 -13
5 -10 10 3 6 8 10 10 10 2 0 7 -4 10 -10z m45 -669 c0 -5 -7 -14 -15 -21 -16
-14 -18 -10 -9 14 6 17 24 22 24 7z m-233 -377 c-3 -3 -12 -4 -19 -1 -8 3 -5
6 6 6 11 1 17 -2 13 -5z m663 -176 c0 -2 -14 -30 -30 -62 -17 -32 -30 -74 -30
-93 0 -20 -4 -32 -10 -28 -26 16 -3 130 34 168 15 14 36 23 36 15z m108 -65
c-4 -23 -32 -28 -69 -13 -44 18 -35 30 22 30 43 0 50 -3 47 -17z m-579 -110
c31 -18 40 -33 20 -33 -7 0 -9 -9 -5 -24 8 -32 -10 -44 -66 -43 -83 0 -116 66
-50 102 36 19 64 19 101 -2z m96 -37 c18 -13 18 -14 -5 -26 -20 -11 -25 -10
-36 5 -24 32 5 47 41 21z m64 -70 c9 -10 6 -17 -12 -29 -23 -15 -24 -15 -23
14 1 31 16 38 35 15z m-72 -11 c12 -13 13 -18 2 -31 -12 -14 -66 -13 -123 3
-19 5 -19 6 0 16 16 9 59 21 97 26 5 0 15 -6 24 -14z m-107 -421 c6 -14 10
-34 10 -44 0 -21 -56 -90 -73 -90 -6 0 4 14 21 31 18 17 32 37 32 44 0 19 -33
23 -46 7 -8 -12 -14 -9 -28 13 -32 49 -1 72 51 38 26 -17 26 -17 14 5 -6 12
-16 22 -21 22 -6 0 -10 5 -10 10 0 19 41 -10 50 -36z"/>
<path d="M3264 4054 c-18 -14 -15 -15 33 -11 89 7 98 -46 11 -59 -21 -4 -41
-11 -44 -16 -3 -5 13 -6 38 -2 40 6 88 40 88 64 0 37 -89 54 -126 24z"/>
<path d="M2865 4000 l-40 -8 46 1 c25 0 51 -3 57 -7 7 -4 12 -3 12 2 0 8 -28
25 -33 21 -1 -1 -20 -5 -42 -9z"/>
<path d="M4707 3995 c-21 -20 -10 -47 17 -43 15 2 21 10 21 27 0 30 -17 37
-38 16z"/>
<path d="M4600 3985 c27 -14 36 -13 25 4 -3 6 -16 11 -28 11 -21 -1 -21 -1 3
-15z"/>
<path d="M4505 3980 c-3 -6 1 -7 9 -4 18 7 21 14 7 14 -6 0 -13 -4 -16 -10z"/>
<path d="M2251 3917 c-7 -9 -11 -34 -9 -59 l3 -43 43 2 c23 1 57 11 75 22 18
10 50 22 72 26 79 12 85 15 85 36 0 18 -6 20 -62 19 -35 0 -92 2 -128 6 -53 5
-68 3 -79 -9z"/>
<path d="M4428 3923 c7 -3 16 -2 19 1 4 3 -2 6 -13 5 -11 0 -14 -3 -6 -6z"/>
<path d="M4045 3902 c-24 -5 -35 -20 -28 -38 6 -16 94 -9 105 9 20 32 -8 43
-77 29z"/>
<path d="M4876 3884 c-4 -10 -1 -14 6 -12 15 5 23 28 10 28 -5 0 -13 -7 -16
-16z"/>
<path d="M3902 3873 c-10 -20 -6 -43 8 -43 5 0 14 9 19 19 8 14 7 22 -4 31
-11 9 -16 7 -23 -7z"/>
<path d="M1775 3870 c-29 -7 -28 -8 12 -9 23 0 49 -4 59 -8 12 -4 15 -2 12 8
-5 16 -41 20 -83 9z"/>
<path d="M3650 3870 c-41 -8 -815 -121 -1265 -185 -99 -14 -190 -31 -203 -38
-22 -11 -23 -15 -17 -77 11 -114 16 -895 6 -923 -9 -22 -19 -27 -83 -37 -71
-12 -223 -44 -438 -93 -58 -13 -148 -29 -200 -36 -52 -7 -99 -17 -105 -21 -5
-5 -30 -10 -55 -13 -25 -3 -65 -10 -90 -16 -25 -5 -202 -40 -395 -76 -192 -37
-357 -71 -365 -75 -20 -10 -24 -99 -10 -219 6 -52 17 -241 25 -420 23 -528 26
-576 35 -581 4 -3 11 -77 15 -165 4 -87 12 -173 16 -190 7 -23 5 -33 -6 -41
-19 -14 -19 -19 2 -44 22 -25 33 -25 33 0 0 11 5 20 10 20 18 0 11 -66 -8 -84
-26 -23 -51 -98 -34 -104 9 -3 9 -9 1 -24 -8 -14 -9 -66 -5 -157 3 -75 6 -166
6 -203 0 -58 3 -68 18 -68 11 0 22 13 30 32 10 28 9 38 -9 71 -26 50 -16 60
20 20 21 -24 26 -34 17 -43 -8 -9 -5 -16 11 -27 18 -12 21 -19 12 -34 -7 -15
-6 -19 6 -19 8 0 15 8 15 18 0 13 22 25 89 47 81 28 91 29 122 17 40 -16 91
-61 83 -74 -3 -4 2 -8 10 -8 9 0 16 3 17 8 0 4 2 50 5 102 5 122 12 160 27
160 9 0 12 11 9 35 -2 19 -8 33 -12 30 -5 -3 -12 0 -16 6 -3 6 -29 22 -57 34
-49 23 -50 24 -23 31 32 8 114 -28 123 -55 10 -25 24 -31 76 -31 35 0 47 4 47
15 0 19 28 19 66 1 51 -24 77 -30 72 -15 -3 8 1 34 9 58 7 24 11 46 9 49 -3 2
-18 0 -35 -6 -34 -12 -91 4 -91 25 0 7 -15 28 -32 47 -26 28 -32 43 -30 70 3
26 -1 37 -17 45 -15 8 -22 26 -27 61 -5 38 -10 48 -19 40 -6 -5 -15 -7 -18 -3
-4 3 -7 65 -7 136 0 129 5 149 20 85 6 -26 8 -18 9 40 1 56 6 80 19 97 19 24
19 23 25 -103 4 -70 7 -167 7 -215 0 -100 7 -119 49 -137 17 -6 37 -23 46 -37
9 -14 19 -22 22 -20 10 10 -29 55 -57 67 -21 9 -31 21 -35 44 -3 17 -9 187
-15 378 -8 287 -7 351 4 373 19 36 23 18 25 -110 1 -60 6 -202 11 -315 5 -113
10 -236 10 -273 l0 -68 45 -20 c29 -13 42 -24 39 -33 -4 -9 3 -16 18 -18 19
-2 24 -10 26 -43 2 -22 7 -44 11 -48 9 -9 31 89 31 135 0 21 4 27 13 22 8 -5
7 -2 -2 9 -20 24 -7 32 29 17 34 -14 34 -14 19 -41 -8 -16 -13 -18 -25 -8 -11
9 -14 8 -14 -2 0 -8 5 -21 10 -29 9 -13 11 -13 20 0 7 10 12 11 18 4 4 -6 15
-13 25 -17 13 -5 17 -16 15 -49 -1 -24 1 -53 5 -64 7 -19 2 -24 -40 -38 -47
-16 -48 -16 -64 5 -16 22 -17 22 -28 -30 -6 -29 -11 -79 -11 -112 0 -61 26
-186 41 -204 13 -13 11 142 -2 209 -13 61 -9 70 31 81 16 4 20 3 12 -3 -10 -7
-13 -45 -13 -158 1 -114 -3 -156 -14 -178 -8 -15 -15 -30 -15 -32 0 -8 229 -3
234 5 3 5 20 14 37 20 29 10 31 9 26 -9 -5 -20 0 -20 209 -20 l214 0 0 53 c0
46 -8 109 -25 187 -2 14 4 0 15 -30 12 -35 19 -83 19 -132 l1 -78 198 1 197 0
-61 23 c-165 61 -319 191 -423 356 -23 36 -45 74 -50 85 -17 38 -33 157 -32
227 1 62 -1 70 -16 64 -82 -32 -206 -25 -284 14 -21 11 -39 17 -39 13 0 -13
-72 62 -98 102 -14 22 -33 67 -42 100 -16 56 -19 60 -48 63 -37 4 -42 24 -9
39 21 10 22 15 17 78 -3 36 0 122 6 190 18 179 51 247 165 331 26 19 53 34 60
34 8 0 -1 -9 -20 -21 -18 -11 -35 -28 -38 -39 -3 -10 -10 -17 -17 -14 -14 5
-80 -78 -101 -129 -19 -45 -35 -185 -35 -305 l0 -93 33 6 c29 6 35 3 45 -19
10 -22 8 -27 -11 -41 -12 -8 -27 -15 -34 -15 -16 0 -16 -3 2 -46 l15 -36 40
32 c22 17 54 48 71 68 l31 37 -16 -33 c-9 -18 -39 -49 -66 -70 -27 -20 -49
-41 -49 -47 -1 -15 71 -106 98 -124 23 -15 23 -14 17 7 -11 32 1 27 19 -9 19
-36 68 -59 108 -52 15 3 40 0 56 -7 23 -9 42 -9 86 0 46 10 58 16 66 38 18 47
62 133 65 129 3 -2 -5 -33 -16 -68 -42 -129 -35 -339 11 -339 27 0 44 -47 28
-76 -10 -19 -6 -31 25 -82 51 -84 205 -228 291 -274 117 -61 200 -81 313 -76
53 3 118 12 143 21 63 23 162 90 179 122 7 14 17 25 22 25 12 0 10 -34 -4 -48
-7 -7 -11 -28 -10 -47 3 -36 1 -38 -51 -50 -19 -4 -26 -2 -22 5 7 11 -9 6 -85
-28 l-45 -21 416 0 416 -1 7 282 c7 322 16 608 21 718 2 41 4 96 4 123 1 26 6
47 11 47 6 0 10 -11 10 -25 0 -15 6 -25 14 -25 28 0 226 -288 226 -327 0 -11
-68 -39 -114 -47 -33 -6 -46 -21 -46 -52 0 -12 -2 -41 -5 -65 -8 -58 3 -74 38
-58 15 7 27 17 27 24 0 16 120 57 134 46 7 -6 17 -6 26 -1 8 6 20 10 25 10 13
0 115 -153 115 -172 0 -7 6 -22 14 -33 30 -44 48 -122 51 -227 1 -60 -1 -108
-6 -108 -5 0 -6 7 -3 15 4 8 1 15 -5 15 -6 0 -11 -5 -11 -11 0 -5 -4 -8 -9 -5
-5 3 -14 -1 -21 -10 -7 -8 -19 -13 -27 -10 -7 3 -13 1 -13 -4 0 -11 -47 -60
-60 -61 -6 -1 -16 -2 -22 -3 -7 0 -14 -9 -16 -19 -3 -16 9 -17 141 -17 l144 0
7 46 c10 73 7 118 -8 150 -9 18 -16 85 -21 179 -3 83 -7 161 -8 175 -1 14 -12
39 -25 57 -12 17 -22 36 -22 43 0 7 -8 9 -20 5 -11 -4 -20 -2 -20 4 0 6 -12
11 -26 11 -23 0 -25 -2 -14 -15 7 -9 11 -17 9 -20 -6 -6 -99 121 -99 135 0 7
-11 21 -25 32 -17 13 -24 26 -20 38 4 11 -1 24 -12 32 -25 19 -43 53 -43 83 0
14 -4 25 -10 25 -5 0 -10 14 -10 32 0 17 -3 28 -6 25 -14 -14 -43 15 -50 47
-3 19 -12 37 -20 40 -8 3 -14 12 -14 21 0 8 -5 15 -10 15 -12 0 -29 39 -37 85
-5 29 -5 29 11 10 16 -19 17 -19 10 15 -8 42 -12 50 -25 50 -6 0 -7 -9 -4 -20
4 -12 2 -20 -5 -20 -6 0 -9 17 -8 42 2 32 -1 43 -12 43 -8 1 -14 6 -12 13 1 7
-2 12 -7 12 -5 0 -18 20 -29 44 -12 24 -28 46 -36 49 -19 7 -22 68 -5 99 10
18 20 85 20 129 1 11 8 14 29 11 16 -2 29 -7 28 -11 -5 -40 5 -39 40 6 22 26
59 66 83 89 24 22 50 48 57 57 12 15 11 15 -20 7 -40 -12 -38 -12 -38 0 0 5
28 18 61 27 49 13 73 28 118 71 31 30 66 61 79 69 18 13 20 18 10 25 -9 6 -6
7 10 3 15 -4 24 -1 28 9 3 9 10 14 14 11 5 -3 31 8 58 24 28 16 52 27 55 25 3
-3 31 9 63 26 l59 31 -40 -6 c-22 -4 -50 -13 -62 -21 -13 -8 -23 -10 -23 -5 0
5 4 12 9 15 5 3 12 23 16 43 4 21 11 44 17 51 7 8 7 12 -1 12 -6 0 -11 9 -11
20 0 11 5 20 10 20 6 0 9 10 9 23 -1 17 -2 18 -6 4 -2 -9 -8 -15 -13 -12 -5 3
-7 12 -3 21 3 9 0 14 -8 12 -9 -2 -14 6 -14 21 0 15 -8 27 -20 32 -11 4 -15 8
-8 8 19 1 65 -22 88 -44 58 -55 111 -82 138 -72 16 6 43 85 32 95 -4 4 -10 1
-12 -5 -3 -7 -11 -13 -19 -13 -13 0 -19 -18 -15 -48 1 -8 -7 -4 -18 7 -12 12
-29 21 -40 21 -10 0 -21 9 -24 21 -3 11 -15 23 -26 26 -12 3 -21 9 -21 13 0 4
-25 15 -55 25 -30 9 -55 22 -55 28 0 7 -6 4 -14 -5 -12 -16 -13 -16 -26 3 -8
10 -20 19 -27 19 -16 0 -16 -5 -3 -30 10 -19 -7 -66 -30 -80 -7 -4 -15 -28
-17 -53 -3 -26 -13 -53 -22 -60 -9 -8 -54 -24 -101 -36 -47 -12 -93 -24 -102
-27 -15 -4 -18 1 -18 35 0 23 -4 41 -8 41 -11 0 -34 -89 -26 -102 5 -7 2 -8
-6 -3 -10 6 -12 1 -7 -23 7 -37 2 -41 -13 -11 -9 15 -8 24 1 35 6 8 7 14 2 14
-17 0 -33 -24 -34 -49 0 -18 -3 -21 -7 -11 -11 23 -36 18 -43 -10 -4 -14 -7
-69 -8 -122 -1 -80 -4 -98 -16 -98 -11 0 -15 -11 -13 -42 l1 -43 4 38 c5 43
18 50 21 10 2 -29 -22 -63 -46 -63 -13 0 -14 21 -8 148 3 81 8 246 11 367 3
121 8 257 11 303 6 78 7 82 30 82 13 0 24 5 24 11 0 6 -8 8 -19 4 -14 -4 -23
0 -31 15 -12 22 -8 25 20 10 15 -8 20 -6 25 10 3 11 9 20 13 20 4 0 7 35 6 78
-2 119 14 523 25 657 6 66 13 175 17 243 l6 122 -33 -1 c-19 -1 -54 -5 -79 -9z
m51 -548 c-1 -73 -5 -140 -8 -148 -3 -9 -6 -68 -7 -132 -1 -113 -2 -117 -24
-120 -16 -2 -25 3 -31 20 -9 21 -10 20 -10 -10 -1 -22 -5 -32 -13 -29 -9 2
-13 29 -14 83 l0 79 -80 23 c-43 12 -128 36 -189 52 -143 39 -244 73 -192 65
32 -5 37 -3 37 14 0 11 7 26 15 35 8 8 15 18 15 21 0 4 16 25 35 48 19 22 35
44 35 48 0 3 -14 9 -32 13 -17 3 -29 8 -26 11 6 7 376 -74 401 -86 15 -9 17
-4 17 51 0 33 4 60 10 60 6 0 10 7 10 16 0 12 -3 14 -13 6 -8 -7 -18 -6 -32 4
-18 14 -15 15 39 12 l58 -3 -1 -133z m-321 -262 c0 -5 -4 -10 -10 -10 -5 0
-10 5 -10 10 0 6 5 10 10 10 6 0 10 -4 10 -10z m60 -14 c0 -3 -4 -8 -10 -11
-5 -3 -10 -1 -10 4 0 6 5 11 10 11 6 0 10 -2 10 -4z m50 -16 c0 -5 -4 -10 -10
-10 -5 0 -10 5 -10 10 0 6 5 10 10 10 6 0 10 -4 10 -10z m-640 -69 c0 -12 -39
-21 -45 -11 -3 5 3 11 12 13 29 8 33 7 33 -2z m-80 -15 c0 -3 -4 -8 -10 -11
-5 -3 -10 -1 -10 4 0 6 5 11 10 11 6 0 10 -2 10 -4z m768 -42 c15 -3 37 -11
50 -17 17 -8 25 -8 34 1 7 7 25 12 41 12 22 0 28 -4 23 -16 -3 -9 -6 -24 -6
-34 0 -30 -41 -31 -140 0 -52 16 -90 29 -84 29 7 1 14 11 17 22 4 15 11 20 22
15 9 -3 29 -9 43 -12z m-999 -8 c-11 -9 -63 -17 -54 -8 6 6 19 12 30 14 20 4
32 1 24 -6z m-199 -35 c0 -5 -21 -12 -46 -16 -26 -3 -54 -9 -63 -12 -9 -4 -13
-2 -8 3 5 5 32 14 60 20 29 7 53 12 55 13 1 0 2 -3 2 -8z m190 -101 c-20 -13
-53 -13 -45 0 3 6 18 10 33 10 21 0 24 -2 12 -10z m-181 -35 c-9 -9 -139 -33
-139 -25 0 4 30 14 68 22 63 14 82 15 71 3z m190 -89 c-2 -2 -18 -8 -34 -11
-21 -5 -27 -4 -20 3 6 5 19 12 30 14 20 4 32 1 24 -6z m-190 -40 c-9 -9 -129
-33 -129 -25 0 4 28 14 63 22 57 13 77 14 66 3z m496 -25 c-8 -13 -35 -15 -35
-2 0 5 8 11 18 13 21 5 26 2 17 -11z m-305 -60 c0 -11 -59 -26 -67 -18 -3 3
10 10 28 16 19 5 35 10 37 10 1 1 2 -3 2 -8z m-648 -38 c10 -9 18 -22 18 -28
0 -7 7 -18 15 -25 8 -7 15 -20 15 -29 0 -9 12 -34 27 -56 18 -27 22 -40 14
-43 -7 -2 -16 -15 -22 -28 -8 -23 -12 -24 -61 -19 -29 4 -66 11 -83 17 -16 6
-61 18 -100 27 -55 13 -72 22 -82 41 -11 23 -10 26 10 30 15 4 23 15 25 34 4
29 10 39 50 83 22 24 28 25 90 19 39 -4 74 -14 84 -23z m458 -8 c0 -4 -50 -18
-110 -30 -20 -4 -31 -4 -27 1 16 17 137 43 137 29z m519 -29 c-53 -46 -118
-93 -106 -75 15 21 92 79 105 79 3 0 3 -2 1 -4z m-863 -88 c44 -87 87 -198 80
-206 -3 -3 -8 4 -12 14 -13 43 -59 153 -86 207 -15 31 -26 57 -23 57 2 0 21
-33 41 -72z m534 32 c0 -5 -6 -10 -12 -10 -7 0 -23 -3 -35 -6 -13 -4 -23 -2
-23 4 0 11 20 19 53 21 9 0 17 -3 17 -9z m-190 -40 c0 -9 -35 -20 -107 -35
-61 -12 -34 13 30 28 80 19 77 19 77 7z m-321 -115 c0 -5 -6 -1 -14 9 -8 11
-15 27 -15 35 1 17 29 -26 29 -44z m515 25 c-15 -15 -74 -24 -74 -12 0 12 21
19 60 21 16 1 21 -2 14 -9z m-994 -55 c0 -14 -4 -25 -10 -25 -8 0 -8 23 -1 48
4 12 11 -3 11 -23z m798 13 c-7 -20 -138 -48 -138 -30 0 5 28 16 63 24 80 20
79 20 75 6z m252 -67 c0 -5 -20 -14 -44 -20 -88 -22 -117 -8 -33 16 53 14 77
15 77 4z m1200 -42 c0 -5 -4 -9 -10 -9 -5 0 -10 7 -10 16 0 8 5 12 10 9 6 -3
10 -10 10 -16z m-1153 4 c-128 -221 -377 -693 -377 -716 0 -9 -16 -21 -35 -27
-19 -6 -35 -15 -35 -20 0 -4 9 -50 19 -101 11 -52 29 -157 40 -234 29 -193 27
-188 52 -175 11 6 22 25 26 41 5 25 10 30 32 27 20 -2 27 -9 29 -29 2 -21 -5
-33 -39 -58 -24 -17 -49 -31 -56 -31 -9 0 -13 -17 -13 -57 0 -67 -18 -142 -29
-124 -4 6 -6 46 -3 89 l4 77 -31 12 c-39 14 -43 42 -4 35 25 -5 26 -4 21 35
-3 22 -21 112 -39 199 l-34 159 -5 -90 c-3 -52 -8 -82 -12 -70 -11 31 -27 132
-34 218 -6 66 -9 77 -26 77 -10 0 -27 -5 -37 -12 -25 -15 -105 1 -109 22 -5
26 60 53 107 45 48 -8 48 -8 25 79 -11 42 -14 80 -10 123 6 57 5 63 -16 74
-19 10 -24 9 -36 -10 -19 -28 -56 -27 -74 2 -20 29 -29 92 -16 105 11 11 2 52
-11 52 -4 0 -6 14 -3 30 4 25 1 30 -17 30 -12 0 -21 6 -21 14 0 12 -13 9 -61
-10 -34 -14 -85 -28 -113 -31 -28 -3 -54 -11 -58 -17 -5 -8 -8 -7 -8 2 0 6 -8
12 -17 12 -33 1 -98 37 -143 80 -25 23 -36 36 -25 29 11 -8 25 -19 32 -26 29
-27 82 -53 121 -59 37 -6 42 -4 43 12 1 17 2 17 6 2 2 -10 14 -18 26 -18 31 0
197 52 197 62 0 4 -4 8 -9 8 -12 0 -5 60 8 73 5 5 22 10 37 10 16 0 57 15 92
33 35 19 74 34 87 34 30 0 54 -24 62 -63 4 -21 15 -33 35 -41 19 -7 28 -17 28
-32 0 -22 1 -22 53 -8 61 16 77 17 77 5 0 -5 -24 -15 -52 -21 -82 -19 -88 -25
-88 -75 0 -51 1 -51 80 -30 30 8 56 12 58 10 11 -11 -15 -24 -72 -36 -62 -12
-64 -13 -70 -48 -3 -20 -6 -53 -6 -74 l0 -39 -42 3 c-56 5 -68 -15 -43 -71 11
-23 21 -36 25 -30 4 7 15 -21 26 -60 17 -68 19 -71 43 -65 14 4 28 10 31 13 3
4 13 12 23 17 10 6 32 34 49 64 l31 54 -24 -5 c-13 -3 -39 -9 -56 -13 -22 -5
-33 -4 -33 3 0 10 22 18 100 37 20 5 39 32 93 135 38 72 64 130 58 130 -20 0
-11 20 12 29 14 6 36 34 56 73 39 73 91 158 98 158 2 0 2 -3 0 -7z m1366 -5
c3 -10 8 -9 22 2 17 14 17 14 7 -7 -16 -28 -32 -38 -32 -19 0 8 -5 18 -11 22
-13 8 -29 -13 -29 -40 0 -14 5 -17 21 -13 17 4 18 3 8 -9 -15 -19 -39 0 -39
30 0 37 42 64 53 34z m-2463 -13 c0 -9 -9 -15 -22 -15 -21 0 -21 0 -2 15 24
18 24 18 24 0z m800 -4 c0 -10 -130 -44 -138 -36 -9 9 4 16 55 30 58 16 83 18
83 6z m-1570 -31 c62 -17 120 -93 120 -155 0 -19 -7 -26 -27 -30 -32 -7 -134
-33 -280 -72 -56 -15 -105 -25 -108 -21 -13 12 16 113 45 160 33 53 83 94 137
114 46 16 67 17 113 4z m3275 0 c3 -5 1 -10 -4 -10 -6 0 -11 5 -11 10 0 6 2
10 4 10 3 0 8 -4 11 -10z m-325 -24 c0 -2 -7 -9 -15 -16 -13 -11 -14 -10 -9 4
5 14 24 23 24 12z m290 -6 c0 -5 -5 -10 -11 -10 -5 0 -7 5 -4 10 3 6 8 10 11
10 2 0 4 -4 4 -10z m-1460 -14 c0 -8 -16 -17 -37 -22 -50 -11 -53 -11 -55 0
-2 5 15 15 37 22 54 16 55 16 55 0z m1420 -6 c-8 -5 -19 -10 -25 -10 -5 0 -3
5 5 10 8 5 20 10 25 10 6 0 3 -5 -5 -10z m-2710 -175 c6 4 10 -3 10 -14 0 -12
-6 -21 -12 -21 -10 0 -10 -2 -1 -8 19 -12 26 -138 38 -752 4 -202 2 -261 -8
-285 -13 -28 -14 -20 -20 100 -4 72 -10 271 -13 443 -4 172 -11 315 -15 318
-10 6 -29 -37 -22 -49 3 -4 11 -193 18 -420 8 -227 17 -429 20 -449 5 -38 1
-44 -22 -30 -15 9 -21 52 -27 187 -8 165 -19 1061 -13 1055 2 -3 8 -61 11
-129 7 -130 9 -141 30 -141 9 0 12 44 10 183 0 100 1 142 3 94 2 -53 8 -85 13
-82z m128 29 c-10 -9 -41 24 -33 35 5 9 11 7 22 -9 8 -12 13 -23 11 -26z
m2082 26 c18 -12 2 -12 -25 0 -13 6 -15 9 -5 9 8 0 22 -4 30 -9z m-2383 -182
c-3 -7 -5 -2 -5 12 0 14 2 19 5 13 2 -7 2 -19 0 -25z m1253 3 c0 -9 -94 -41
-119 -41 -28 0 -7 20 32 30 23 6 47 13 52 15 19 7 35 5 35 -4z m-1340 -51 c30
-43 18 -37 -16 7 -15 20 -23 33 -16 29 6 -3 21 -20 32 -36z m100 1 c0 -16 5
-31 11 -33 6 -2 9 -13 7 -23 -4 -17 -7 -16 -17 10 -18 43 -23 75 -11 75 5 0
10 -13 10 -29z m304 -32 c4 -17 1 -29 -7 -32 -8 -3 -11 5 -10 27 2 49 6 50 17
5z m241 -84 c-22 -73 -29 -66 -10 9 8 31 16 67 16 79 2 18 3 17 6 -5 2 -14 -3
-52 -12 -83z m71 -99 c34 -74 68 -198 61 -220 -2 -6 -11 23 -21 65 -9 42 -32
109 -51 148 -37 76 -38 81 -29 81 3 0 21 -33 40 -74z m-646 -62 c0 -8 -4 -12
-10 -9 -5 3 -10 1 -10 -4 0 -6 3 -11 8 -11 4 0 8 -41 9 -90 1 -50 5 -95 9
-101 3 -6 -3 -5 -15 3 -19 12 -21 22 -21 115 0 95 2 104 28 112 1 1 2 -6 2
-15z m581 -81 c-6 -21 -20 -49 -31 -63 -20 -24 -20 -23 1 18 12 24 24 64 28
90 4 33 7 39 9 20 2 -14 -2 -44 -7 -65z m-1066 57 c3 -5 2 -10 -4 -10 -5 0
-13 5 -16 10 -3 6 -2 10 4 10 5 0 13 -4 16 -10z m3051 -1 c3 -6 -1 -18 -10
-27 -15 -15 -16 -14 -16 11 0 27 13 36 26 16z m-2673 -44 c0 -6 -7 -11 -16
-13 -12 -3 -15 1 -11 13 7 17 25 17 27 0z m-53 -25 c-19 -13 -30 -13 -30 0 0
6 10 10 23 10 18 0 19 -2 7 -10z m-83 -67 c-3 -10 -5 -4 -5 12 0 17 2 24 5 18
2 -7 2 -21 0 -30z m-43 -8 c3 -8 1 -15 -4 -15 -6 0 -10 7 -10 15 0 8 2 15 4
15 2 0 6 -7 10 -15z m1325 -213 c7 -28 17 -55 22 -58 5 -3 9 -26 8 -52 -1 -43
-4 -37 -29 63 -21 79 -28 133 -28 190 l1 80 7 -85 c4 -47 12 -109 19 -138z
m-1210 -140 c0 -46 -2 -81 -7 -78 -4 2 -8 94 -8 203 -1 180 -1 187 6 78 4 -66
8 -157 9 -203z m-54 123 c3 -87 8 -162 11 -166 2 -4 -1 -11 -7 -14 -5 -4 -8
-13 -5 -21 3 -7 1 -16 -4 -19 -6 -4 -10 25 -10 72 0 43 -3 137 -6 208 -3 84
-2 125 4 115 5 -8 13 -87 17 -175z m-42 -113 c4 -91 2 -122 -6 -119 -9 3 -12
63 -13 208 -2 216 8 170 19 -89z m253 256 c3 -30 -18 -53 -41 -44 -20 7 -19
35 2 58 21 24 35 19 39 -14z m-398 -80 l20 -103 1 93 c2 148 18 106 25 -65 7
-168 13 -216 25 -209 4 3 6 90 5 193 -3 219 10 196 23 -38 10 -177 9 -181 -23
-173 -19 5 -24 2 -24 -12 0 -14 -3 -15 -12 -6 -7 7 -23 12 -36 12 -22 0 -23
-2 -11 -17 8 -10 9 -14 2 -10 -6 4 -15 2 -19 -4 -5 -9 -11 -7 -21 6 -12 18
-13 18 -13 -2 0 -15 -8 -22 -27 -26 -16 -3 -29 -5 -30 -4 0 1 -4 92 -8 203 -6
146 -5 203 4 208 7 5 11 -4 11 -27 0 -34 20 -64 33 -50 4 3 8 -2 9 -13 0 -10
4 13 7 51 4 39 3 72 -1 73 -14 6 2 22 22 22 15 0 21 -17 38 -102z m1222 -214
c0 -22 -33 28 -58 89 -49 120 -46 128 7 20 28 -56 51 -105 51 -109z m204 72
c-6 -15 -78 -76 -90 -76 -5 0 12 20 36 45 45 45 64 57 54 31z m-449 -66 c10
-11 16 -20 13 -20 -3 0 -13 9 -23 20 -10 11 -16 20 -13 20 3 0 13 -9 23 -20z
m-256 -12 c-7 -12 -27 -46 -46 -75 -18 -29 -36 -66 -40 -83 -3 -17 -10 -33
-16 -37 -12 -7 0 79 12 87 4 3 21 25 36 50 41 66 82 110 54 58z m777 -33 c-3
-8 0 -28 5 -44 6 -17 9 -38 7 -48 -3 -11 -9 -2 -17 25 -11 39 -8 82 6 82 3 0
3 -7 -1 -15z m-1254 -97 c-9 -9 -12 -4 -11 23 0 32 1 33 11 11 8 -17 8 -26 0
-34z m-52 1 c0 -17 -4 -28 -10 -24 -5 3 -10 17 -10 31 0 13 5 24 10 24 6 0 10
-14 10 -31z m-49 -20 c-9 -23 -10 -22 -10 11 -1 23 2 31 9 24 7 -7 7 -19 1
-35z m-41 1 c0 -16 -4 -30 -10 -30 -5 0 -10 14 -10 30 0 17 5 30 10 30 6 0 10
-13 10 -30z m-50 -21 c0 -16 -4 -28 -9 -25 -8 5 -3 56 5 56 2 0 4 -14 4 -31z
m-70 -13 c0 -12 -3 -26 -6 -29 -13 -13 -21 3 -16 32 5 35 22 32 22 -3z m264
-18 c-9 -18 -19 -35 -22 -38 -8 -9 10 45 20 58 18 22 19 13 2 -20z m923 6 c-3
-3 -12 -4 -19 -1 -8 3 -5 6 6 6 11 1 17 -2 13 -5z m-49 -11 c-10 -2 -26 -2
-35 0 -10 3 -2 5 17 5 19 0 27 -2 18 -5z m-706 -68 c-12 -26 -47 -34 -55 -12
-5 14 11 49 27 59 6 4 17 1 25 -7 12 -11 12 -19 3 -40z m1173 25 c3 -5 1 -10
-4 -10 -6 0 -11 5 -11 10 0 6 2 10 4 10 3 0 8 -4 11 -10z m58 -134 c83 -97
230 -178 353 -196 40 -5 84 -14 98 -20 37 -14 46 -13 46 6 0 8 4 13 9 10 10
-7 2 -56 -10 -56 -5 0 -26 6 -46 14 -21 8 -72 20 -113 27 -52 8 -103 25 -165
57 -108 54 -169 103 -220 177 -39 56 -49 63 -60 45 -3 -5 -18 -10 -33 -10 -27
1 -27 1 6 15 19 8 32 21 32 32 1 19 -2 22 103 -101z m-1460 59 c-2 -8 -11 -11
-19 -8 -8 3 -14 -1 -14 -10 0 -9 -4 -19 -10 -22 -6 -4 -7 2 -1 17 4 13 6 28 4
34 -2 7 5 10 21 7 15 -3 23 -10 19 -18z m-161 -38 c-19 -19 -24 -20 -32 -7 -7
11 -5 16 8 18 9 2 21 8 26 13 21 19 18 -3 -2 -24z m48 -27 c0 -5 -7 -10 -16
-10 -8 0 -12 5 -9 10 3 6 10 10 16 10 5 0 9 -4 9 -10z m2126 -13 c11 -12 30
-42 41 -67 22 -49 41 -142 25 -125 -21 21 -53 92 -58 128 -4 20 -10 37 -15 37
-5 0 -6 -7 -2 -16 4 -12 2 -15 -8 -12 -8 3 -13 10 -12 15 1 5 -11 7 -27 5
l-30 -4 16 31 c18 37 41 39 70 8z m-2056 -1 c0 -2 -7 -7 -16 -10 -8 -3 -12 -2
-9 4 6 10 25 14 25 6z m375 -26 c3 -5 1 -10 -4 -10 -6 0 -11 5 -11 10 0 6 2
10 4 10 3 0 8 -4 11 -10z m-532 -37 c-4 -11 -3 -14 5 -9 7 4 12 1 12 -9 0 -9
-5 -13 -10 -10 -6 4 -17 1 -25 -5 -18 -15 -20 1 -5 31 13 23 32 26 23 2z m825
-10 c2 -12 -6 -31 -18 -43 -28 -28 -60 -12 -60 30 0 31 12 40 50 37 17 -1 26
-9 28 -24z m1353 -9 c17 -8 28 -18 25 -21 -3 -3 -20 4 -38 16 -39 24 -30 28
13 5z m59 -142 c0 -4 -5 -13 -11 -19 -6 -6 -16 -21 -23 -34 -6 -12 -17 -24
-23 -27 -22 -6 -14 21 14 56 26 31 43 41 43 24z m-515 -70 c-3 -3 -11 0 -18 7
-9 10 -8 11 6 5 10 -3 15 -9 12 -12z m-1510 -2 c3 -5 1 -10 -4 -10 -6 0 -11 5
-11 10 0 6 2 10 4 10 3 0 8 -4 11 -10z m1561 -16 c18 -14 18 -14 -6 -3 -31 14
-36 19 -24 19 6 0 19 -7 30 -16z m59 -14 c13 -6 15 -9 5 -9 -8 0 -22 4 -30 9
-18 12 -2 12 25 0z"/>
<path d="M1667 2353 c-11 -10 13 -32 29 -26 20 8 17 33 -4 33 -10 0 -22 -3
-25 -7z"/>
<path d="M1755 2329 c-10 -15 1 -23 20 -15 9 3 13 10 10 16 -8 13 -22 13 -30
-1z"/>
<path d="M1835 2310 c-3 -5 -2 -10 4 -10 5 0 13 5 16 10 3 6 2 10 -4 10 -5 0
-13 -4 -16 -10z"/>
<path d="M1915 2300 c-3 -5 -1 -10 4 -10 6 0 11 5 11 10 0 6 -2 10 -4 10 -3 0
-8 -4 -11 -10z"/>
<path d="M2115 1970 c3 -5 8 -10 11 -10 2 0 4 5 4 10 0 6 -5 10 -11 10 -5 0
-7 -4 -4 -10z"/>
<path d="M5200 3862 c0 -6 7 -13 15 -16 13 -5 15 -18 10 -73 -4 -53 -3 -63 5
-43 6 13 10 49 8 79 -2 44 -7 57 -20 59 -10 2 -18 -1 -18 -6z"/>
<path d="M4880 3846 c-13 -17 -7 -46 9 -46 14 0 25 40 14 51 -6 6 -15 4 -23
-5z"/>
<path d="M4534 3833 c-3 -10 -10 -30 -16 -44 -13 -35 0 -119 18 -119 14 0 54
81 54 111 0 10 -4 21 -10 24 -5 3 -10 15 -10 26 0 24 -29 25 -36 2z"/>
<path d="M4712 3818 c-7 -7 -12 -20 -12 -30 0 -24 36 -24 48 0 18 34 -9 57
-36 30z"/>
<path d="M5181 3758 c1 -68 6 -61 11 15 2 26 0 47 -4 47 -5 0 -7 -28 -7 -62z"/>
<path d="M4090 3715 c-9 -11 -10 -19 -2 -27 14 -14 32 -1 32 23 0 23 -13 25
-30 4z"/>
<path d="M535 3713 c-44 -7 -55 -21 -55 -70 0 -65 17 -67 185 -18 33 10 77 21
99 25 41 8 62 28 45 45 -5 5 -49 10 -97 10 -48 0 -100 3 -117 6 -16 4 -43 5
-60 2z"/>
<path d="M3913 3693 c-15 -5 -17 -39 -4 -48 13 -7 32 28 23 42 -4 5 -13 8 -19
6z"/>
<path d="M5256 3622 c-3 -5 -9 -56 -13 -113 -10 -131 -10 -122 3 -126 7 -2 13
37 17 119 6 120 5 139 -7 120z"/>
<path d="M4120 3553 c-19 -8 -60 -15 -91 -14 -39 0 -61 -4 -69 -14 -17 -21 -6
-29 19 -15 12 6 26 8 31 5 5 -3 42 1 82 10 104 22 101 22 96 -30 -5 -38 -3
-44 8 -34 8 7 14 31 14 60 0 47 -1 49 -27 48 -16 0 -44 -7 -63 -16z"/>
<path d="M1501 3487 c-9 -24 3 -41 36 -51 18 -6 22 -2 28 23 8 38 2 49 -31 49
-17 0 -28 -8 -33 -21z"/>
<path d="M1426 3487 c-11 -8 -16 -19 -12 -26 6 -9 11 -9 24 1 13 11 14 11 8
-1 -6 -9 -4 -12 5 -9 16 5 19 40 4 45 -6 2 -19 -3 -29 -10z"/>
<path d="M1260 3452 c-41 -7 -86 -16 -100 -20 -58 -15 43 -13 132 2 50 9 95
16 100 16 4 0 8 4 8 8 0 11 -54 9 -140 -6z"/>
<path d="M763 3427 c-29 -11 -53 -25 -53 -33 0 -15 38 -44 59 -44 7 0 20 -8
28 -17 8 -10 11 -12 7 -4 -5 11 -3 13 9 8 9 -3 19 -2 21 2 6 9 58 23 96 26 14
1 37 5 53 10 23 6 27 4 27 -12 0 -14 6 -19 23 -17 12 1 28 3 35 3 18 1 15 28
-5 36 -15 6 -13 9 12 20 17 7 24 14 16 14 -7 1 -11 7 -8 14 4 10 -26 13 -132
13 -113 1 -145 -2 -188 -19z"/>
<path d="M4855 3440 c-3 -5 3 -10 14 -10 12 0 21 5 21 10 0 6 -6 10 -14 10 -8
0 -18 -4 -21 -10z"/>
<path d="M4852 3398 c-18 -18 -14 -27 8 -21 21 6 26 18 12 27 -5 3 -14 0 -20
-6z"/>
<path d="M4505 3354 c-23 -57 -16 -148 12 -142 20 4 46 84 39 117 -4 14 -8 33
-10 40 -6 29 -25 22 -41 -15z"/>
<path d="M4698 3343 c5 -24 6 -25 18 -8 15 20 10 35 -10 35 -9 0 -12 -9 -8
-27z"/>
<path d="M5166 3332 c-3 -6 1 -13 10 -16 13 -5 15 -18 12 -66 -1 -33 1 -60 5
-60 13 0 3 143 -10 147 -6 2 -14 0 -17 -5z"/>
<path d="M5145 3252 c-4 -35 -5 -66 -2 -68 7 -7 20 101 15 118 -3 7 -8 -15
-13 -50z"/>
<path d="M4065 3239 c-4 -6 -5 -13 -2 -16 7 -7 27 6 27 18 0 12 -17 12 -25 -2z"/>
<path d="M3892 3208 c-16 -16 -15 -38 2 -38 17 0 27 22 17 38 -5 9 -10 9 -19
0z"/>
<path d="M4695 3190 c3 -5 8 -10 11 -10 2 0 4 5 4 10 0 6 -5 10 -11 10 -5 0
-7 -4 -4 -10z"/>
<path d="M4015 3060 c-18 -7 -18 -9 -3 -15 10 -4 20 -15 23 -26 4 -10 13 -19
21 -19 10 0 12 4 7 13 -4 6 -8 21 -8 31 0 23 -12 28 -40 16z"/>
<path d="M4090 3051 c0 -11 -3 -26 -6 -35 -3 -9 -1 -16 5 -16 6 0 11 6 11 14
0 8 5 16 11 18 12 4 1 38 -12 38 -5 0 -9 -9 -9 -19z"/>
<path d="M3880 3031 c0 -6 5 -13 10 -16 6 -3 10 1 10 9 0 9 -4 16 -10 16 -5 0
-10 -4 -10 -9z"/>
<path d="M4318 2863 c7 -3 16 -2 19 1 4 3 -2 6 -13 5 -11 0 -14 -3 -6 -6z"/>
<path d="M4140 2834 c-109 -21 -300 -65 -300 -69 0 -3 15 -8 33 -13 l32 -9
-27 -8 c-36 -9 -41 -50 -5 -42 12 4 41 9 64 13 40 6 42 5 46 -22 4 -28 4 -28
6 4 1 25 7 35 27 42 39 15 44 13 44 -20 0 -49 17 -34 24 21 6 40 10 48 20 40
10 -8 20 -5 40 15 14 15 26 22 26 16 0 -5 9 -8 19 -5 13 3 18 10 14 21 -5 12
-1 14 15 10 13 -4 23 0 26 8 6 17 -5 17 -104 -2z m-137 -71 c-7 -2 -19 -2 -25
0 -7 3 -2 5 12 5 14 0 19 -2 13 -5z m-50 -10 c-7 -2 -19 -2 -25 0 -7 3 -2 5
12 5 14 0 19 -2 13 -5z"/>
<path d="M5130 2811 c0 -6 5 -11 10 -11 6 0 10 -7 10 -15 0 -8 5 -15 11 -15
18 0 5 45 -13 48 -10 2 -18 -1 -18 -7z"/>
<path d="M4594 2784 c3 -9 6 -18 6 -20 0 -3 5 -2 10 1 16 10 12 35 -6 35 -11
0 -14 -5 -10 -16z"/>
<path d="M5110 2765 c0 -15 4 -24 10 -20 6 3 10 12 10 20 0 8 -4 17 -10 20 -6
4 -10 -5 -10 -20z"/>
<path d="M3808 2753 c7 -3 16 -2 19 1 4 3 -2 6 -13 5 -11 0 -14 -3 -6 -6z"/>
<path d="M5655 2628 c-48 -19 -106 -35 -205 -56 -33 -7 14 -9 175 -8 121 0
247 -2 280 -6 65 -8 40 1 -58 21 -31 7 -63 18 -70 24 -14 14 -65 47 -69 46 -2
0 -25 -10 -53 -21z"/>
<path d="M4507 2594 c-8 -8 3 -34 14 -34 11 0 12 27 0 34 -4 3 -11 3 -14 0z"/>
<path d="M4385 2560 c-18 -8 -17 -9 8 -9 20 -1 27 -5 25 -18 -2 -12 6 -19 29
-24 20 -4 30 -3 27 3 -3 5 2 15 12 23 15 11 16 16 7 26 -10 10 -14 9 -19 -4
-8 -21 -34 -22 -34 -2 0 16 -24 19 -55 5z"/>
<path d="M4328 2543 c6 -2 18 -2 25 0 6 3 1 5 -13 5 -14 0 -19 -2 -12 -5z"/>
<path d="M4288 2533 c7 -3 16 -2 19 1 4 3 -2 6 -13 5 -11 0 -14 -3 -6 -6z"/>
<path d="M4218 2493 c7 -3 16 -2 19 1 4 3 -2 6 -13 5 -11 0 -14 -3 -6 -6z"/>
<path d="M4072 2479 c2 -7 10 -15 17 -17 8 -3 12 1 9 9 -2 7 -10 15 -17 17 -8
3 -12 -1 -9 -9z"/>
<path d="M3990 2461 c0 -10 30 -24 37 -17 3 3 2 9 -2 15 -8 13 -35 15 -35 2z"/>
<path d="M3958 2423 c-9 -3 -15 -10 -12 -17 3 -9 -4 -11 -26 -8 -16 2 -30 8
-30 13 0 5 -5 9 -11 9 -6 0 -8 -7 -5 -16 4 -9 1 -23 -5 -30 -9 -11 -6 -14 14
-14 14 0 29 5 32 10 3 6 19 10 34 10 15 0 31 3 34 7 4 3 24 8 45 10 25 2 32 0
22 -6 -21 -12 -189 -53 -198 -47 -4 2 -8 -20 -10 -49 -1 -30 2 -56 7 -59 9 -6
180 36 201 49 5 3 10 25 10 49 0 23 5 47 11 53 7 7 9 19 6 27 -7 18 -41 16
-59 -2 -9 -9 -15 -9 -27 1 -9 8 -24 12 -33 10z"/>
<path d="M4270 2200 c0 -5 5 -10 11 -10 5 0 7 5 4 10 -3 6 -8 10 -11 10 -2 0
-4 -4 -4 -10z"/>
<path d="M4400 2084 c-22 -71 -39 -100 -67 -114 -15 -8 -32 -14 -38 -15 -20 0
-52 -51 -52 -82 0 -39 -44 -100 -79 -109 -14 -4 -37 -1 -50 5 -24 11 -24 10 5
-26 17 -21 36 -55 43 -76 12 -34 19 -41 68 -58 30 -10 64 -18 76 -19 23 0 64
40 87 86 21 42 37 174 37 309 0 124 -11 159 -30 99z"/>
<path d="M5074 1822 c-22 -14 -34 -52 -34 -106 0 -79 16 -69 24 15 9 84 22 83
18 -2 -2 -34 0 -59 6 -59 15 0 22 26 22 85 0 52 -15 81 -36 67z"/>
<path d="M3660 1688 c0 -7 5 -20 10 -28 8 -12 10 -9 10 13 0 15 -4 27 -10 27
-5 0 -10 -6 -10 -12z"/>
<path d="M0 1555 c0 -18 4 -23 15 -19 20 8 20 44 0 44 -9 0 -15 -9 -15 -25z"/>
<path d="M33 1454 c-7 -19 11 -39 26 -30 16 10 13 33 -4 40 -9 3 -18 -1 -22
-10z"/>
<path d="M5 1360 c-3 -5 1 -10 9 -10 9 0 16 5 16 10 0 6 -4 10 -9 10 -6 0 -13
-4 -16 -10z"/>
<path d="M5026 1318 c-17 -27 -25 -131 -11 -138 6 -3 12 20 15 57 7 82 20 92
20 15 0 -80 15 -80 24 -1 8 82 -16 116 -48 67z"/>
<path d="M6304 1265 c18 -14 17 -15 -19 -31 -21 -8 -41 -11 -44 -7 -3 5 -16 9
-29 9 -22 0 -22 -1 -5 -14 44 -33 122 -63 147 -56 29 7 26 24 -5 24 -10 0 -19
5 -19 11 0 6 -8 8 -17 5 -10 -3 -25 -1 -33 5 -11 8 -1 9 38 4 35 -4 52 -2 52
6 0 6 -9 13 -21 16 -11 3 -18 11 -15 18 5 13 -14 25 -37 25 -7 0 -3 -7 7 -15z"/>
<path d="M40 1261 c0 -5 6 -14 14 -20 16 -13 32 2 21 19 -8 12 -35 13 -35 1z"/>
<path d="M6366 1245 c10 -8 24 -14 29 -14 6 0 1 6 -9 14 -11 8 -24 15 -30 15
-5 0 -1 -7 10 -15z"/>
<path d="M6490 1190 c0 -5 9 -10 21 -10 11 0 17 -4 14 -10 -7 -12 -75 -14 -75
-2 0 13 -54 10 -74 -4 -20 -14 -20 -14 2 -14 12 0 25 -7 28 -15 4 -10 11 -12
22 -6 10 4 28 5 42 1 35 -9 57 -1 63 22 3 11 10 17 16 13 6 -3 11 -1 11 5 0 6
-12 15 -26 20 -32 13 -44 13 -44 0z"/>
<path d="M6580 1185 c21 -12 22 -14 6 -15 -25 0 -14 -11 27 -25 35 -12 57 -10
57 6 0 6 -5 7 -10 4 -6 -3 -14 5 -20 19 -5 14 -12 26 -14 26 -3 0 -3 -7 0 -15
4 -8 2 -15 -4 -15 -5 0 -12 7 -16 15 -3 8 -16 15 -28 15 -23 -1 -23 -1 2 -15z"/>
<path d="M6720 1190 c0 -6 5 -10 11 -10 5 0 7 -4 4 -10 -3 -5 3 -10 14 -10 29
0 26 14 -4 28 -15 7 -25 8 -25 2z"/>
<path d="M6160 1150 c-256 -25 -338 -39 -320 -52 22 -17 255 -220 330 -289 52
-48 111 -94 130 -102 19 -8 62 -40 95 -70 l60 -54 -31 -16 c-41 -21 -67 -7
-163 83 -40 39 -79 70 -85 70 -6 0 -36 25 -66 56 -30 31 -77 71 -105 89 -27
18 -88 69 -134 113 -69 65 -82 83 -76 100 8 26 0 27 -90 12 -82 -13 -107 -25
-127 -60 -9 -17 -24 -30 -33 -30 -22 0 -19 -7 20 -42 24 -20 34 -36 30 -48 -6
-19 64 -87 275 -264 95 -80 120 -96 141 -92 20 4 35 -3 61 -27 35 -32 36 -34
33 -100 l-2 -68 45 -39 45 -40 104 0 c57 0 125 -5 150 -11 39 -10 50 -9 75 5
35 21 176 56 225 56 43 0 163 28 180 42 7 6 19 8 27 5 9 -4 48 1 88 9 79 16
121 46 133 91 7 30 -1 41 -87 110 -77 61 -103 73 -141 66 -16 -3 -27 -1 -27 6
0 6 5 11 10 11 25 0 7 40 -27 61 -21 13 -71 47 -110 76 -40 29 -75 53 -78 53
-3 0 -20 13 -38 29 -80 73 -168 141 -182 141 -8 0 -15 4 -15 10 0 5 -38 34
-84 65 -92 60 -88 59 -236 45z m300 -145 c-7 -8 -17 -15 -23 -15 -6 0 -2 7 9
15 25 19 30 19 14 0z m-55 -14 c7 -13 -33 -34 -51 -27 -8 3 -14 12 -14 21 0
17 55 22 65 6z m-125 -166 c0 -8 -6 -15 -14 -15 -7 0 -19 7 -26 15 -11 13 -8
15 14 15 16 0 26 -5 26 -15z m337 -1 c4 -13 -25 -23 -44 -17 -7 3 -13 11 -13
19 0 18 51 16 57 -2z m-700 -48 c16 -19 39 -39 53 -46 48 -25 134 -94 122 -98
-6 -2 -27 8 -45 22 -19 14 -39 26 -45 26 -6 0 -23 11 -39 23 -36 31 -69 39
-84 21 -16 -20 -30 -17 -67 15 -29 25 -32 32 -23 49 8 16 21 20 56 20 39 0 49
-4 72 -32z m831 -120 c43 -14 21 -23 -90 -35 -62 -6 -122 -14 -133 -16 -12 -4
-32 4 -50 19 l-30 24 45 -4 c25 -3 83 2 130 9 92 14 94 15 128 3z"/>
<path d="M6790 1150 c20 -13 33 -13 25 0 -3 6 -14 10 -23 10 -15 0 -15 -2 -2
-10z"/>
<path d="M6562 1113 c2 -13 16 -20 48 -24 25 -3 37 -7 27 -7 -26 -3 -13 -19
20 -25 16 -3 32 1 42 10 9 10 17 11 19 5 2 -7 14 -7 34 -2 20 6 43 5 68 -4 33
-11 40 -11 44 0 3 8 -1 14 -9 14 -8 0 -15 4 -15 8 0 4 -16 6 -35 4 -19 -2 -35
0 -35 6 0 5 -11 12 -25 14 -17 4 -25 1 -25 -8 0 -19 -17 -18 -28 2 -8 14 -14
15 -44 5 -40 -13 -88 -4 -52 10 16 6 14 8 -9 8 -22 1 -28 -3 -25 -16z"/>
<path d="M6443 1099 c11 -7 23 -7 35 0 14 9 11 10 -18 10 -29 0 -32 -1 -17
-10z"/>
<path d="M3642 1070 c0 -19 2 -27 5 -17 2 9 2 25 0 35 -3 9 -5 1 -5 -18z"/>
<path d="M54 1069 c-10 -17 13 -36 27 -22 12 12 4 33 -11 33 -5 0 -12 -5 -16
-11z"/>
<path d="M6916 1071 c-4 -5 -2 -12 3 -15 5 -4 12 -2 15 3 4 5 2 12 -3 15 -5 4
-12 2 -15 -3z"/>
<path d="M6810 1050 c0 -5 5 -10 10 -10 6 0 10 5 10 10 0 6 -4 10 -10 10 -5 0
-10 -4 -10 -10z"/>
<path d="M6890 1040 c0 -5 5 -10 10 -10 6 0 10 5 10 10 0 6 -4 10 -10 10 -5 0
-10 -4 -10 -10z"/>
<path d="M483 975 c0 -22 2 -30 4 -17 2 12 2 30 0 40 -3 9 -5 -1 -4 -23z"/>
<path d="M6850 979 c0 -5 5 -7 10 -4 6 3 10 8 10 11 0 2 -4 4 -10 4 -5 0 -10
-5 -10 -11z"/>
<path d="M3642 920 c0 -19 2 -27 5 -17 2 9 2 25 0 35 -3 9 -5 1 -5 -18z"/>
<path d="M62 879 c2 -7 10 -15 17 -17 8 -3 12 1 9 9 -2 7 -10 15 -17 17 -8 3
-12 -1 -9 -9z"/>
<path d="M4992 848 c-14 -30 -20 -132 -7 -138 6 -3 12 20 15 57 7 82 20 92 20
15 0 -34 4 -62 9 -62 14 0 26 110 14 129 -16 25 -38 24 -51 -1z"/>
<path d="M3696 813 c-11 -26 13 -42 29 -19 8 10 12 23 9 27 -9 15 -31 10 -38
-8z"/>
<path d="M45 790 c3 -5 8 -10 11 -10 2 0 4 5 4 10 0 6 -5 10 -11 10 -5 0 -7
-4 -4 -10z"/>
<path d="M20 720 c0 -5 5 -10 10 -10 6 0 10 5 10 10 0 6 -4 10 -10 10 -5 0
-10 -4 -10 -10z"/>
<path d="M4095 690 c3 -5 11 -10 16 -10 6 0 7 5 4 10 -3 6 -11 10 -16 10 -6 0
-7 -4 -4 -10z"/>
<path d="M520 575 c0 -8 -4 -15 -10 -15 -5 0 -10 -9 -10 -20 0 -11 3 -20 8
-20 13 1 43 50 37 60 -9 15 -25 12 -25 -5z"/>
<path d="M120 445 c0 -8 5 -15 10 -15 6 0 10 7 10 15 0 8 -4 15 -10 15 -5 0
-10 -7 -10 -15z"/>
<path d="M3872 398 c-15 -15 -16 -51 0 -46 6 2 16 12 22 21 14 22 -4 43 -22
25z"/>
<path d="M4966 388 c-17 -24 -23 -154 -7 -144 4 3 12 34 17 68 l9 63 3 -57 c5
-90 32 -72 32 21 0 67 -26 90 -54 49z"/>
<path d="M3679 319 c-8 -16 -8 -24 1 -33 14 -14 42 18 33 40 -7 20 -21 17 -34
-7z"/>
<path d="M3910 316 c-8 -7 -51 -26 -95 -41 -117 -40 -112 -35 -120 -116 -4
-41 -3 -75 2 -80 13 -13 63 6 63 24 0 8 29 25 65 39 36 15 65 22 65 17 0 -15
26 -10 48 9 17 13 21 31 24 87 3 64 1 70 -17 73 -11 1 -27 -4 -35 -12z"/>
<path d="M1142 272 c-7 -2 -12 -23 -11 -50 l1 -47 13 35 13 35 1 -32 c1 -43
21 -54 21 -12 0 42 8 33 19 -22 l9 -44 1 57 c2 83 21 84 22 1 1 -77 6 -67 11
23 l4 60 -46 0 c-26 0 -52 -2 -58 -4z"/>
<path d="M1090 249 c0 -5 5 -7 10 -4 6 3 10 8 10 11 0 2 -4 4 -10 4 -5 0 -10
-5 -10 -11z"/>
<path d="M1017 230 c3 -11 7 -20 8 -20 1 0 5 9 8 20 3 12 0 20 -8 20 -8 0 -11
-8 -8 -20z"/>
<path d="M1050 239 c0 -5 5 -7 10 -4 6 3 10 8 10 11 0 2 -4 4 -10 4 -5 0 -10
-5 -10 -11z"/>
<path d="M6724 229 c-12 -14 -15 -23 -8 -26 6 -2 20 -10 30 -17 15 -12 16 -16
5 -30 -7 -9 -23 -16 -35 -16 -11 0 -46 -9 -76 -19 -47 -16 -57 -17 -66 -5 -14
18 -25 18 -18 0 8 -21 -33 -31 -51 -12 -13 12 -21 13 -40 4 -13 -6 -23 -16
-22 -21 3 -15 -34 -21 -43 -7 -6 9 -21 8 -66 -4 -33 -9 -106 -28 -164 -43
l-105 -28 206 -3 c218 -3 259 3 259 38 0 15 7 20 25 20 18 0 23 -4 19 -15 -4
-10 0 -15 11 -15 12 0 16 6 12 19 -5 19 10 31 39 31 8 0 11 -6 8 -15 -7 -17
-3 -18 54 -5 38 9 47 8 69 -10 33 -26 48 -25 67 2 33 47 11 139 -42 177 -37
26 -44 26 -68 0z m46 -124 c-7 -9 -15 -13 -17 -11 -7 7 7 26 19 26 6 0 6 -6
-2 -15z m-60 -14 c0 -12 -20 -25 -27 -18 -7 7 6 27 18 27 5 0 9 -4 9 -9z"/>
<path d="M980 230 c0 -5 5 -10 10 -10 6 0 10 5 10 10 0 6 -4 10 -10 10 -5 0
-10 -4 -10 -10z"/>
<path d="M7000 98 c0 -15 -4 -30 -10 -33 -5 -3 -10 -1 -10 4 0 6 -4 11 -9 11
-5 0 -7 -9 -4 -19 4 -17 -4 -22 -51 -36 -31 -9 -56 -18 -56 -21 0 -2 34 -4 76
-4 41 0 73 4 70 8 -3 5 -1 25 5 45 7 25 7 43 0 55 -9 15 -10 13 -11 -10z"/>
<path d="M7042 100 c0 -14 2 -19 5 -12 2 6 2 18 0 25 -3 6 -5 1 -5 -13z"/>
<path d="M580 10 c0 -5 5 -10 10 -10 6 0 10 5 10 10 0 6 -4 10 -10 10 -5 0
-10 -4 -10 -10z"/>
</g>
</svg>
