<?xml version="1.0" standalone="no"?>
<!DOCTYPE svg PUBLIC "-//W3C//DTD SVG 20010904//EN"
 "http://www.w3.org/TR/2001/REC-SVG-20010904/DTD/svg10.dtd">
<svg version="1.0" xmlns="http://www.w3.org/2000/svg"
 width="275.000000pt" height="183.000000pt" viewBox="0 0 275.000000 183.000000"
 preserveAspectRatio="xMidYMid meet">

<g transform="translate(0.000000,183.000000) scale(0.100000,-0.100000)"
fill="#000000" stroke="none">
<path d="M1938 1823 c7 -3 16 -2 19 1 4 3 -2 6 -13 5 -11 0 -14 -3 -6 -6z"/>
<path d="M1983 1823 c9 -2 23 -2 30 0 6 3 -1 5 -18 5 -16 0 -22 -2 -12 -5z"/>
<path d="M2020 1755 c-13 -43 -30 -79 -36 -82 -7 -3 -11 -10 -8 -17 2 -6 -10
-20 -28 -31 -18 -10 -27 -20 -20 -23 9 -3 8 -8 -3 -19 -13 -13 -13 -16 0 -30
19 -18 15 -49 -5 -45 -11 3 -11 0 0 -13 9 -11 16 -12 25 -5 9 8 25 1 59 -25
25 -19 52 -35 59 -35 6 0 35 -13 63 -29 28 -15 88 -41 133 -56 44 -16 81 -32
81 -36 0 -5 20 -17 45 -28 25 -11 58 -29 72 -41 14 -11 56 -29 94 -40 37 -11
80 -27 96 -35 15 -8 33 -15 39 -15 6 0 23 -9 38 -21 l26 -20 0 305 c0 274 -2
305 -16 299 -10 -4 -15 -1 -14 8 4 29 -1 37 -34 53 -42 20 -46 20 -46 2 0 -8
8 -17 18 -19 37 -10 -33 -7 -97 4 -45 8 -60 14 -47 19 25 9 11 18 -57 36 -59
16 -203 19 -212 5 -6 -10 -134 -8 -175 4 -25 6 -27 3 -50 -70z m360 52 c8 -3
28 -8 44 -12 22 -4 26 -9 18 -17 -14 -14 -90 -11 -157 7 l-50 13 45 10 c45 10
72 10 100 -1z"/>
<path d="M2580 1790 c-12 -8 -12 -10 3 -16 21 -8 35 2 21 16 -5 5 -15 6 -24 0z"/>
<path d="M1346 1675 c-15 -8 -34 -15 -42 -15 -7 0 -11 -6 -8 -14 3 -8 1 -17
-5 -21 -17 -10 -13 -25 7 -25 11 0 25 14 35 33 l16 32 0 -27 c1 -23 6 -28 26
-28 38 0 98 28 92 42 -2 7 -10 12 -17 10 -7 -1 -23 4 -36 13 -29 19 -32 19
-68 0z m41 -51 c-3 -3 -12 -4 -19 -1 -8 3 -5 6 6 6 11 1 17 -2 13 -5z"/>
<path d="M1648 1573 c7 -3 16 -2 19 1 4 3 -2 6 -13 5 -11 0 -14 -3 -6 -6z"/>
<path d="M1700 1515 c0 -8 -5 -15 -12 -15 -6 0 -9 -3 -5 -6 8 -8 117 16 117
25 0 5 -22 9 -50 10 -38 0 -50 -3 -50 -14z"/>
<path d="M1500 1488 c-19 -6 -60 -12 -91 -15 l-56 -5 4 -122 c2 -67 3 -130 3
-139 0 -9 7 -17 15 -17 12 0 15 -20 15 -117 0 -64 3 -113 7 -110 3 4 5 56 4
116 -1 89 1 110 14 115 12 4 15 26 16 108 1 57 4 114 8 128 8 27 17 28 99 14
39 -6 44 -5 49 15 4 16 13 21 42 22 l36 1 -30 8 c-42 11 -94 10 -135 -2z m54
-27 c4 -5 -3 -7 -14 -4 -23 6 -26 13 -6 13 8 0 17 -4 20 -9z"/>
<path d="M288 1234 c-7 -30 -9 -31 -115 -53 -156 -34 -153 -32 -80 -68 l62
-31 222 61 c122 33 220 64 217 68 -2 5 -29 16 -60 26 -46 14 -62 15 -100 5
-32 -9 -51 -9 -65 -2 -15 8 -23 7 -35 -5 -21 -21 -32 -19 -36 8 -3 19 -4 18
-10 -9z"/>
<path d="M2458 1203 c6 -2 18 -2 25 0 6 3 1 5 -13 5 -14 0 -19 -2 -12 -5z"/>
<path d="M600 1179 c-36 -10 -168 -43 -293 -75 l-228 -57 -39 22 c-38 21 -40
21 -40 3 0 -11 16 -27 41 -41 44 -25 79 -24 169 4 25 7 128 37 230 65 247 68
250 69 250 86 0 17 -7 16 -90 -7z"/>
<path d="M1840 1189 c0 -5 5 -7 10 -4 6 3 10 8 10 11 0 2 -4 4 -10 4 -5 0 -10
-5 -10 -11z"/>
<path d="M1041 1135 c-25 -9 -30 -13 -17 -18 9 -4 16 -10 16 -15 0 -12 -103
-43 -113 -33 -9 9 -97 -9 -97 -20 0 -5 -7 -5 -17 -2 -10 4 -14 2 -10 -4 5 -7
-1 -9 -15 -5 -15 4 -19 2 -13 -7 5 -10 2 -11 -14 -6 -15 4 -21 3 -19 -6 2 -8
-16 -20 -42 -28 -35 -12 -40 -16 -22 -19 12 -2 108 22 212 52 105 31 197 56
205 56 18 0 20 41 3 58 -14 14 -12 14 -57 -3z"/>
<path d="M1592 1123 c-16 -6 -5 -23 16 -23 14 0 14 2 3 9 -11 7 -10 10 5 14
11 3 13 5 4 5 -8 0 -21 -2 -28 -5z"/>
<path d="M978 1113 c7 -3 16 -2 19 1 4 3 -2 6 -13 5 -11 0 -14 -3 -6 -6z"/>
<path d="M2492 1100 c14 -22 24 -19 15 5 -4 8 -11 15 -17 15 -6 0 -6 -7 2 -20z"/>
<path d="M1936 1101 c-3 -5 1 -12 10 -15 20 -8 29 -1 19 13 -8 13 -22 14 -29
2z"/>
<path d="M1505 1090 c-17 -7 -14 -9 13 -9 20 -1 31 3 27 9 -7 12 -13 12 -40 0z"/>
<path d="M2598 1093 c7 -3 16 -2 19 1 4 3 -2 6 -13 5 -11 0 -14 -3 -6 -6z"/>
<path d="M545 1060 c-8 -13 25 -13 45 0 12 8 9 10 -12 10 -15 0 -30 -4 -33
-10z"/>
<path d="M1420 1060 c-18 -12 -2 -12 25 0 13 6 15 9 5 9 -8 0 -22 -4 -30 -9z"/>
<path d="M1552 1033 c-51 -20 -91 -37 -89 -39 4 -4 162 52 187 66 29 17 -5 8
-98 -27z"/>
<path d="M616 1051 c-19 -7 -19 -8 1 -13 14 -4 24 0 27 8 6 15 1 16 -28 5z"/>
<path d="M1078 1053 c7 -3 16 -2 19 1 4 3 -2 6 -13 5 -11 0 -14 -3 -6 -6z"/>
<path d="M491 1041 c-9 -6 -10 -11 -2 -15 13 -8 31 1 31 15 0 11 -11 11 -29 0z"/>
<path d="M1230 1040 c-12 -7 -10 -9 8 -7 12 0 22 5 22 9 0 11 -12 10 -30 -2z"/>
<path d="M1353 1026 c0 -8 6 -12 14 -9 7 3 13 9 13 14 0 5 -6 9 -13 9 -8 0
-14 -6 -14 -14z"/>
<path d="M640 1018 c-50 -14 -56 -25 -12 -21 58 6 82 13 82 23 0 12 -23 11
-70 -2z"/>
<path d="M1173 1010 c-3 -11 -9 -20 -14 -20 -5 0 -9 -3 -9 -7 0 -9 118 -8 127
1 4 3 -1 6 -11 6 -9 0 -14 5 -11 10 4 7 -8 8 -34 4 -26 -4 -41 -3 -41 4 0 6 8
13 18 15 15 4 15 5 -1 6 -11 1 -21 -7 -24 -19z"/>
<path d="M1270 1020 c0 -5 5 -10 11 -10 5 0 7 5 4 10 -3 6 -8 10 -11 10 -2 0
-4 -4 -4 -10z"/>
<path d="M938 1013 c7 -3 16 -2 19 1 4 3 -2 6 -13 5 -11 0 -14 -3 -6 -6z"/>
<path d="M875 1000 c-13 -5 -14 -9 -5 -9 8 0 24 4 35 9 13 5 14 9 5 9 -8 0
-24 -4 -35 -9z"/>
<path d="M1425 990 c3 -6 1 -10 -6 -10 -7 0 -10 -3 -6 -6 3 -3 13 -2 22 4 16
8 16 9 1 15 -10 4 -15 3 -11 -3z"/>
<path d="M2495 990 c3 -5 11 -10 16 -10 6 0 7 5 4 10 -3 6 -11 10 -16 10 -6 0
-7 -4 -4 -10z"/>
<path d="M770 970 c-30 -10 -50 -18 -45 -19 6 0 37 8 70 18 33 11 53 19 45 19
-8 1 -40 -7 -70 -18z"/>
<path d="M1040 977 c-30 -9 -32 -11 -13 -15 13 -2 33 4 45 12 26 18 18 19 -32
3z"/>
<path d="M955 950 c-13 -5 -14 -9 -5 -9 8 0 24 4 35 9 13 5 14 9 5 9 -8 0 -24
-4 -35 -9z"/>
<path d="M1312 943 c-24 -8 -41 -17 -39 -19 4 -5 97 26 97 32 0 6 -11 4 -58
-13z"/>
<path d="M890 930 c-18 -12 -2 -12 25 0 13 6 15 9 5 9 -8 0 -22 -4 -30 -9z"/>
<path d="M1380 908 c0 -30 -4 -36 -37 -47 -35 -13 -36 -14 -17 -28 11 -9 32
-12 51 -9 17 2 33 1 35 -4 2 -6 9 -5 18 0 13 8 12 10 -3 10 -11 0 -15 4 -11
12 4 7 3 8 -4 4 -14 -8 -27 35 -19 64 3 11 1 23 -4 26 -5 3 -9 -10 -9 -28z"/>
<path d="M2665 910 c-38 -16 -66 -29 -61 -29 19 -2 146 43 146 51 0 12 -8 10
-85 -22z"/>
<path d="M825 910 c-13 -6 -15 -9 -5 -9 8 0 22 4 30 9 18 12 2 12 -25 0z"/>
<path d="M860 900 c-13 -8 -12 -10 3 -10 9 0 17 5 17 10 0 12 -1 12 -20 0z"/>
<path d="M967 894 c3 -8 11 -14 19 -14 21 0 17 17 -5 23 -14 3 -18 1 -14 -9z"/>
<path d="M1200 900 c-8 -5 -10 -10 -5 -10 6 0 17 5 25 10 8 5 11 10 5 10 -5 0
-17 -5 -25 -10z"/>
<path d="M772 893 c-19 -8 -3 -23 24 -23 23 0 24 2 10 15 -8 8 -16 15 -18 14
-2 0 -9 -3 -16 -6z"/>
<path d="M898 883 c7 -3 16 -2 19 1 4 3 -2 6 -13 5 -11 0 -14 -3 -6 -6z"/>
<path d="M1116 879 c3 -5 0 -9 -7 -9 -7 0 -10 -2 -7 -5 3 -3 16 -2 28 3 l24 9
-22 5 c-12 4 -20 2 -16 -3z"/>
<path d="M680 863 c-25 -9 -40 -18 -33 -20 6 -2 31 5 55 16 52 23 40 25 -22 4z"/>
<path d="M835 865 c-25 -12 -26 -14 -5 -9 28 7 60 23 45 23 -5 0 -23 -6 -40
-14z"/>
<path d="M2548 863 c6 -2 9 -10 6 -15 -4 -7 -2 -8 4 -4 18 11 14 26 -5 25 -11
0 -13 -3 -5 -6z"/>
<path d="M2540 827 c-89 -61 -99 -67 -112 -64 -7 2 -10 2 -5 -1 8 -4 -130 -94
-223 -145 -30 -16 -62 -35 -70 -42 -8 -6 -75 -47 -148 -89 -123 -73 -156 -96
-135 -96 7 0 118 63 293 165 290 170 461 277 461 290 1 18 -16 13 -61 -18z"/>
<path d="M735 829 c-27 -10 -38 -17 -23 -14 35 7 78 23 78 30 0 3 -1 5 -2 4
-2 0 -25 -9 -53 -20z"/>
<path d="M1010 835 c-19 -7 -28 -14 -20 -14 8 0 29 6 45 14 39 17 21 18 -25 0z"/>
<path d="M1508 822 c-21 -10 -38 -20 -38 -23 0 -4 18 -16 40 -27 22 -10 37
-22 33 -26 -3 -3 5 -6 20 -6 14 0 85 -27 158 -60 l131 -59 57 28 56 29 -35 15
c-19 8 -105 44 -191 81 -86 36 -165 66 -175 65 -11 0 -36 -8 -56 -17z"/>
<path d="M548 818 c-21 -6 -38 -14 -38 -18 0 -7 31 1 90 23 27 10 -10 6 -52
-5z"/>
<path d="M905 795 c-25 -12 -26 -14 -5 -9 28 7 60 23 45 23 -5 0 -23 -6 -40
-14z"/>
<path d="M1156 794 c-3 -9 -6 -19 -6 -23 0 -15 340 -182 363 -179 17 3 5 12
-53 42 -41 21 -76 42 -78 47 -2 5 -10 9 -18 9 -8 0 -14 5 -14 11 0 6 -9 8 -21
4 -13 -4 -19 -3 -16 2 4 6 -22 23 -56 39 -60 28 -66 30 -87 33 -5 0 -7 8 -4
16 4 8 4 15 1 15 -3 0 -8 -7 -11 -16z"/>
<path d="M648 793 c6 -2 18 -2 25 0 6 3 1 5 -13 5 -14 0 -19 -2 -12 -5z"/>
<path d="M1334 785 c-18 -14 -18 -14 4 -8 12 3 22 9 22 14 0 12 -3 11 -26 -6z"/>
<path d="M416 774 c-49 -18 -55 -23 -25 -21 13 0 26 4 29 7 3 3 21 11 40 17
20 6 26 11 15 11 -11 0 -38 -6 -59 -14z"/>
<path d="M583 780 c-27 -11 -28 -16 -7 -24 8 -3 13 -2 9 3 -3 5 7 14 22 19 16
6 21 10 13 11 -8 0 -25 -4 -37 -9z"/>
<path d="M770 786 c0 -2 7 -7 16 -10 8 -3 12 -2 9 4 -6 10 -25 14 -25 6z"/>
<path d="M460 740 c-30 -10 -46 -19 -35 -19 11 0 43 9 70 19 65 24 36 24 -35
0z"/>
<path d="M1460 710 c8 -5 22 -10 30 -10 13 0 13 1 0 10 -8 5 -22 10 -30 10
-13 0 -13 -1 0 -10z"/>
<path d="M630 700 c-8 -5 -10 -10 -5 -10 6 0 17 5 25 10 8 5 11 10 5 10 -5 0
-17 -5 -25 -10z"/>
<path d="M242 676 c-24 -6 -41 -14 -37 -18 4 -4 -1 -5 -12 -2 -10 2 -56 -6
-103 -18 l-85 -23 -3 -131 -3 -130 111 -147 c100 -133 113 -147 141 -147 27 0
101 29 385 151 50 21 95 39 100 39 5 0 17 9 27 20 9 11 26 20 37 20 49 0 23
24 -253 234 -136 103 -227 166 -240 165 -12 -1 -41 -6 -65 -13z m55 -42 c5
-15 -66 -29 -80 -15 -7 7 -6 12 4 15 8 2 21 7 29 10 22 7 43 3 47 -10z m-107
-38 c9 -12 4 -17 -30 -26 -23 -6 -49 -10 -57 -8 -28 5 -25 26 4 36 40 15 69
14 83 -2z m15 -35 c-6 -5 -26 -12 -45 -15 l-35 -6 30 15 c34 16 64 20 50 6z"/>
<path d="M2720 675 c0 -8 7 -15 15 -15 8 0 15 7 15 15 0 8 -7 15 -15 15 -8 0
-15 -7 -15 -15z"/>
<path d="M525 665 c-22 -7 -31 -13 -20 -14 11 0 34 6 50 14 38 17 22 17 -30 0z"/>
<path d="M1540 670 c20 -13 33 -13 25 0 -3 6 -14 10 -23 10 -15 0 -15 -2 -2
-10z"/>
<path d="M1950 655 c-17 -10 -20 -14 -9 -15 9 0 22 7 29 15 15 18 12 18 -20 0z"/>
<path d="M2050 647 c0 -7 -21 -24 -47 -37 -62 -32 -176 -102 -183 -111 -3 -4
-18 -11 -33 -14 -27 -7 -27 -8 -11 -26 9 -11 23 -19 30 -19 21 0 247 118 279
146 22 19 25 25 12 29 -8 4 -17 15 -20 26 -6 21 -27 26 -27 6z"/>
<path d="M2674 645 c-15 -12 -16 -14 -3 -15 9 0 16 -6 16 -14 0 -7 -7 -13 -16
-12 -9 1 -15 -5 -13 -12 1 -8 -2 -11 -8 -7 -5 3 -10 1 -10 -4 0 -6 -6 -11 -14
-11 -8 0 -16 -4 -18 -8 -1 -5 -48 -37 -103 -72 -55 -34 -122 -77 -150 -95
-122 -78 -181 -115 -313 -195 -78 -47 -141 -91 -142 -99 0 -8 9 -34 21 -58
l21 -43 404 0 404 0 0 324 0 324 -22 6 c-31 8 -32 8 -54 -9z"/>
<path d="M1475 640 c3 -5 8 -10 11 -10 2 0 4 5 4 10 0 6 -5 10 -11 10 -5 0 -7
-4 -4 -10z"/>
<path d="M2560 610 c0 -5 7 -7 15 -4 8 4 15 8 15 10 0 2 -7 4 -15 4 -8 0 -15
-4 -15 -10z"/>
<path d="M1716 601 c-8 -12 41 -32 60 -24 14 5 13 8 -7 19 -28 16 -46 17 -53
5z"/>
</g>
</svg>
