<?xml version="1.0" standalone="no"?>
<!DOCTYPE svg PUBLIC "-//W3C//DTD SVG 20010904//EN"
 "http://www.w3.org/TR/2001/REC-SVG-20010904/DTD/svg10.dtd">
<svg version="1.0" xmlns="http://www.w3.org/2000/svg"
 width="275.000000pt" height="183.000000pt" viewBox="0 0 275.000000 183.000000"
 preserveAspectRatio="xMidYMid meet">

<g transform="translate(0.000000,183.000000) scale(0.100000,-0.100000)"
fill="#000000" stroke="none">
<path d="M0 1708 l0 -123 60 63 c32 34 67 62 77 62 10 0 27 6 38 14 11 7 46
17 78 20 32 4 88 18 125 31 100 34 164 41 183 18 18 -20 49 -106 49 -134 0
-50 -23 -121 -41 -128 -18 -6 -17 -11 22 -65 44 -61 65 -136 37 -136 -14 0
-30 12 -94 72 -26 24 -41 29 -95 33 -151 10 -267 23 -287 34 -31 17 -35 14
-56 -32 -10 -23 -31 -55 -47 -72 -37 -40 -49 -75 -49 -145 l0 -58 43 4 c23 3
73 12 110 20 38 9 71 13 74 11 2 -3 -33 -23 -79 -45 -46 -22 -90 -47 -97 -56
-7 -9 -22 -16 -32 -16 -18 0 -19 -12 -19 -241 0 -172 3 -238 11 -233 8 5 8 1
0 -14 -7 -13 -11 -89 -11 -202 0 -173 1 -183 25 -227 13 -26 27 -73 31 -105
l7 -58 422 0 422 0 -3 28 c-4 26 -3 26 4 2 l8 -25 313 -3 313 -3 -4 28 c-3 16
-9 36 -13 46 -7 16 -3 18 36 15 42 -3 44 -4 52 -45 6 -33 13 -43 28 -43 20 0
20 8 2 74 -3 12 -1 16 6 12 6 -4 11 -16 11 -27 0 -47 17 -59 85 -59 36 0 65 2
65 4 0 2 -7 20 -15 39 -8 20 -15 44 -15 54 0 15 3 15 22 -5 16 -16 19 -25 11
-33 -7 -7 -7 -17 1 -35 l11 -24 287 0 c265 0 287 1 291 17 4 15 5 15 6 -2 1
-17 3 -18 11 -5 6 10 10 11 10 3 0 -10 39 -13 160 -13 l160 0 0 185 c0 161 -2
185 -16 185 -8 0 -13 -4 -10 -9 3 -5 -8 -11 -25 -15 -41 -8 -49 -8 -49 2 0 13
73 50 88 45 9 -4 12 39 12 191 0 163 -2 194 -14 190 -13 -5 -30 -39 -27 -56 1
-12 -58 -40 -76 -36 -15 3 -15 5 0 20 9 9 17 19 17 22 0 5 14 27 82 128 10 15
18 40 18 55 -1 24 -2 26 -11 10 -6 -9 -15 -14 -21 -11 -7 5 -9 2 -5 -9 3 -8 0
-18 -8 -21 -16 -6 -30 25 -15 34 6 4 13 13 14 21 9 47 28 99 37 99 5 0 9 20 8
44 -2 27 -7 42 -13 39 -6 -4 -7 1 -2 13 16 41 18 74 6 108 -13 40 -17 40 -85
11 -16 -7 -108 -44 -202 -81 -95 -38 -173 -74 -173 -81 0 -7 8 -16 17 -22 13
-7 22 -4 35 11 24 28 23 12 -3 -36 -20 -38 -19 -103 2 -91 5 4 6 0 3 -8 -3 -8
1 -21 9 -28 8 -7 12 -23 10 -34 -4 -16 1 -14 21 10 14 17 26 35 26 40 0 15
105 213 121 230 12 12 -8 -45 -22 -61 -19 -23 -129 -254 -129 -271 0 -10 7
-31 15 -47 8 -15 15 -35 15 -43 0 -10 6 -13 16 -9 9 3 18 6 20 6 2 0 4 11 4
25 0 14 5 25 10 25 17 0 11 -41 -10 -67 -16 -20 -19 -34 -14 -62 4 -20 10 -40
14 -44 13 -14 39 5 45 34 7 31 20 45 29 30 4 -5 1 -15 -6 -23 -17 -18 -21 -38
-7 -38 6 0 25 7 42 15 58 26 140 56 144 52 7 -8 -41 -33 -87 -46 -56 -16 -150
-61 -150 -72 0 -21 21 -60 29 -54 6 3 9 -11 8 -34 0 -22 2 -43 5 -47 12 -12
30 8 25 28 -3 11 -3 17 0 14 6 -6 37 30 46 54 3 8 6 10 6 3 1 -7 -8 -36 -20
-65 -23 -58 -31 -104 -23 -130 4 -14 8 -14 32 -3 40 19 85 28 77 15 -3 -5 -11
-10 -17 -10 -6 0 -21 -11 -34 -25 -43 -46 -82 -28 -108 53 -10 30 -24 52 -32
52 -16 0 -32 52 -17 57 12 4 4 33 -70 268 -58 183 -73 219 -88 210 -15 -10
-23 26 -11 46 9 13 7 29 -5 64 -11 33 -18 43 -24 34 -18 -29 -9 17 12 61 16
32 23 39 30 29 6 -11 11 -11 21 -1 6 6 15 12 19 12 10 0 6 -34 -5 -41 -5 -4
-6 -11 -2 -17 4 -7 19 -4 44 8 20 11 63 27 94 35 66 19 78 30 52 50 -16 12
-17 16 -5 27 12 11 13 10 8 -4 -8 -23 9 -23 22 -1 5 10 13 14 18 10 4 -5 0
-14 -10 -22 -17 -12 -17 -13 0 -19 11 -5 22 -1 30 10 7 10 13 13 13 7 0 -15
80 16 81 31 1 6 2 17 3 25 0 8 8 16 16 18 13 4 13 3 0 -6 -26 -18 1 -33 33
-19 27 13 36 28 17 28 -6 0 -5 8 2 20 12 20 13 19 19 -12 3 -18 6 90 7 240 l2
272 -40 0 c-26 0 -43 -6 -50 -17 -10 -15 -11 -15 -6 -1 4 15 -12 16 -172 17
-128 0 -178 -3 -184 -12 -6 -9 -8 -9 -8 0 0 9 -89 12 -374 13 l-375 0 -7 -22
c-4 -13 -12 -27 -18 -31 -7 -6 -5 -7 6 -4 9 3 19 1 22 -6 3 -7 3 -1 0 13 -4
22 -4 23 7 7 8 -14 8 -22 0 -30 -6 -6 -11 -7 -11 -2 0 5 -7 0 -15 -11 -13 -17
-14 -17 -15 -1 0 27 -17 20 -32 -13 -13 -30 -35 -44 -25 -15 4 8 2 17 -3 20
-10 6 -14 -7 -11 -32 1 -7 -3 -22 -9 -32 -8 -16 -17 -19 -45 -14 -34 5 -35 5
-35 -28 0 -45 -77 -120 -142 -138 -58 -16 -112 -2 -131 36 -12 22 -15 23 -26
9 -8 -9 -20 -16 -27 -16 -18 0 -64 74 -64 103 0 13 -7 32 -15 43 -8 10 -15 40
-15 65 0 38 4 47 23 55 12 6 36 7 52 3 21 -5 24 -7 10 -9 -17 -2 -16 -3 5 -9
15 -4 28 -3 32 3 5 7 8 4 8 -6 0 -10 -4 -18 -10 -18 -5 0 -7 -7 -4 -15 10 -24
24 -17 25 13 1 17 3 20 6 9 2 -9 8 -15 12 -13 15 9 8 -29 -7 -40 -8 -6 -12
-16 -9 -21 8 -12 87 58 87 76 0 7 -5 9 -12 5 -7 -5 -8 -3 -3 6 6 10 4 12 -8 7
-11 -4 -18 3 -26 24 l-10 29 -550 0 -551 0 0 -122z m2215 103 c11 -5 25 -4 31
1 14 10 54 -48 54 -79 0 -23 -48 -100 -67 -107 -8 -3 -24 12 -39 34 -15 22
-30 40 -35 40 -13 0 -22 -22 -12 -29 6 -3 13 -19 17 -34 5 -21 11 -27 22 -23
10 4 14 1 12 -6 -6 -17 -57 -29 -95 -23 -18 3 -47 18 -64 32 -29 25 -31 30
-27 81 4 50 21 78 39 66 4 -2 11 1 15 7 9 15 85 49 109 48 11 0 29 -4 40 -8z
m213 -36 c-12 -27 -28 -33 -28 -10 0 11 23 33 37 35 2 0 -3 -11 -9 -25z m51 3
c-7 -13 -12 -24 -11 -25 3 -6 -70 -153 -80 -159 -6 -4 -9 -3 -6 2 2 5 10 23
17 39 40 92 77 165 84 165 4 0 2 -10 -4 -22z m46 -22 c-10 -20 -21 -36 -25
-36 -5 0 1 18 13 39 27 49 35 46 12 -3z m-725 -25 c0 -17 -18 -21 -24 -6 -3 9
0 15 9 15 8 0 15 -4 15 -9z m806 -38 c-11 -20 -15 -23 -16 -10 0 17 21 49 28
42 2 -2 -3 -16 -12 -32z m-81 -3 c-17 -33 -25 -38 -25 -16 0 14 26 46 36 46 2
0 -2 -13 -11 -30z m-928 -12 c-3 -7 -5 -2 -5 12 0 14 2 19 5 13 2 -7 2 -19 0
-25z m1030 7 c0 -8 -4 -15 -9 -15 -10 0 -11 14 -1 23 9 10 10 9 10 -8z m-162
-50 c-10 -28 -14 -33 -15 -17 0 20 20 65 27 59 1 -2 -4 -21 -12 -42z m106 15
c15 9 18 8 13 -7 -5 -16 -4 -16 10 1 20 24 21 8 2 -19 -8 -13 -10 -27 -5 -40
6 -17 8 -17 8 -2 1 9 6 17 12 17 17 0 8 -14 -39 -64 -24 -26 -47 -44 -52 -41
-4 3 -18 -20 -31 -50 -20 -50 -39 -71 -39 -45 0 6 5 10 10 10 6 0 10 9 10 20
0 12 7 34 15 51 16 30 16 31 -22 74 -17 18 -17 20 12 63 28 42 32 37 10 -14
-8 -20 -12 -40 -9 -46 8 -13 33 23 34 49 0 25 32 62 38 44 2 -7 9 -8 23 -1z
m-1181 -31 c0 -5 -4 -9 -10 -9 -5 0 -10 7 -10 16 0 8 5 12 10 9 6 -3 10 -10
10 -16z m1270 -13 c0 -2 -7 -7 -16 -10 -8 -3 -12 -2 -9 4 6 10 25 14 25 6z
m-1753 -28 c-3 -8 -6 -5 -6 6 -1 11 2 17 5 13 3 -3 4 -12 1 -19z m1397 -58
c54 -65 60 -69 73 -53 13 16 13 16 3 -5 -9 -19 -8 -27 6 -43 9 -10 20 -17 23
-14 4 2 8 -5 8 -16 2 -22 26 -49 45 -49 7 0 2 -7 -10 -16 -13 -9 -24 -14 -25
-13 -11 21 -32 50 -87 121 -120 153 -148 223 -36 88z m-114 10 c-6 -11 -13
-20 -16 -20 -2 0 0 9 6 20 6 11 13 20 16 20 2 0 0 -9 -6 -20z m277 -13 c12 5
14 1 8 -18 -4 -13 -12 -26 -16 -27 -5 -2 -7 -7 -4 -12 3 -4 -2 -11 -11 -14
-12 -5 -15 -2 -9 11 15 37 17 53 6 53 -6 0 -11 -5 -11 -12 0 -6 -2 -9 -5 -6
-3 3 -3 13 1 22 4 12 10 14 17 7 5 -5 16 -7 24 -4z m-57 -1 c0 -2 -7 -7 -16
-10 -8 -3 -12 -2 -9 4 6 10 25 14 25 6z m290 -68 c-23 -35 -23 -31 -1 15 8 15
16 25 19 22 2 -2 -5 -19 -18 -37z m-71 -2 c-7 -14 -16 -26 -20 -26 -5 0 0 13
9 29 20 36 27 34 11 -3z m43 12 c-7 -7 -12 -8 -12 -2 0 14 12 26 19 19 2 -3
-1 -11 -7 -17z m-149 -8 c-3 -11 -9 -20 -14 -20 -5 0 -6 -8 -3 -17 4 -14 4
-15 -4 -5 -6 9 -5 22 2 38 13 29 26 32 19 4z m-1596 4 c-3 -3 -12 -4 -19 -1
-8 3 -5 6 6 6 11 1 17 -2 13 -5z m867 -19 c-8 -13 -13 -29 -9 -35 3 -5 -4 -28
-16 -50 -22 -40 -39 -52 -39 -27 1 19 26 48 35 39 5 -4 5 1 2 11 -7 18 21 87
35 87 5 0 1 -11 -8 -25z m-889 -12 c-3 -10 -18 -54 -32 -98 -26 -81 -38 -104
-49 -92 -8 8 68 207 79 207 5 0 6 -8 2 -17z m336 -32 c-14 -25 -14 -34 -1 -26
6 3 10 1 10 -6 0 -6 -8 -9 -19 -6 -14 3 -24 -6 -40 -34 -22 -38 -24 -39 -77
-39 -54 0 -55 0 -42 23 7 12 13 27 13 32 2 24 27 56 41 51 9 -3 25 0 37 6 12
7 33 14 47 15 14 1 27 8 29 15 3 10 5 10 8 1 3 -7 0 -21 -6 -32z m616 17 c-3
-8 -6 -5 -6 6 -1 11 2 17 5 13 3 -3 4 -12 1 -19z m92 -20 c-11 -21 -22 -38
-24 -38 -3 0 2 14 10 31 30 56 8 41 -31 -21 -21 -34 -40 -57 -42 -51 -4 13 43
89 67 107 31 24 40 12 20 -28z m687 -4 c-9 -13 -15 -28 -12 -33 3 -4 -1 -8 -8
-8 -10 0 -8 12 8 44 12 23 23 38 24 33 2 -6 -3 -22 -12 -36z m-633 16 c-6 -23
-22 -37 -19 -18 2 14 15 38 21 38 2 0 1 -9 -2 -20z m718 -3 c-10 -9 -11 -8 -5
6 3 10 9 15 12 12 3 -3 0 -11 -7 -18z m-1259 -22 c9 -35 9 -35 -21 -24 -19 7
-22 12 -13 21 21 21 13 32 -9 12 -13 -12 -19 -27 -16 -41 3 -15 -1 -23 -9 -23
-23 0 -16 32 13 62 32 33 44 32 55 -7z m792 23 c-4 -7 -16 -23 -27 -35 -11
-13 -17 -23 -13 -23 12 0 -59 -122 -77 -132 -16 -8 -18 -7 -9 8 7 12 7 25 1
36 -7 14 -6 16 5 12 10 -4 20 6 30 31 10 24 20 34 27 29 9 -5 10 -2 6 9 -4 10
4 28 19 47 25 29 52 42 38 18z m-644 -2 c0 -3 -4 -8 -10 -11 -5 -3 -10 -1 -10
4 0 6 5 11 10 11 6 0 10 -2 10 -4z m1063 -11 c-3 -9 -8 -14 -10 -11 -3 3 -2 9
2 15 9 16 15 13 8 -4z m-1680 -15 c-3 -10 -11 -25 -19 -31 -8 -6 -14 -20 -14
-30 0 -11 -4 -19 -10 -19 -16 0 -12 18 15 60 28 44 36 50 28 20z m67 -11 c0
-28 -31 -87 -49 -93 -9 -3 -23 -9 -31 -12 -12 -4 -12 -3 1 8 9 7 19 31 23 53
4 22 12 47 17 57 12 21 39 13 39 -13z m616 -21 c-14 -24 -26 -39 -26 -35 0 15
41 89 47 84 3 -3 -7 -25 -21 -49z m144 12 c-6 -11 -8 -25 -5 -30 3 -5 1 -11
-5 -15 -14 -9 -13 38 2 53 18 18 20 15 8 -8z m147 -14 c-13 -28 -24 -27 -12 1
5 10 7 22 6 26 -1 5 3 6 8 3 5 -4 5 -16 -2 -30z m278 -45 c-19 -35 -42 -78
-51 -97 -13 -27 -20 -32 -28 -23 -8 8 -8 13 2 16 6 3 12 8 12 13 0 5 5 21 12
37 12 29 15 37 17 51 0 4 12 20 26 36 14 16 25 34 25 40 0 7 3 7 10 0 8 -8 0
-30 -25 -73z m78 47 c-5 -22 -5 -22 9 -4 31 40 26 -3 -7 -65 -25 -46 -35 -57
-35 -41 0 13 5 32 11 44 6 11 8 22 6 25 -3 2 -13 -11 -22 -31 -18 -37 -35 -47
-35 -21 0 18 59 115 70 115 4 0 6 -10 3 -22z m-1014 -46 c8 -26 6 -28 -18 -27
-14 1 -33 -5 -42 -12 -14 -11 -18 -11 -29 2 -11 13 -10 14 2 10 11 -4 17 3 22
26 9 47 24 62 43 44 8 -8 18 -28 22 -43z m-766 11 c6 -16 34 -50 62 -77 l50
-48 -50 39 c-27 22 -63 48 -80 59 -35 21 -46 35 -39 46 12 18 45 7 57 -19z
m1601 12 c-4 -8 -10 -12 -15 -9 -11 6 -2 24 11 24 5 0 7 -7 4 -15z m462 -11
c-4 -9 -9 -15 -11 -12 -3 3 -3 13 1 22 4 9 9 15 11 12 3 -3 3 -13 -1 -22z m26
-9 c-2 -14 -9 -25 -14 -25 -5 0 -7 3 -5 8 2 4 7 15 10 25 9 25 15 21 9 -8z
m-887 -33 c19 -9 24 -8 29 5 4 9 9 14 11 11 9 -8 -25 -66 -42 -72 -13 -5 -14
-4 -3 9 7 8 10 22 6 30 -6 17 -56 21 -56 5 0 -5 5 -10 11 -10 5 0 7 -5 4 -10
-4 -6 -10 -8 -15 -5 -5 3 -11 -3 -13 -12 -3 -10 -4 -4 -3 12 1 31 38 80 44 59
2 -6 14 -16 27 -22z m622 8 c-12 -18 -15 -19 -21 -5 -3 9 -2 13 4 10 6 -3 13
1 16 10 4 9 9 14 11 11 3 -3 -2 -14 -10 -26z m-449 -15 c-6 -14 -13 -23 -15
-21 -5 5 15 46 22 46 3 0 -1 -11 -7 -25z m665 10 c-3 -9 -8 -14 -10 -11 -3 3
-2 9 2 15 9 16 15 13 8 -4z m-2215 -40 c-3 -3 -9 2 -12 12 -6 14 -5 15 5 6 7
-7 10 -15 7 -18z m930 5 c-7 -10 -14 -18 -15 -16 -6 6 9 36 18 36 5 0 4 -9 -3
-20z m572 -1 c-7 -11 -14 -19 -16 -16 -7 7 7 37 17 37 6 0 5 -9 -1 -21z m-345
1 c3 -5 1 -10 -4 -10 -6 0 -11 5 -11 10 0 6 2 10 4 10 3 0 8 -4 11 -10z m580
0 c-3 -5 -12 -10 -18 -10 -7 0 -6 4 3 10 19 12 23 12 15 0z m628 -3 c3 -8 1
-20 -4 -28 -6 -10 -9 -7 -9 14 0 29 5 35 13 14z m-508 -74 c-9 -24 -22 -42
-28 -40 -20 6 -18 23 8 61 14 20 26 42 26 49 1 7 3 4 6 -7 3 -10 -3 -38 -12
-63z m465 63 c0 -8 -4 -17 -9 -20 -5 -4 -28 -44 -50 -89 -22 -46 -48 -90 -57
-98 -16 -12 -17 -12 -9 1 5 8 10 20 10 25 2 15 17 47 35 75 10 14 21 36 25 50
15 49 55 89 55 56z m-1573 -2 c-3 -3 -12 -4 -19 -1 -8 3 -5 6 6 6 11 1 17 -2
13 -5z m78 -5 c4 -6 0 -9 -11 -7 -13 2 -18 -2 -16 -12 3 -11 1 -12 -8 -3 -7 6
-9 16 -6 22 9 14 33 14 41 0z m1227 -13 c7 4 8 2 4 -5 -4 -6 -11 -9 -16 -6 -4
3 -10 -1 -13 -7 -7 -22 -17 -3 -10 21 5 20 7 21 15 7 5 -9 14 -13 20 -10z
m-1618 -8 c-4 -13 -10 -25 -15 -28 -4 -3 -10 -17 -14 -32 -4 -15 -14 -33 -23
-40 -14 -11 -15 -9 -9 19 11 55 35 103 52 103 12 0 15 -6 9 -22z m153 16 c-3
-3 -12 -4 -19 -1 -8 3 -5 6 6 6 11 1 17 -2 13 -5z m923 -30 c-18 -21 -24 -10
-8 15 7 12 14 17 16 11 2 -6 -2 -17 -8 -26z m-275 11 c11 -4 34 -13 52 -21 17
-8 35 -14 40 -14 4 0 20 -10 34 -23 29 -24 59 -124 59 -194 0 -30 13 -58 55
-123 30 -47 55 -93 55 -104 0 -10 -18 -53 -39 -95 -55 -106 -68 -139 -76 -191
-9 -55 -15 -66 -26 -49 -6 10 -11 6 -18 -14 -14 -35 -14 -94 -2 -99 6 -2 7
-30 4 -64 l-6 -61 -43 5 c-36 4 -44 2 -44 -12 0 -23 -17 -20 -23 4 -7 26 -23
26 -30 0 -7 -29 -77 -29 -84 0 -7 25 -48 18 -122 -21 -30 -16 -55 -28 -56 -26
-1 1 -9 39 -18 85 -9 50 -32 116 -55 165 -68 139 -74 189 -45 343 9 49 17 103
17 120 0 22 4 30 13 27 7 -3 13 2 13 11 0 31 38 125 64 159 14 18 29 47 32 64
5 27 3 32 -22 41 -24 8 -16 9 43 8 39 -1 78 -7 85 -14 8 -6 38 -17 67 -23 44
-9 55 -9 62 2 14 23 10 30 -11 19 -24 -13 -61 6 -53 27 6 16 -7 21 -86 27 -70
6 -80 11 -63 28 24 24 174 33 227 13z m1025 7 c0 -4 -6 -16 -14 -27 -7 -11
-16 -32 -20 -47 -3 -16 -11 -28 -16 -28 -6 0 -10 -6 -10 -13 0 -14 -39 -51
-47 -44 -2 3 7 17 20 31 14 14 27 40 31 56 6 34 34 80 47 80 5 0 9 -3 9 -8z
m-509 -29 c-12 -20 -14 -14 -5 12 4 9 9 14 11 11 3 -2 0 -13 -6 -23z m-998 -5
c4 -10 8 -9 16 2 9 13 11 12 16 -1 7 -18 37 -21 47 -5 5 8 8 7 8 -1 0 -7 6
-10 14 -7 8 3 17 1 20 -5 7 -11 3 -11 -103 -11 -25 0 -51 16 -51 31 0 14 28
11 33 -3z m1436 -20 c-8 -14 -14 -18 -17 -10 -4 13 17 46 25 38 3 -2 -1 -15
-8 -28z m-1440 -72 c-1 -17 -2 -18 -6 -3 -2 9 -9 15 -14 12 -5 -4 -14 5 -21
19 -6 14 -15 26 -20 26 -4 0 -8 5 -8 11 0 5 16 -2 35 -17 22 -17 35 -34 34
-48z m741 48 c0 -8 -19 -13 -24 -6 -3 5 1 9 9 9 8 0 15 -2 15 -3z m157 -31
c-10 -23 -27 -32 -27 -14 0 20 12 38 24 38 11 0 12 -5 3 -24z m-997 -30 c0
-17 -6 -16 -35 3 -30 19 -34 39 -5 24 17 -9 19 -8 13 7 -5 15 -3 15 10 -2 9
-11 17 -26 17 -32z m1346 11 c-4 -15 -14 -34 -23 -43 -9 -8 -14 -11 -11 -6 2
6 10 25 17 43 16 39 26 42 17 6z m38 -4 c-10 -16 -19 -28 -21 -26 -6 6 20 56
29 56 5 0 1 -13 -8 -30z m30 -14 c-10 -20 -21 -36 -26 -36 -12 0 -10 7 14 44
29 44 34 39 12 -8z m282 -10 c-8 -20 -20 -36 -25 -36 -6 0 -8 -8 -5 -17 5 -15
4 -16 -5 -3 -17 24 -14 50 7 44 14 -5 14 -4 -2 6 -17 12 -17 14 10 35 35 28
40 19 20 -29z m-1388 32 c-3 -7 -20 -14 -38 -16 -30 -3 -32 -2 -21 12 16 19
65 22 59 4z m723 -11 c-10 -9 -11 -8 -5 6 3 10 9 15 12 12 3 -3 0 -11 -7 -18z
m-906 -17 c3 -5 1 -10 -4 -10 -6 0 -11 5 -11 10 0 6 2 10 4 10 3 0 8 -4 11
-10z m1324 -69 c-18 -39 -34 -69 -37 -67 -2 3 11 37 28 76 18 38 35 69 37 67
2 -2 -11 -36 -28 -76z m181 70 c0 -5 -7 -12 -16 -15 -14 -5 -15 -4 -4 9 14 17
20 19 20 6z m-1485 -37 c6 0 19 -2 30 -2 18 -2 18 -3 3 -19 -15 -14 -19 -14
-34 -2 -15 11 -16 12 -10 0 6 -9 5 -12 -5 -9 -8 3 -13 11 -11 17 1 6 -1 10 -5
10 -20 -3 -27 2 -13 10 8 6 19 7 25 3 5 -4 15 -7 20 -8z m1501 -46 c-6 -34
-28 -78 -38 -78 -5 0 -6 -4 -3 -10 3 -5 -6 -21 -20 -36 -14 -14 -23 -29 -20
-34 8 -12 -10 -21 -29 -14 -14 5 -13 10 6 37 17 24 19 29 5 24 -12 -4 -14 -2
-10 10 4 11 2 14 -5 9 -7 -4 -12 -15 -12 -25 0 -10 -6 -33 -14 -51 l-13 -32
-21 30 c-21 28 -20 42 2 42 6 0 5 -4 -3 -9 -10 -7 -10 -10 -1 -16 13 -8 32 14
24 27 -3 4 0 8 5 8 6 0 11 6 11 13 0 7 5 18 12 25 9 9 16 8 30 -5 22 -20 24
-8 3 14 -13 12 -13 18 -3 31 12 13 13 13 16 -6 3 -18 6 -20 16 -9 8 7 17 23
20 35 4 12 12 20 17 17 5 -4 9 1 9 9 0 9 5 16 10 16 6 0 9 -10 6 -22z m-1512
-13 c-4 -8 -8 -15 -10 -15 -2 0 -4 7 -4 15 0 8 4 15 10 15 5 0 7 -7 4 -15z
m1322 -32 c-18 -33 -21 -26 -6 13 6 15 13 24 16 21 3 -3 -1 -18 -10 -34z m46
-15 c-7 -7 -12 -8 -12 -2 0 14 12 26 19 19 2 -3 -1 -11 -7 -17z m-1352 -13
c30 -32 24 -37 -23 -21 -44 15 -51 21 -42 35 11 19 40 12 65 -14z m-275 -12
c35 -40 32 -64 -2 -31 -16 14 -33 24 -40 21 -14 -5 -26 13 -18 27 11 18 35 11
60 -17z m1500 -52 c-14 -13 -16 -13 -11 -1 3 8 9 24 13 35 7 19 7 19 11 1 2
-10 -4 -26 -13 -35z m-1679 -19 c-8 -7 -25 8 -37 31 -11 21 -10 21 15 -2 14
-14 24 -26 22 -29z m1954 26 c0 -14 -40 -58 -52 -58 -4 0 -8 7 -8 16 0 9 5 12
12 8 7 -4 8 -3 4 4 -4 6 1 20 10 31 18 20 34 19 34 -1z m-410 -65 c6 -16 15
-37 20 -48 5 -11 37 -101 69 -200 43 -129 57 -181 48 -187 -8 -5 -19 15 -35
60 -68 190 -132 378 -132 390 0 23 20 12 30 -15z m-2115 -2 c-3 -6 -11 -11
-16 -11 -5 0 -4 6 3 14 14 16 24 13 13 -3z m2479 -26 c-6 -16 -34 -21 -34 -7
0 13 11 22 26 22 8 0 11 -6 8 -15z m-158 -27 c-9 -12 -16 -19 -16 -15 0 11 24
47 28 42 2 -2 -3 -14 -12 -27z m137 -14 c5 -5 -28 -44 -38 -44 -10 0 -5 26 7
38 13 13 22 15 31 6z m-166 -26 c-3 -8 -6 -5 -6 6 -1 11 2 17 5 13 3 -3 4 -12
1 -19z m-2380 -13 c-7 -13 -14 -20 -15 -14 -2 5 2 16 8 24 18 21 20 18 7 -10z
m1971 -202 c22 -76 48 -165 57 -198 9 -33 23 -70 31 -82 14 -22 13 -23 -9 -23
-14 0 -23 6 -24 18 -1 9 -9 37 -18 62 -27 75 -82 272 -89 318 -13 84 12 39 52
-95z m-1238 -319 c0 -8 -5 -14 -10 -14 -6 0 -8 -12 -4 -27 4 -22 3 -25 -5 -13
-10 13 -11 13 -12 0 0 -10 -3 -8 -9 5 -12 27 -12 47 -1 41 5 -3 11 4 14 15 6
23 27 17 27 -7z m1710 -15 c-32 -34 -38 -46 -33 -70 3 -18 1 -29 -6 -29 -6 0
-11 17 -11 39 0 32 6 44 35 70 51 45 61 38 15 -10z m-1567 -4 c-3 -9 -8 -14
-10 -11 -3 3 -2 9 2 15 9 16 15 13 8 -4z m-73 1 c0 -3 -4 -8 -10 -11 -5 -3
-10 -1 -10 4 0 6 5 11 10 11 6 0 10 -2 10 -4z m41 -39 c-10 -9 -11 -8 -5 6 3
10 9 15 12 12 3 -3 0 -11 -7 -18z m76 3 c-2 -11 -7 -23 -12 -27 -4 -5 -5 -2
-1 5 4 6 3 12 -3 12 -6 0 -8 7 -5 15 9 22 24 18 21 -5z m1439 -7 c-10 -10 -19
5 -10 18 6 11 8 11 12 0 2 -7 1 -15 -2 -18z"/>
<path d="M2103 1753 c-13 -2 -23 -9 -23 -14 0 -6 -4 -7 -10 -4 -12 7 -13 -5
-2 -21 10 -15 52 1 52 20 0 8 6 17 13 19 14 6 1 6 -30 0z"/>
<path d="M2036 1667 c-17 -12 -17 -14 1 -27 14 -11 16 -11 6 0 -10 11 -9 16 5
26 22 17 11 18 -12 1z"/>
<path d="M2517 1574 c-15 -15 -24 -31 -21 -36 4 -6 9 -6 14 2 11 17 22 -4 14
-27 -6 -14 -4 -16 6 -6 7 7 19 28 26 48 11 32 10 34 -4 23 -13 -11 -15 -10 -9
5 9 23 4 22 -26 -9z m23 -14 c0 -5 -4 -10 -10 -10 -5 0 -10 5 -10 10 0 6 5 10
10 10 6 0 10 -4 10 -10z"/>
<path d="M1098 1293 c7 -3 16 -2 19 1 4 3 -2 6 -13 5 -11 0 -14 -3 -6 -6z"/>
<path d="M1490 1000 c0 -28 -9 -83 -21 -123 -23 -77 -25 -126 -7 -142 8 -7 9
-5 4 9 -4 12 5 32 32 65 43 51 72 125 72 183 0 33 -3 38 -27 44 -16 3 -34 7
-40 10 -9 2 -13 -11 -13 -46z"/>
<path d="M1148 1799 c24 -21 42 -29 71 -29 22 0 42 5 44 13 4 10 6 10 6 0 1
-7 7 -13 14 -13 19 0 77 -63 77 -83 0 -9 4 -17 9 -17 6 0 6 12 0 32 -8 30 -1
57 8 31 3 -7 9 -13 15 -13 6 0 17 -8 25 -17 13 -16 13 -16 4 3 -8 17 -7 25 7
36 9 9 23 13 30 11 6 -3 13 -1 13 4 1 4 3 18 4 29 1 12 5 26 9 33 5 7 -1 11
-13 11 -12 0 -21 -6 -21 -12 0 -9 -4 -8 -11 2 -8 11 -9 8 -4 -13 4 -23 0 -34
-19 -54 l-25 -25 6 51 6 52 -144 -2 -144 -1 33 -29z m216 -53 c-10 -8 -21 -12
-24 -10 -5 6 21 24 34 24 6 0 1 -6 -10 -14z"/>
<path d="M1180 1739 c-44 -26 -70 -58 -69 -84 1 -17 2 -17 6 -2 2 9 13 17 24
17 10 0 19 7 19 15 0 8 7 15 15 15 8 0 15 -4 15 -10 0 -5 5 -10 11 -10 8 0 8
4 0 14 -9 11 -9 16 0 21 6 4 15 1 20 -6 12 -19 11 -22 -6 -45 -8 -11 -15 -14
-15 -6 0 20 -37 14 -43 -8 -3 -11 -1 -20 3 -20 5 0 7 -9 5 -21 -4 -18 0 -20
23 -14 27 5 27 5 24 -34 -3 -32 -9 -40 -29 -46 -14 -3 -34 -3 -46 0 -20 5 -20
5 -4 -6 29 -18 107 -2 135 28 13 14 21 27 19 29 -2 2 -12 -5 -22 -16 -10 -11
-25 -20 -34 -19 -9 0 -11 3 -5 5 6 3 9 17 7 32 -4 25 -3 25 10 10 13 -17 15
-17 33 3 12 14 19 38 20 71 1 27 5 52 8 55 14 14 4 30 -27 41 -45 16 -56 15
-97 -9z m67 -41 c-3 -8 -6 -5 -6 6 -1 11 2 17 5 13 3 -3 4 -12 1 -19z m40 -60
c-3 -8 -6 -5 -6 6 -1 11 2 17 5 13 3 -3 4 -12 1 -19z m-7 -33 c0 -8 -4 -15
-10 -15 -5 0 -10 7 -10 15 0 8 5 15 10 15 6 0 10 -7 10 -15z"/>
<path d="M965 1740 c-3 -5 -1 -10 4 -10 6 0 11 5 11 10 0 6 -2 10 -4 10 -3 0
-8 -4 -11 -10z"/>
<path d="M942 1700 c0 -14 2 -19 5 -12 2 6 2 18 0 25 -3 6 -5 1 -5 -13z"/>
<path d="M1321 1654 c0 -11 3 -14 6 -6 3 7 2 16 -1 19 -3 4 -6 -2 -5 -13z"/>
<path d="M252 1578 c7 -4 42 -7 78 -7 75 1 63 6 -28 12 -34 2 -57 0 -50 -5z"/>
<path d="M2260 1150 c0 -5 5 -10 10 -10 6 0 10 5 10 10 0 6 -4 10 -10 10 -5 0
-10 -4 -10 -10z"/>
</g>
</svg>
