<svg width="19" height="19" viewBox="0 0 19 19" fill="none" xmlns="http://www.w3.org/2000/svg">
<path d="M18.989 14.3526C18.8196 15.6399 18.1874 16.8215 17.2105 17.6767C16.2335 18.532 14.9787 19.0023 13.6803 19C6.13713 19 8.59638e-06 12.863 8.59638e-06 5.31989C-0.00231893 4.0215 0.468071 2.76667 1.32332 1.78975C2.17857 0.812826 3.3602 0.180631 4.6475 0.0112384C4.97303 -0.0285091 5.30268 0.0380876 5.58725 0.201087C5.87181 0.364086 6.09603 0.614746 6.22643 0.915647L8.23287 5.39494C8.2325 5.39873 8.2325 5.40255 8.23287 5.40634C8.3327 5.63667 8.37394 5.88815 8.35288 6.1383C8.33183 6.38845 8.24915 6.6295 8.11222 6.8399C8.09512 6.86556 8.07707 6.88931 8.05807 6.91306L6.08013 9.25768C6.79169 10.7036 8.30412 12.2027 9.76905 12.9162L12.0814 10.9487C12.1041 10.9296 12.1279 10.9118 12.1526 10.8955C12.363 10.7551 12.605 10.6694 12.8569 10.6462C13.1087 10.623 13.3623 10.6629 13.5948 10.7625L13.6062 10.7682L18.0808 12.7737C18.3824 12.9034 18.6339 13.1274 18.7976 13.412C18.9613 13.6966 19.0284 14.0266 18.989 14.3526ZM11.4002 3.79988H17.4804C17.6819 3.79988 17.8752 3.7198 18.0178 3.57727C18.1603 3.43475 18.2404 3.24143 18.2404 3.03987C18.2404 2.8383 18.1603 2.64499 18.0178 2.50246C17.8752 2.35993 17.6819 2.27986 17.4804 2.27986H11.4002C11.1987 2.27986 11.0054 2.35993 10.8628 2.50246C10.7203 2.64499 10.6402 2.8383 10.6402 3.03987C10.6402 3.24143 10.7203 3.43475 10.8628 3.57727C11.0054 3.7198 11.1987 3.79988 11.4002 3.79988ZM11.4002 7.59991H17.4804C17.6819 7.59991 17.8752 7.51984 18.0178 7.37731C18.1603 7.23478 18.2404 7.04147 18.2404 6.8399C18.2404 6.63834 18.1603 6.44503 18.0178 6.3025C17.8752 6.15997 17.6819 6.0799 17.4804 6.0799H11.4002C11.1987 6.0799 11.0054 6.15997 10.8628 6.3025C10.7203 6.44503 10.6402 6.63834 10.6402 6.8399C10.6402 7.04147 10.7203 7.23478 10.8628 7.37731C11.0054 7.51984 11.1987 7.59991 11.4002 7.59991Z" fill="black"/>
</svg>
