<svg width="20" height="22" viewBox="0 0 20 22" fill="none" xmlns="http://www.w3.org/2000/svg">
<path d="M19.5 10.2489V17.7489C19.5 18.7435 19.1049 19.6973 18.4017 20.4005C17.6984 21.1038 16.7446 21.4989 15.75 21.4989H10.5C10.3011 21.4989 10.1103 21.4199 9.96967 21.2792C9.82902 21.1386 9.75 20.9478 9.75 20.7489C9.75 20.55 9.82902 20.3592 9.96967 20.2186C10.1103 20.0779 10.3011 19.9989 10.5 19.9989H15.75C16.3467 19.9989 16.919 19.7618 17.341 19.3399C17.7629 18.9179 18 18.3456 18 17.7489H15.75C15.1533 17.7489 14.581 17.5118 14.159 17.0899C13.7371 16.6679 13.5 16.0956 13.5 15.4989V11.7489C13.5 11.1522 13.7371 10.5799 14.159 10.1579C14.581 9.73595 15.1533 9.4989 15.75 9.4989H17.9672C17.8253 7.93978 17.2426 6.45322 16.2874 5.21288C15.3321 3.97253 14.0436 3.02959 12.5725 2.49421C11.1013 1.95882 9.50813 1.85309 7.97911 2.18937C6.45008 2.52564 5.0483 3.29004 3.9375 4.39327C2.55624 5.75631 1.7043 7.56585 1.53375 9.4989H3.75C4.34674 9.4989 4.91903 9.73595 5.34099 10.1579C5.76295 10.5799 6 11.1522 6 11.7489V15.4989C6 16.0956 5.76295 16.6679 5.34099 17.0899C4.91903 17.5118 4.34674 17.7489 3.75 17.7489H2.25C1.65326 17.7489 1.08097 17.5118 0.65901 17.0899C0.237053 16.6679 0 16.0956 0 15.4989V10.2489C0.00210275 8.31755 0.577147 6.43024 1.65235 4.82586C2.72755 3.22148 4.25456 1.97215 6.04012 1.23601C7.82567 0.499863 9.78948 0.310003 11.683 0.690458C13.5765 1.07091 15.3146 2.00458 16.6772 3.37327C17.5768 4.27731 18.2893 5.34998 18.7737 6.52982C19.2581 7.70967 19.5049 8.9735 19.5 10.2489Z" fill="black"/>
</svg>
