<svg width="11" height="5" viewBox="0 0 11 5" fill="none" xmlns="http://www.w3.org/2000/svg">
<path d="M10.3667 0.122186C10.3245 0.0834513 10.2744 0.052722 10.2192 0.0317564C10.164 0.0107908 10.1049 0 10.0451 0C9.98539 0 9.92625 0.0107908 9.87107 0.0317564C9.81589 0.052722 9.76577 0.0834513 9.72355 0.122186L5.49995 3.99407L1.27634 0.122186C1.19106 0.044013 1.07538 9.53674e-05 0.95477 9.53674e-05C0.834158 9.53674e-05 0.718485 0.044013 0.633199 0.122186C0.547913 0.20036 0.5 0.306386 0.5 0.41694C0.5 0.527493 0.547913 0.63352 0.633199 0.711693L5.17838 4.87781C5.22059 4.91655 5.27072 4.94728 5.32589 4.96824C5.38107 4.98921 5.44022 5 5.49995 5C5.55968 5 5.61882 4.98921 5.674 4.96824C5.72918 4.94728 5.77931 4.91655 5.82152 4.87781L10.3667 0.711693C10.409 0.673001 10.4425 0.627053 10.4654 0.576477C10.4882 0.525901 10.5 0.471689 10.5 0.41694C10.5 0.36219 10.4882 0.307978 10.4654 0.257402C10.4425 0.206826 10.409 0.160878 10.3667 0.122186Z" fill="black"/>
</svg>
