<svg width="19" height="19" viewBox="0 0 19 19" fill="none" xmlns="http://www.w3.org/2000/svg">
<path d="M18.8254 7.70088C18.8065 7.60342 18.7673 7.51124 18.7103 7.43063C18.6534 7.35001 18.5801 7.28285 18.4955 7.23369L15.9654 5.76291L15.9553 2.85423C15.9549 2.75405 15.9333 2.65514 15.8919 2.56432C15.8504 2.47351 15.7902 2.39295 15.7152 2.32821C14.7975 1.53632 13.7406 0.929468 12.6008 0.539914C12.511 0.508924 12.4159 0.497455 12.3216 0.506247C12.2272 0.515038 12.1357 0.543895 12.0529 0.590959L9.5008 2.04617L6.94617 0.588363C6.86335 0.541035 6.77171 0.51196 6.67719 0.503018C6.58266 0.494077 6.48735 0.505467 6.39741 0.536453C5.25831 0.928509 4.20259 1.53771 3.28638 2.33167C3.21155 2.39631 3.15134 2.47673 3.1099 2.56739C3.06847 2.65805 3.04679 2.7568 3.04636 2.85682L3.03363 5.7681L0.503593 7.23888C0.418949 7.28804 0.345671 7.3552 0.288741 7.43582C0.23181 7.51643 0.192561 7.60861 0.173662 7.70607C-0.0578873 8.89298 -0.0578873 10.1148 0.173662 11.3017C0.192561 11.3992 0.23181 11.4913 0.288741 11.5719C0.345671 11.6526 0.418949 11.7197 0.503593 11.7689L3.03363 13.2397L3.04381 16.1492C3.04412 16.2494 3.06574 16.3483 3.10718 16.4391C3.14862 16.5299 3.2089 16.6105 3.28384 16.6752C4.2016 17.4671 5.25847 18.074 6.39826 18.4635C6.48802 18.4945 6.58314 18.506 6.67751 18.4972C6.77188 18.4884 6.8634 18.4595 6.94617 18.4125L9.5008 16.9529L12.0554 18.4107C12.1565 18.4682 12.2705 18.498 12.3862 18.4973C12.4603 18.4972 12.5339 18.485 12.6042 18.4609C13.743 18.069 14.7987 17.4605 15.7152 16.6674C15.7901 16.6028 15.8503 16.5224 15.8917 16.4317C15.9331 16.3411 15.9548 16.2423 15.9553 16.1423L15.968 13.231L18.498 11.7602C18.5827 11.7111 18.6559 11.6439 18.7129 11.5633C18.7698 11.4827 18.809 11.3905 18.8279 11.293C19.0582 10.1071 19.0573 8.88649 18.8254 7.70088ZM9.5008 12.9602C8.82981 12.9602 8.17388 12.7573 7.61597 12.377C7.05806 11.9967 6.62322 11.4562 6.36644 10.8239C6.10966 10.1915 6.04247 9.49572 6.17338 8.82442C6.30428 8.15311 6.6274 7.53648 7.10186 7.0525C7.57633 6.56852 8.18083 6.23892 8.83894 6.10539C9.49704 5.97186 10.1792 6.0404 10.7991 6.30233C11.419 6.56425 11.9489 7.00782 12.3217 7.57692C12.6944 8.14602 12.8934 8.8151 12.8934 9.49956C12.8934 10.4174 12.536 11.2976 11.8997 11.9466C11.2635 12.5956 10.4006 12.9602 9.5008 12.9602Z" fill="black"/>
</svg>
