<svg width="17" height="17" viewBox="0 0 17 17" fill="none" xmlns="http://www.w3.org/2000/svg">
<path d="M15.6296 7.96667H14.005C13.8786 6.6014 13.2787 5.32334 12.3091 4.35383C11.3396 3.38431 10.0616 2.7844 8.6963 2.658V1.03333C8.6963 0.891885 8.64011 0.756229 8.54009 0.65621C8.44007 0.55619 8.30441 0.5 8.16296 0.5C8.02152 0.5 7.88586 0.55619 7.78584 0.65621C7.68582 0.756229 7.62963 0.891885 7.62963 1.03333V2.658C6.26437 2.7844 4.9863 3.38431 4.01679 4.35383C3.04727 5.32334 2.44737 6.6014 2.32096 7.96667H0.696297C0.554848 7.96667 0.419193 8.02286 0.319174 8.12288C0.219154 8.2229 0.162964 8.35855 0.162964 8.5C0.162964 8.64145 0.219154 8.77711 0.319174 8.87712C0.419193 8.97714 0.554848 9.03333 0.696297 9.03333H2.32096C2.44737 10.3986 3.04727 11.6767 4.01679 12.6462C4.9863 13.6157 6.26437 14.2156 7.62963 14.342V15.9667C7.62963 16.1081 7.68582 16.2438 7.78584 16.3438C7.88586 16.4438 8.02152 16.5 8.16296 16.5C8.30441 16.5 8.44007 16.4438 8.54009 16.3438C8.64011 16.2438 8.6963 16.1081 8.6963 15.9667V14.342C10.0616 14.2156 11.3396 13.6157 12.3091 12.6462C13.2787 11.6767 13.8786 10.3986 14.005 9.03333H15.6296C15.7711 9.03333 15.9067 8.97714 16.0068 8.87712C16.1068 8.77711 16.163 8.64145 16.163 8.5C16.163 8.35855 16.1068 8.2229 16.0068 8.12288C15.9067 8.02286 15.7711 7.96667 15.6296 7.96667ZM8.16296 13.3C7.21361 13.3 6.28558 13.0185 5.49623 12.4911C4.70687 11.9636 4.09164 11.214 3.72834 10.3369C3.36504 9.4598 3.26999 8.49468 3.45519 7.56357C3.6404 6.63246 4.09756 5.77718 4.76885 5.10589C5.44014 4.4346 6.29542 3.97744 7.22653 3.79223C8.15764 3.60702 9.12276 3.70208 9.99984 4.06538C10.8769 4.42868 11.6266 5.04391 12.154 5.83326C12.6814 6.62262 12.963 7.55065 12.963 8.5C12.9616 9.77261 12.4554 10.9927 11.5555 11.8926C10.6556 12.7924 9.43557 13.2986 8.16296 13.3ZM10.8296 8.5C10.8296 9.02742 10.6732 9.54299 10.3802 9.98152C10.0872 10.4201 9.67072 10.7618 9.18345 10.9637C8.69618 11.1655 8.16001 11.2183 7.64272 11.1154C7.12544 11.0125 6.65029 10.7586 6.27735 10.3856C5.90441 10.0127 5.65043 9.53752 5.54754 9.02024C5.44464 8.50296 5.49745 7.96678 5.69929 7.47951C5.90112 6.99224 6.24291 6.57577 6.68144 6.28275C7.11997 5.98973 7.63555 5.83333 8.16296 5.83333C8.87021 5.83333 9.54849 6.11428 10.0486 6.61438C10.5487 7.11448 10.8296 7.79276 10.8296 8.5Z" fill="#999999"/>
</svg>
