<svg width="17" height="20" viewBox="0 0 17 20" fill="none" xmlns="http://www.w3.org/2000/svg">
<path d="M15.0455 1.48136H11.7491C11.3405 1.01536 10.8398 0.642516 10.2799 0.387237C9.71997 0.131959 9.11345 0 8.5 0C7.88656 0 7.28003 0.131959 6.72012 0.387237C6.16021 0.642516 5.65955 1.01536 5.25091 1.48136H1.95455C1.56878 1.48136 1.19881 1.63744 0.926026 1.91528C0.653246 2.19311 0.5 2.56993 0.5 2.96285V18.5185C0.5 18.9114 0.653246 19.2882 0.926026 19.5661C1.19881 19.8439 1.56878 20 1.95455 20H15.0455C15.4312 20 15.8012 19.8439 16.074 19.5661C16.3468 19.2882 16.5 18.9114 16.5 18.5185V2.96285C16.5 2.56993 16.3468 2.19311 16.074 1.91528C15.8012 1.63744 15.4312 1.48136 15.0455 1.48136ZM8.5 1.48136C9.27154 1.48136 10.0115 1.79353 10.557 2.34919C11.1026 2.90486 11.4091 3.65851 11.4091 4.44434H5.59091C5.59091 3.65851 5.8974 2.90486 6.44296 2.34919C6.98852 1.79353 7.72846 1.48136 8.5 1.48136ZM11.4091 13.3333H5.59091C5.39802 13.3333 5.21304 13.2552 5.07665 13.1163C4.94026 12.9774 4.86364 12.789 4.86364 12.5925C4.86364 12.3961 4.94026 12.2077 5.07665 12.0688C5.21304 11.9298 5.39802 11.8518 5.59091 11.8518H11.4091C11.602 11.8518 11.787 11.9298 11.9234 12.0688C12.0597 12.2077 12.1364 12.3961 12.1364 12.5925C12.1364 12.789 12.0597 12.9774 11.9234 13.1163C11.787 13.2552 11.602 13.3333 11.4091 13.3333ZM11.4091 10.3703H5.59091C5.39802 10.3703 5.21304 10.2923 5.07665 10.1533C4.94026 10.0144 4.86364 9.82602 4.86364 9.62956C4.86364 9.4331 4.94026 9.24469 5.07665 9.10577C5.21304 8.96686 5.39802 8.88881 5.59091 8.88881H11.4091C11.602 8.88881 11.787 8.96686 11.9234 9.10577C12.0597 9.24469 12.1364 9.4331 12.1364 9.62956C12.1364 9.82602 12.0597 10.0144 11.9234 10.1533C11.787 10.2923 11.602 10.3703 11.4091 10.3703Z" fill="#408EFD"/>
</svg>
