<svg width="20" height="22" viewBox="0 0 20 22" fill="none" xmlns="http://www.w3.org/2000/svg">
<path d="M20 10.5796V20.66C20 20.8828 19.9122 21.0964 19.7559 21.254C19.5996 21.4115 19.3877 21.5 19.1667 21.5H13.3333C13.1123 21.5 12.9004 21.4115 12.7441 21.254C12.5878 21.0964 12.5 20.8828 12.5 20.66V15.1998C12.5 15.0884 12.4561 14.9815 12.378 14.9028C12.2998 14.824 12.1938 14.7798 12.0833 14.7798H7.91667C7.80616 14.7798 7.70018 14.824 7.62204 14.9028C7.5439 14.9815 7.5 15.0884 7.5 15.1998V20.66C7.5 20.8828 7.4122 21.0964 7.25592 21.254C7.09964 21.4115 6.88768 21.5 6.66667 21.5H0.833333C0.61232 21.5 0.400358 21.4115 0.244078 21.254C0.0877975 21.0964 0 20.8828 0 20.66V10.5796C0.000204885 10.1341 0.175934 9.70691 0.488542 9.392L8.82187 0.99169C9.1344 0.676855 9.55816 0.5 10 0.5C10.4418 0.5 10.8656 0.676855 11.1781 0.99169L19.5115 9.392C19.8241 9.70691 19.9998 10.1341 20 10.5796Z" fill="#B0B0B0"/>
</svg>
