<svg width="16" height="17" viewBox="0 0 16 17" fill="none" xmlns="http://www.w3.org/2000/svg">
<path d="M8 16.5C6.41775 16.5 4.87103 16.0308 3.55544 15.1518C2.23985 14.2727 1.21447 13.0233 0.608967 11.5615C0.00346625 10.0997 -0.15496 8.49113 0.153721 6.93928C0.462403 5.38743 1.22433 3.96197 2.34315 2.84315C3.46197 1.72433 4.88743 0.962402 6.43928 0.65372C7.99113 0.345038 9.59966 0.503465 11.0615 1.10897C12.5233 1.71447 13.7727 2.73985 14.6518 4.05544C15.5308 5.37103 16 6.91775 16 8.5C15.9978 10.621 15.1542 12.6546 13.6544 14.1544C12.1546 15.6542 10.121 16.4978 8 16.5ZM7.38462 12.1923C7.38462 12.3555 7.44945 12.512 7.56486 12.6275C7.68027 12.7429 7.83679 12.8077 8 12.8077C8.16321 12.8077 8.31974 12.7429 8.43515 12.6275C8.55055 12.512 8.61539 12.3555 8.61539 12.1923V7.88462C8.61539 7.72141 8.55055 7.56488 8.43515 7.44947C8.31974 7.33407 8.16321 7.26923 8 7.26923C7.83679 7.26923 7.68027 7.33407 7.56486 7.44947C7.44945 7.56488 7.38462 7.72141 7.38462 7.88462V12.1923ZM8 4.19231C7.81744 4.19231 7.63897 4.24645 7.48717 4.34788C7.33537 4.44931 7.21706 4.59347 7.14719 4.76214C7.07732 4.93081 7.05904 5.11641 7.09466 5.29547C7.13028 5.47453 7.21819 5.639 7.34729 5.7681C7.47638 5.89719 7.64086 5.98511 7.81992 6.02073C7.99898 6.05634 8.18458 6.03806 8.35325 5.9682C8.52192 5.89833 8.66608 5.78002 8.76751 5.62822C8.86894 5.47642 8.92308 5.29795 8.92308 5.11539C8.92308 4.87057 8.82583 4.63578 8.65272 4.46267C8.47961 4.28956 8.24482 4.19231 8 4.19231Z" fill="#2665FE"/>
</svg>
