<svg width="500" height="500" version="1.1" xmlns="http://www.w3.org/2000/svg" desc="Created with imagetracer.js version 1.2.6" ><path fill="rgb(0,0,0)" stroke="rgb(0,0,0)" stroke-width="1" opacity="0" d="M 0 0 L 500 0 L 500 500 L 0 500 L 0 0 Z M 76 154 L 73 155 L 70 159 L 69 188 L 69 190 L 69 229 L 71 233 L 68 249 L 68 253 L 71 256 L 72 261 L 72 271 L 75 278 L 83 284 L 104 294 L 237 341 L 276 360 L 302 378 Q 306 379 305 386 Q 308 389 314 390 L 317 395 L 322 398 L 325 397 L 333 385 L 333 380 Q 328 373 320 372 L 319 366 L 317 364 L 315 367 L 310 371 L 286 359 Q 270 346 252 337 L 227 325 L 224 325 L 196 315 L 189 314 L 151 300 L 113 289 L 96 282 L 88 277 Q 85 278 86 275 L 405 275 L 406 274 L 436 274 L 433 263 L 435 253 L 435 218 L 436 217 L 435 216 L 435 170 L 434 169 L 434 165 L 437 159 L 434 156 L 350 156 L 349 155 L 280 155 L 279 154 L 255 154 L 254 155 L 116 155 L 115 154 L 76 154 Z " /><path fill="rgb(88,42,33)" stroke="rgb(88,42,33)" stroke-width="1" opacity="0.996078431372549" d="M 86 158 L 332 158.5 L 110.5 159 L 106 161.5 L 106.5 163 L 109 161.5 L 105.5 166 L 104 162.5 L 103.5 161 L 102 164.5 L 102.5 166 L 101 165.5 Q 102.3 170.3 99 169 L 96.5 165 L 88 164.5 L 90 163.5 L 88.5 160 Q 84.8 161 86 158 Z M 98 163 L 98 164 L 100 164 L 98 163 Z " /><path fill="rgb(88,42,33)" stroke="rgb(88,42,33)" stroke-width="1" opacity="0.996078431372549" d="M 84.5 161 L 86 164.5 L 84.5 164 Q 82.3 164.8 83 162.5 L 84.5 161 Z " /><path fill="rgb(88,42,33)" stroke="rgb(88,42,33)" stroke-width="1" opacity="0.996078431372549" d="M 425.5 162 Q 429.5 161.5 430 164.5 L 429.5 166 L 425.5 162 Z " /><path fill="rgb(88,42,33)" stroke="rgb(88,42,33)" stroke-width="1" opacity="0.996078431372549" d="M 104.5 167 L 105 169.5 L 104 170.5 L 104 194.5 L 103 195.5 L 102 210.5 L 103 213 L 96 211.5 L 98 211 Q 99.3 208 95.5 209 L 94.5 210 L 85 210.5 L 86 212.5 L 85 212.5 L 84.5 211 L 83.5 214 L 82 213.5 Q 81.3 215.8 83.5 215 Q 85 217.5 86.5 214 L 93.5 215 L 96 214 L 94.5 218 L 84 219.5 L 85.5 221 L 92 221 Q 94.1 226.2 89.5 225 L 79 218.5 L 81 211.5 L 79 211 L 78.5 209 Q 75.8 210.2 78 211.5 L 77 214.5 L 78 217.5 L 77.5 219 L 73 215.5 L 75 208 L 79 208 L 79 206.5 L 83 205 L 85.5 200 L 90 199 L 89 194.5 Q 96.2 195.2 98 190.5 L 99 180 L 103 177.5 Q 101.9 170.4 104.5 167 Z M 97 196 L 94 198 L 97 198 L 97 196 Z M 87 203 L 86 205 L 95 205 L 87 203 Z " /><path fill="rgb(88,42,33)" stroke="rgb(88,42,33)" stroke-width="1" opacity="0.996078431372549" d="M 159.5 197 Q 161.8 196.3 161 198.5 Q 163.3 199.7 162 204.5 L 161 204.5 Q 161.8 198.3 159.5 197 Z " /><path fill="rgb(88,42,33)" stroke="rgb(88,42,33)" stroke-width="1" opacity="0.996078431372549" d="M 167.5 197 L 170 203.5 L 168 204.5 L 167 201.5 L 167 199.5 L 167.5 197 Z " /><path fill="rgb(88,42,33)" stroke="rgb(88,42,33)" stroke-width="1" opacity="0.996078431372549" d="M 174.5 197 L 175 202.5 L 174 202.5 L 174.5 197 Z " /><path fill="rgb(88,42,33)" stroke="rgb(88,42,33)" stroke-width="1" opacity="0.996078431372549" d="M 190.5 197 L 194 197.5 L 190.5 198 L 190.5 197 Z " /><path fill="rgb(88,42,33)" stroke="rgb(88,42,33)" stroke-width="1" opacity="0.996078431372549" d="M 198.5 198 L 199 200.5 L 198 200.5 L 198.5 198 Z " /><path fill="rgb(88,42,33)" stroke="rgb(88,42,33)" stroke-width="1" opacity="0.996078431372549" d="M 214.5 198 L 215 200.5 L 211.5 203 L 212.5 201 Q 215.4 201.7 214.5 198 Z " /><path fill="rgb(88,42,33)" stroke="rgb(88,42,33)" stroke-width="1" opacity="0.996078431372549" d="M 244.5 198 L 245 200.5 L 244 200.5 L 244.5 198 Z " /><path fill="rgb(88,42,33)" stroke="rgb(88,42,33)" stroke-width="1" opacity="0.996078431372549" d="M 282.5 198 Q 286.9 196.5 286 199.5 L 284.5 199 Q 281.5 199.5 282.5 198 Z " /><path fill="rgb(88,42,33)" stroke="rgb(88,42,33)" stroke-width="1" opacity="0.996078431372549" d="M 288.5 198 Q 288.1 204 292 205.5 L 289.5 204 L 288 203.5 L 288.5 198 Z " /><path fill="rgb(88,42,33)" stroke="rgb(88,42,33)" stroke-width="1" opacity="0.996078431372549" d="M 355 198 L 360 198 L 360 207.5 L 361.5 208 L 361.5 209 L 359 209 L 359 199.5 L 357 199 L 357 224.5 L 358 225.5 L 356 226 L 356 200.5 L 355 198 Z " /><path fill="rgb(88,42,33)" stroke="rgb(88,42,33)" stroke-width="1" opacity="0.996078431372549" d="M 227.5 199 L 228 201 Q 232.6 199.8 234 202.5 L 232.5 202 Q 226.7 199.9 228 204.5 L 227 204.5 L 227.5 199 Z " /><path fill="rgb(88,42,33)" stroke="rgb(88,42,33)" stroke-width="1" opacity="0.996078431372549" d="M 370.5 199 L 371 201.5 L 369 202.5 L 370.5 199 Z " /><path fill="rgb(88,42,33)" stroke="rgb(88,42,33)" stroke-width="1" opacity="0.996078431372549" d="M 377.5 199 Q 379.8 198.3 379 200.5 L 380 204 L 370.5 205 L 370.5 204 L 379 202.5 L 377.5 199 Z " /><path fill="rgb(88,42,33)" stroke="rgb(88,42,33)" stroke-width="1" opacity="0.996078431372549" d="M 137.5 200 L 144 200.5 L 137.5 201 L 137.5 200 Z " /><path fill="rgb(88,42,33)" stroke="rgb(88,42,33)" stroke-width="1" opacity="0.996078431372549" d="M 283.5 200 L 282.5 202 L 283.5 200 Z " /><path fill="rgb(88,42,33)" stroke="rgb(88,42,33)" stroke-width="1" opacity="0.996078431372549" d="M 260.5 201 L 264 201.5 L 260.5 202 L 260.5 201 Z " /><path fill="rgb(88,42,33)" stroke="rgb(88,42,33)" stroke-width="1" opacity="0.996078431372549" d="M 171.5 202 L 172.5 204 L 171.5 202 Z " /><path fill="rgb(88,42,33)" stroke="rgb(88,42,33)" stroke-width="1" opacity="0.996078431372549" d="M 220.5 202 L 219.5 204 L 220.5 202 Z " /><path fill="rgb(88,42,33)" stroke="rgb(88,42,33)" stroke-width="1" opacity="0.996078431372549" d="M 367.5 202 L 368 204 L 364.5 205 L 365.5 203 L 367.5 202 Z " /><path fill="rgb(88,42,33)" stroke="rgb(88,42,33)" stroke-width="1" opacity="0.996078431372549" d="M 372.5 207 L 376 207.5 L 372.5 208 L 372.5 207 Z " /><path fill="rgb(88,42,33)" stroke="rgb(88,42,33)" stroke-width="1" opacity="0.996078431372549" d="M 157.5 208 L 158 212 L 161 212.5 L 157 213 L 157.5 208 Z " /><path fill="rgb(88,42,33)" stroke="rgb(88,42,33)" stroke-width="1" opacity="0.996078431372549" d="M 159.5 208 L 165 208.5 L 159.5 209 L 159.5 208 Z " /><path fill="rgb(88,42,33)" stroke="rgb(88,42,33)" stroke-width="1" opacity="0.996078431372549" d="M 171.5 208 L 175 209.5 L 174.5 215 L 174 209 Q 170.7 209.8 171.5 208 Z " /><path fill="rgb(88,42,33)" stroke="rgb(88,42,33)" stroke-width="1" opacity="0.996078431372549" d="M 179.5 208 L 182 208.5 L 179.5 209 L 179.5 208 Z " /><path fill="rgb(88,42,33)" stroke="rgb(88,42,33)" stroke-width="1" opacity="0.996078431372549" d="M 208.5 208 L 209 210 Q 212.8 208.5 212 211.5 L 209 212.5 L 208.5 217 L 208.5 208 Z " /><path fill="rgb(88,42,33)" stroke="rgb(88,42,33)" stroke-width="1" opacity="0.996078431372549" d="M 230.5 208 L 231 212.5 L 230 212.5 L 230.5 208 Z " /><path fill="rgb(88,42,33)" stroke="rgb(88,42,33)" stroke-width="1" opacity="0.996078431372549" d="M 365.5 208 L 365 209.5 Q 363.8 214.3 366 215.5 L 364 214.5 Q 362.8 209.3 365.5 208 Z " /><path fill="rgb(88,42,33)" stroke="rgb(88,42,33)" stroke-width="1" opacity="0.996078431372549" d="M 140.5 209 L 142 211.5 L 140.5 215 L 140.5 209 Z " /><path fill="rgb(88,42,33)" stroke="rgb(88,42,33)" stroke-width="1" opacity="0.996078431372549" d="M 167.5 209 L 169 215 L 167 215 L 167.5 209 Z " /><path fill="rgb(88,42,33)" stroke="rgb(88,42,33)" stroke-width="1" opacity="0.996078431372549" d="M 258.5 209 L 260 212.5 L 258 213.5 L 258.5 209 Z " /><path fill="rgb(88,42,33)" stroke="rgb(88,42,33)" stroke-width="1" opacity="0.996078431372549" d="M 268.5 209 Q 271.5 210.5 270 216.5 L 269 216.5 Q 269.5 210.5 268.5 209 Z " /><path fill="rgb(88,42,33)" stroke="rgb(88,42,33)" stroke-width="1" opacity="0.996078431372549" d="M 275.5 209 L 276 216.5 L 275 216.5 L 275.5 209 Z " /><path fill="rgb(88,42,33)" stroke="rgb(88,42,33)" stroke-width="1" opacity="0.996078431372549" d="M 279.5 209 L 280 211 Q 284.6 209.8 286 212.5 L 284.5 212 Q 277.8 209.8 280 216.5 L 279 216.5 L 279.5 209 Z " /><path fill="rgb(88,42,33)" stroke="rgb(88,42,33)" stroke-width="1" opacity="0.996078431372549" d="M 299.5 209 L 303 209.5 L 299.5 210 L 299.5 209 Z " /><path fill="rgb(88,42,33)" stroke="rgb(88,42,33)" stroke-width="1" opacity="0.996078431372549" d="M 308.5 209 L 312 209.5 L 308 210 L 307.5 216 L 307 210.5 L 308.5 209 Z " /><path fill="rgb(88,42,33)" stroke="rgb(88,42,33)" stroke-width="1" opacity="0.996078431372549" d="M 319.5 209 L 320 211 L 318 210.5 L 319.5 209 Z " /><path fill="rgb(88,42,33)" stroke="rgb(88,42,33)" stroke-width="1" opacity="0.996078431372549" d="M 327.5 209 L 326.5 211 L 327.5 209 Z " /><path fill="rgb(88,42,33)" stroke="rgb(88,42,33)" stroke-width="1" opacity="0.996078431372549" d="M 337.5 209 Q 342 208 343 210.5 L 341.5 210 Q 334.3 207.7 337 215.5 L 336 215.5 Q 334.8 210.3 337.5 209 Z " /><path fill="rgb(88,42,33)" stroke="rgb(88,42,33)" stroke-width="1" opacity="0.996078431372549" d="M 198.5 210 L 199 213 L 204 213.5 L 199 214 L 198.5 217 L 198.5 210 Z " /><path fill="rgb(88,42,33)" stroke="rgb(88,42,33)" stroke-width="1" opacity="0.996078431372549" d="M 247.5 210 L 248.5 212 Q 245.7 212.7 247.5 210 Z " /><path fill="rgb(88,42,33)" stroke="rgb(88,42,33)" stroke-width="1" opacity="0.996078431372549" d="M 313.5 210 L 314 215.5 L 313 215.5 L 313.5 210 Z " /><path fill="rgb(88,42,33)" stroke="rgb(88,42,33)" stroke-width="1" opacity="0.996078431372549" d="M 332.5 210 L 333.5 212 Q 330.7 212.7 332.5 210 Z " /><path fill="rgb(88,42,33)" stroke="rgb(88,42,33)" stroke-width="1" opacity="0.996078431372549" d="M 369.5 210 L 370 215 L 373 215.5 L 370.5 216 Q 367.6 214.6 369.5 210 Z " /><path fill="rgb(88,42,33)" stroke="rgb(88,42,33)" stroke-width="1" opacity="0.996078431372549" d="M 93.5 211 L 95 211.5 L 92.5 213 L 93.5 211 Z " /><path fill="rgb(88,42,33)" stroke="rgb(88,42,33)" stroke-width="1" opacity="0.996078431372549" d="M 178.5 211 L 179 214.5 L 178 214.5 L 178.5 211 Z " /><path fill="rgb(88,42,33)" stroke="rgb(88,42,33)" stroke-width="1" opacity="0.996078431372549" d="M 191.5 211 L 192 213.5 L 191 213.5 L 191.5 211 Z " /><path fill="rgb(88,42,33)" stroke="rgb(88,42,33)" stroke-width="1" opacity="0.996078431372549" d="M 188.5 212 L 189 216.5 L 188 216.5 L 188.5 212 Z " /><path fill="rgb(88,42,33)" stroke="rgb(88,42,33)" stroke-width="1" opacity="0.996078431372549" d="M 342.5 212 Q 345.1 211.2 344 214.5 L 343 214.5 L 342.5 212 Z " /><path fill="rgb(88,42,33)" stroke="rgb(88,42,33)" stroke-width="1" opacity="0.996078431372549" d="M 330.5 213 L 332 213.5 L 329.5 215 L 330.5 213 Z " /><path fill="rgb(88,42,33)" stroke="rgb(88,42,33)" stroke-width="1" opacity="0.996078431372549" d="M 214.5 214 L 215 216.5 L 214 216.5 L 214.5 214 Z " /><path fill="rgb(88,42,33)" stroke="rgb(88,42,33)" stroke-width="1" opacity="0.996078431372549" d="M 285.5 214 L 286 216.5 L 285 216.5 L 285.5 214 Z " /><path fill="rgb(88,42,33)" stroke="rgb(88,42,33)" stroke-width="1" opacity="0.996078431372549" d="M 299.5 215 L 303 216 L 302.5 218 L 298 216.5 L 299.5 215 Z " /><path fill="rgb(88,42,33)" stroke="rgb(88,42,33)" stroke-width="1" opacity="0.996078431372549" d="M 359 215 L 361 215.5 L 359.5 223 L 359 215 Z " /><path fill="rgb(88,42,33)" stroke="rgb(88,42,33)" stroke-width="1" opacity="0.996078431372549" d="M 229.5 216 L 233 216.5 L 229.5 217 L 229.5 216 Z " /><path fill="rgb(88,42,33)" stroke="rgb(88,42,33)" stroke-width="1" opacity="0.996078431372549" d="M 249.5 216 L 254 216.5 L 249.5 217 L 249.5 216 Z " /><path fill="rgb(88,42,33)" stroke="rgb(88,42,33)" stroke-width="1" opacity="0.996078431372549" d="M 258.5 216 L 262 216.5 L 258.5 217 L 258.5 216 Z " /><path fill="rgb(88,42,33)" stroke="rgb(88,42,33)" stroke-width="1" opacity="0.996078431372549" d="M 320.5 216 L 321.5 218 Q 318.7 218.7 320.5 216 Z " /><path fill="rgb(88,42,33)" stroke="rgb(88,42,33)" stroke-width="1" opacity="0.996078431372549" d="M 326.5 216 L 329 216.5 L 326.5 217 L 326.5 216 Z " /><path fill="rgb(88,42,33)" stroke="rgb(88,42,33)" stroke-width="1" opacity="0.996078431372549" d="M 331.5 216 L 332.5 218 Q 329.7 218.7 331.5 216 Z " /><path fill="rgb(88,42,33)" stroke="rgb(88,42,33)" stroke-width="1" opacity="0.996078431372549" d="M 362.5 216 L 363 218 L 370 221 L 371.5 224 L 373 224.5 L 370.5 225 L 369 222 L 362 219 L 362.5 216 Z " /><path fill="rgb(88,42,33)" stroke="rgb(88,42,33)" stroke-width="1" opacity="0.996078431372549" d="M 378.5 216 L 377.5 218 L 374 217.5 L 378.5 216 Z " /><path fill="rgb(88,42,33)" stroke="rgb(88,42,33)" stroke-width="1" opacity="0.996078431372549" d="M 369.5 218 L 373 219.5 L 370.5 220 L 369.5 218 Z " /><path fill="rgb(88,42,33)" stroke="rgb(88,42,33)" stroke-width="1" opacity="0.996078431372549" d="M 157.5 219 L 159 221.5 L 157 220.5 L 157.5 219 Z " /><path fill="rgb(88,42,33)" stroke="rgb(88,42,33)" stroke-width="1" opacity="0.996078431372549" d="M 167.5 219 L 168 224.5 L 167 224.5 L 167.5 219 Z " /><path fill="rgb(88,42,33)" stroke="rgb(88,42,33)" stroke-width="1" opacity="0.996078431372549" d="M 174.5 219 L 175 224.5 L 174 224.5 L 174.5 219 Z " /><path fill="rgb(88,42,33)" stroke="rgb(88,42,33)" stroke-width="1" opacity="0.996078431372549" d="M 181.5 219 L 183 227.5 L 181 228 L 181.5 219 Z " /><path fill="rgb(88,42,33)" stroke="rgb(88,42,33)" stroke-width="1" opacity="0.996078431372549" d="M 201.5 219 L 204 219.5 L 201.5 220 L 201.5 219 Z " /><path fill="rgb(88,42,33)" stroke="rgb(88,42,33)" stroke-width="1" opacity="0.996078431372549" d="M 379.5 219 L 380 221.5 L 378.5 221 L 374 220.5 L 379.5 219 Z " /><path fill="rgb(88,42,33)" stroke="rgb(88,42,33)" stroke-width="1" opacity="0.996078431372549" d="M 73.5 220 Q 82.4 221.6 88 226.5 L 85.5 229 Q 80 227.5 78.5 230 L 74 229 L 73.5 231 L 73 229.5 Q 75.3 228.2 74 223.5 L 73.5 220 Z " /><path fill="rgb(88,42,33)" stroke="rgb(88,42,33)" stroke-width="1" opacity="0.996078431372549" d="M 217.5 220 L 218 222.5 L 217 222.5 L 217.5 220 Z " /><path fill="rgb(88,42,33)" stroke="rgb(88,42,33)" stroke-width="1" opacity="0.996078431372549" d="M 251.5 220 L 253 227.5 L 251 228 L 251.5 220 Z " /><path fill="rgb(88,42,33)" stroke="rgb(88,42,33)" stroke-width="1" opacity="0.996078431372549" d="M 293.5 220 L 295 225.5 L 293.5 228 L 293.5 220 Z " /><path fill="rgb(88,42,33)" stroke="rgb(88,42,33)" stroke-width="1" opacity="0.996078431372549" d="M 224.5 221 L 225 225.5 L 224 225.5 L 224.5 221 Z " /><path fill="rgb(88,42,33)" stroke="rgb(88,42,33)" stroke-width="1" opacity="0.996078431372549" d="M 227.5 221 L 228 225.5 L 227 225.5 L 227.5 221 Z " /><path fill="rgb(88,42,33)" stroke="rgb(88,42,33)" stroke-width="1" opacity="0.996078431372549" d="M 233.5 221 Q 236.9 220.1 235 225.5 L 234 225.5 L 233 223.5 L 233.5 221 Z " /><path fill="rgb(88,42,33)" stroke="rgb(88,42,33)" stroke-width="1" opacity="0.996078431372549" d="M 258.5 221 L 259 223 L 264 223.5 L 259 224 L 258.5 226 L 258.5 221 Z " /><path fill="rgb(88,42,33)" stroke="rgb(88,42,33)" stroke-width="1" opacity="0.996078431372549" d="M 275.5 221 L 276 225.5 L 275 225.5 L 275.5 221 Z " /><path fill="rgb(88,42,33)" stroke="rgb(88,42,33)" stroke-width="1" opacity="0.996078431372549" d="M 285.5 221 L 286 225.5 L 285 225.5 L 285.5 221 Z " /><path fill="rgb(88,42,33)" stroke="rgb(88,42,33)" stroke-width="1" opacity="0.996078431372549" d="M 291.5 221 L 290.5 223 L 291.5 221 Z " /><path fill="rgb(88,42,33)" stroke="rgb(88,42,33)" stroke-width="1" opacity="0.996078431372549" d="M 188.5 222 L 189 225.5 L 188 225.5 L 188.5 222 Z " /><path fill="rgb(88,42,33)" stroke="rgb(88,42,33)" stroke-width="1" opacity="0.996078431372549" d="M 198.5 222 L 199 225.5 L 198 225.5 L 198.5 222 Z " /><path fill="rgb(88,42,33)" stroke="rgb(88,42,33)" stroke-width="1" opacity="0.996078431372549" d="M 208.5 222 L 213 223.5 L 209 224 L 208.5 226 L 208.5 222 Z " /><path fill="rgb(88,42,33)" stroke="rgb(88,42,33)" stroke-width="1" opacity="0.996078431372549" d="M 219.5 223 L 223 223.5 L 219.5 224 L 219.5 223 Z " /><path fill="rgb(88,42,33)" stroke="rgb(88,42,33)" stroke-width="1" opacity="0.996078431372549" d="M 237.5 223 L 241 223.5 L 237.5 224 L 237.5 223 Z " /><path fill="rgb(88,42,33)" stroke="rgb(88,42,33)" stroke-width="1" opacity="0.996078431372549" d="M 268.5 223 Q 271.5 222.2 270 226 L 268 225.5 L 268.5 223 Z " /><path fill="rgb(88,42,33)" stroke="rgb(88,42,33)" stroke-width="1" opacity="0.996078431372549" d="M 278.5 223 Q 281.1 222.2 280 225.5 L 279 225.5 L 278.5 223 Z " /><path fill="rgb(88,42,33)" stroke="rgb(88,42,33)" stroke-width="1" opacity="0.996078431372549" d="M 288.5 223 L 290 225.5 L 288 224.5 L 288.5 223 Z " /><path fill="rgb(88,42,33)" stroke="rgb(88,42,33)" stroke-width="1" opacity="0.996078431372549" d="M 158.5 224 L 158 225.5 Q 158.7 228.1 156 227 Q 154.9 224.3 157.5 225 L 158.5 224 Z " /><path fill="rgb(88,42,33)" stroke="rgb(88,42,33)" stroke-width="1" opacity="0.996078431372549" d="M 162.5 224 L 165 225 Q 166 228 163 227 L 162.5 224 Z " /><path fill="rgb(88,42,33)" stroke="rgb(88,42,33)" stroke-width="1" opacity="0.996078431372549" d="M 209.5 227 L 213 227.5 L 209.5 228 L 209.5 227 Z " /><path fill="rgb(88,42,33)" stroke="rgb(88,42,33)" stroke-width="1" opacity="0.996078431372549" d="M 95.5 229 L 98 230.5 L 97.5 233 L 97 231 L 94 230.5 L 95.5 229 Z " /><path fill="rgb(88,42,33)" stroke="rgb(88,42,33)" stroke-width="1" opacity="0.996078431372549" d="M 74.5 238 L 76 245.5 L 76.5 266 Q 81.1 264.1 80 256.5 L 77 245 Q 80.8 244 82 246.5 L 81 257.5 L 83.5 259 L 84.5 258 L 96 258 L 97 254.5 L 97 252.5 Q 99.3 242.8 94 240.5 L 95.5 241 Q 100.9 240.4 103 242 L 104 244.5 L 103 248.5 L 105 259.5 L 108.5 264 L 110.5 265 L 143.5 265 L 145.5 265 L 166.5 264 L 169.5 265 L 172.5 264 L 176.5 265 L 177.5 264 L 231.5 264 Q 233.2 266.8 239.5 265 L 242.5 264 L 244.5 265 L 247.5 264 Q 252.2 262.8 253.5 265 L 343.5 265 L 344.5 266 L 402 266.5 L 117.5 267 Q 115.8 264.3 109.5 266 L 110.5 268 L 135.5 268 L 136.5 269 L 429.5 269 L 433 270.5 L 274.5 272 L 273.5 271 L 103.5 270 L 103.5 271 L 145 272.5 L 82 274.5 L 100.5 285 L 113.5 290 L 136.5 296 L 174.5 310 L 227.5 326 Q 262.7 340.8 290.5 363 L 309 371 L 306 380 L 283.5 364 L 247.5 345 L 215.5 332 L 191.5 325 L 105.5 294 L 85.5 285 L 76 277.5 L 73 271.5 L 73 253.5 L 74 252.5 L 74.5 238 Z M 78 267 L 78 270 Q 81 269 78 267 Z M 88 267 L 86 268 L 85 270 L 89 269 L 88 267 Z M 102 267 L 100 269 L 103 269 Q 104 266 102 267 Z M 90 269 L 90 270 L 92 270 L 90 269 Z " /><path fill="rgb(88,42,33)" stroke="rgb(88,42,33)" stroke-width="1" opacity="0.996078431372549" d="M 192.5 273 L 254 273.5 L 192.5 274 L 192.5 273 Z " /><path fill="rgb(88,42,33)" stroke="rgb(88,42,33)" stroke-width="1" opacity="0.996078431372549" d="M 109.5 274 L 112 274.5 L 109.5 275 L 109.5 274 Z " /><path fill="rgb(88,42,33)" stroke="rgb(88,42,33)" stroke-width="1" opacity="0.996078431372549" d="M 117.5 274 L 120 274.5 L 117.5 275 L 117.5 274 Z " /><path fill="rgb(151,138,108)" stroke="rgb(151,138,108)" stroke-width="1" opacity="0.9803921568627451" d="M 75.5 155 L 78 155.5 L 75 157.5 L 78.5 158 L 84.5 155 L 104 155 Q 102.8 158 106.5 157 L 106.5 158 L 86.5 158 L 86 160 L 90 161.5 L 89.5 164 L 88 164.5 L 97 165.5 L 85.5 166 L 84 167.5 Q 85.1 170.8 82.5 170 L 77.5 169 L 76 171.5 L 77 173.5 L 76.5 175 Q 79.1 174.2 78 177.5 Q 76.7 181 72 180 L 72 182 Q 74.7 180.9 74 183.5 L 71 185 L 70 179.5 L 71 176.5 L 71 174.5 L 72 168 Q 75.8 169 77 166.5 L 71 163.5 L 72 161.5 L 71 157.5 L 75.5 155 Z M 100 156 L 100 157 L 102 157 L 100 156 Z M 77 161 L 77 163 Q 74 162 75 165 L 77 164 L 78 164 L 78 168 L 82 167 Q 85 166 82 164 Q 79 165 80 163 L 77 161 Z M 85 161 L 83 163 Q 82 165 85 164 L 86 165 L 85 161 Z " /><path fill="rgb(151,138,108)" stroke="rgb(151,138,108)" stroke-width="1" opacity="0.9803921568627451" d="M 122.5 156 L 272 157.5 L 111.5 158 L 111.5 157 L 121.5 157 L 122.5 156 Z " /><path fill="rgb(151,138,108)" stroke="rgb(151,138,108)" stroke-width="1" opacity="0.9803921568627451" d="M 333.5 156 L 354 156.5 L 333.5 157 L 333.5 156 Z " /><path fill="rgb(151,138,108)" stroke="rgb(151,138,108)" stroke-width="1" opacity="0.9803921568627451" d="M 403.5 157 L 425 157.5 L 403.5 158 L 403.5 157 Z " /><path fill="rgb(151,138,108)" stroke="rgb(151,138,108)" stroke-width="1" opacity="0.9803921568627451" d="M 332.5 158 L 351.5 158 L 352.5 159 L 416.5 159 L 417.5 160 Q 425.7 158.3 429.5 161 L 435 159.5 L 429 158.5 L 434.5 158 Q 438.2 160.2 433 162.5 L 432 168.5 L 434 176.5 L 434 184.5 L 433 184.5 L 433 177.5 L 427 164.5 L 430 165.5 L 427.5 162 L 425 162.5 L 425.5 164 L 422.5 163 L 308.5 163 L 307.5 162 L 303.5 163 L 302.5 162 L 132.5 162 L 131.5 161 Q 129.8 163.8 123.5 162 L 122.5 161 L 111.5 161 L 110.5 160 L 108.5 163 L 106 162.5 L 107.5 160 L 114.5 159 L 116.5 159 L 118.5 160 L 278.5 160 L 279.5 159 L 331.5 159 L 332.5 158 Z M 386 160 L 386 161 L 397 161 L 386 160 Z M 399 160 L 399 161 L 401 161 L 399 160 Z M 403 160 L 403 161 L 410 161 L 403 160 Z " /><path fill="rgb(151,138,108)" stroke="rgb(151,138,108)" stroke-width="1" opacity="0.9803921568627451" d="M 103.5 161 L 105 163.5 L 104 164.5 L 105.5 167 Q 102.9 166.2 104 169.5 Q 106.5 171 105 176.5 L 104 176.5 L 103.5 170 L 103 177.5 L 100.5 180 L 99 179.5 L 102 177.5 L 101.5 169 L 99.5 170 L 99.5 169 Q 102.5 169.9 101 165.5 L 97 163.5 L 100.5 162 L 101.5 165 L 103.5 161 Z " /><path fill="rgb(151,138,108)" stroke="rgb(151,138,108)" stroke-width="1" opacity="0.9803921568627451" d="M 425.5 165 L 426.5 167 Q 423.7 167.7 425.5 165 Z " /><path fill="rgb(151,138,108)" stroke="rgb(151,138,108)" stroke-width="1" opacity="0.9803921568627451" d="M 80.5 173 L 83 174 L 84 179.5 L 82 180 L 80.5 173 Z " /><path fill="rgb(151,138,108)" stroke="rgb(151,138,108)" stroke-width="1" opacity="0.9803921568627451" d="M 96.5 178 L 98 190.5 L 95 192.5 L 96.5 178 Z " /><path fill="rgb(151,138,108)" stroke="rgb(151,138,108)" stroke-width="1" opacity="0.9803921568627451" d="M 98.5 181 L 99 185.5 L 98 185.5 L 98.5 181 Z " /><path fill="rgb(151,138,108)" stroke="rgb(151,138,108)" stroke-width="1" opacity="0.9803921568627451" d="M 81 194 L 85 194.5 L 82 195 L 81.5 199 L 79 198.5 L 81 194 Z " /><path fill="rgb(151,138,108)" stroke="rgb(151,138,108)" stroke-width="1" opacity="0.9803921568627451" d="M 86 194 L 90 195.5 Q 91.7 200.3 87.5 199 L 84.5 201 L 85 199.5 L 86 194 Z " /><path fill="rgb(151,138,108)" stroke="rgb(151,138,108)" stroke-width="1" opacity="0.9803921568627451" d="M 103.5 195 L 104 204.5 L 103 204.5 L 103.5 195 Z " /><path fill="rgb(151,138,108)" stroke="rgb(151,138,108)" stroke-width="1" opacity="0.9803921568627451" d="M 96.5 196 L 97 198 L 94 197.5 L 96.5 196 Z " /><path fill="rgb(151,138,108)" stroke="rgb(151,138,108)" stroke-width="1" opacity="0.9803921568627451" d="M 161.5 197 L 162 198.5 Q 159.8 199.7 161 204.5 L 161.5 206 Q 158.8 204.8 160 199.5 L 161.5 197 Z " /><path fill="rgb(151,138,108)" stroke="rgb(151,138,108)" stroke-width="1" opacity="0.9803921568627451" d="M 202.5 197 L 206 198.5 L 206 200.5 Q 208.1 206.3 203.5 205 L 200 206 Q 198.9 203.3 201.5 204 L 203.5 204 L 205 203.5 L 204 200.5 Q 205.1 197.2 202.5 198 L 202.5 197 Z " /><path fill="rgb(151,138,108)" stroke="rgb(151,138,108)" stroke-width="1" opacity="0.9803921568627451" d="M 221.5 197 L 222.5 199 L 221.5 197 Z " /><path fill="rgb(151,138,108)" stroke="rgb(151,138,108)" stroke-width="1" opacity="0.9803921568627451" d="M 231.5 197 L 232.5 199 L 231.5 197 Z " /><path fill="rgb(151,138,108)" stroke="rgb(151,138,108)" stroke-width="1" opacity="0.9803921568627451" d="M 239 197 L 243 198.5 L 240.5 199 Q 237.9 199.7 239 197 Z " /><path fill="rgb(151,138,108)" stroke="rgb(151,138,108)" stroke-width="1" opacity="0.9803921568627451" d="M 258.5 197 Q 263.9 196.1 266 198.5 L 264.5 199 L 262.5 198 L 259.5 199 L 258.5 197 Z " /><path fill="rgb(151,138,108)" stroke="rgb(151,138,108)" stroke-width="1" opacity="0.9803921568627451" d="M 278 197 L 286 197.5 L 281.5 199 L 279.5 199 Q 276.9 199.7 278 197 Z " /><path fill="rgb(151,138,108)" stroke="rgb(151,138,108)" stroke-width="1" opacity="0.9803921568627451" d="M 288.5 197 Q 291 198 290 202.5 L 289 202.5 L 288.5 197 Z " /><path fill="rgb(151,138,108)" stroke="rgb(151,138,108)" stroke-width="1" opacity="0.9803921568627451" d="M 294.5 197 Q 297.5 198.6 296 204 Q 292.3 202.5 293 205.5 L 292 205.5 L 295 198.5 L 294.5 197 Z " /><path fill="rgb(151,138,108)" stroke="rgb(151,138,108)" stroke-width="1" opacity="0.9803921568627451" d="M 193.5 198 Q 197.3 196.8 196 200.5 L 190.5 202 L 189 201.5 L 191.5 200 Q 192.8 202.3 194 199.5 L 193.5 198 Z " /><path fill="rgb(151,138,108)" stroke="rgb(151,138,108)" stroke-width="1" opacity="0.9803921568627451" d="M 207.5 198 L 208.5 200 L 207.5 198 Z " /><path fill="rgb(151,138,108)" stroke="rgb(151,138,108)" stroke-width="1" opacity="0.9803921568627451" d="M 371.5 199 L 374.5 200 L 376.5 199 L 377.5 201 L 375.5 201 L 371.5 202 L 371.5 199 Z " /><path fill="rgb(151,138,108)" stroke="rgb(151,138,108)" stroke-width="1" opacity="0.9803921568627451" d="M 170.5 200 Q 173.5 201.5 170.5 203 L 170.5 200 Z " /><path fill="rgb(151,138,108)" stroke="rgb(151,138,108)" stroke-width="1" opacity="0.9803921568627451" d="M 175.5 200 L 176 204.5 L 174 205.5 L 173 203.5 L 175 203 L 175.5 200 Z " /><path fill="rgb(151,138,108)" stroke="rgb(151,138,108)" stroke-width="1" opacity="0.9803921568627451" d="M 201.5 200 L 202.5 202 L 201.5 200 Z " /><path fill="rgb(151,138,108)" stroke="rgb(151,138,108)" stroke-width="1" opacity="0.9803921568627451" d="M 239.5 200 L 238.5 202 L 239.5 200 Z " /><path fill="rgb(151,138,108)" stroke="rgb(151,138,108)" stroke-width="1" opacity="0.9803921568627451" d="M 355.5 200 L 356 222.5 L 355 222.5 L 355.5 200 Z " /><path fill="rgb(151,138,108)" stroke="rgb(151,138,108)" stroke-width="1" opacity="0.9803921568627451" d="M 368.5 200 L 369 202.5 L 367 205.5 L 367 207.5 L 366.5 209 L 366 207.5 L 366.5 206 L 364 205.5 L 368 204 L 367 201.5 L 368.5 200 Z " /><path fill="rgb(151,138,108)" stroke="rgb(151,138,108)" stroke-width="1" opacity="0.9803921568627451" d="M 259.5 201 L 260.5 203 L 259.5 201 Z " /><path fill="rgb(151,138,108)" stroke="rgb(151,138,108)" stroke-width="1" opacity="0.9803921568627451" d="M 264.5 201 L 266 201.5 L 263.5 203 L 264.5 201 Z " /><path fill="rgb(151,138,108)" stroke="rgb(151,138,108)" stroke-width="1" opacity="0.9803921568627451" d="M 76.5 202 Q 79.1 201.3 78 204 L 73.5 205 L 74.5 203 L 76.5 202 Z " /><path fill="rgb(151,138,108)" stroke="rgb(151,138,108)" stroke-width="1" opacity="0.9803921568627451" d="M 167.5 202 L 169 205.5 L 167 206 L 167.5 202 Z " /><path fill="rgb(151,138,108)" stroke="rgb(151,138,108)" stroke-width="1" opacity="0.9803921568627451" d="M 234.5 202 L 235 203.5 Q 233.8 206.8 230 206 L 230.5 204 L 232.5 204 Q 235 204.7 234.5 202 Z " /><path fill="rgb(151,138,108)" stroke="rgb(151,138,108)" stroke-width="1" opacity="0.9803921568627451" d="M 86.5 203 L 88 203.5 L 85.5 205 L 86.5 203 Z " /><path fill="rgb(151,138,108)" stroke="rgb(151,138,108)" stroke-width="1" opacity="0.9803921568627451" d="M 80.5 204 L 83 204.5 L 79.5 206 L 80.5 204 Z " /><path fill="rgb(151,138,108)" stroke="rgb(151,138,108)" stroke-width="1" opacity="0.9803921568627451" d="M 190.5 204 Q 192.8 203.3 192 205.5 L 190.5 204 Z " /><path fill="rgb(151,138,108)" stroke="rgb(151,138,108)" stroke-width="1" opacity="0.9803921568627451" d="M 193 204 L 196 204.5 L 193.5 206 L 193 204 Z " /><path fill="rgb(151,138,108)" stroke="rgb(151,138,108)" stroke-width="1" opacity="0.9803921568627451" d="M 208 204 L 214.5 204 L 215 206 L 209.5 205 L 208 205.5 L 208 204 Z " /><path fill="rgb(151,138,108)" stroke="rgb(151,138,108)" stroke-width="1" opacity="0.9803921568627451" d="M 219.5 204 L 221.5 205 L 225 204.5 Q 225.9 207.9 220.5 206 L 219.5 204 Z " /><path fill="rgb(151,138,108)" stroke="rgb(151,138,108)" stroke-width="1" opacity="0.9803921568627451" d="M 239 204 L 241.5 205 L 243 204.5 L 243 206 L 239 206 L 239 204 Z " /><path fill="rgb(151,138,108)" stroke="rgb(151,138,108)" stroke-width="1" opacity="0.9803921568627451" d="M 362.5 205 L 364 207.5 L 362 208.5 L 362.5 205 Z " /><path fill="rgb(151,138,108)" stroke="rgb(151,138,108)" stroke-width="1" opacity="0.9803921568627451" d="M 369.5 205 L 370 207 L 375.5 206 L 375.5 207 Q 371.1 205.5 372 208.5 L 369 206.5 L 369.5 205 Z " /><path fill="rgb(151,138,108)" stroke="rgb(151,138,108)" stroke-width="1" opacity="0.9803921568627451" d="M 76.5 206 L 79 207.5 L 75.5 208 L 76.5 206 Z " /><path fill="rgb(151,138,108)" stroke="rgb(151,138,108)" stroke-width="1" opacity="0.9803921568627451" d="M 102.5 207 L 104 212.5 L 102 213.5 L 103 211.5 L 102.5 207 Z " /><path fill="rgb(151,138,108)" stroke="rgb(151,138,108)" stroke-width="1" opacity="0.9803921568627451" d="M 159.5 207 L 158.5 209 L 159.5 207 Z " /><path fill="rgb(151,138,108)" stroke="rgb(151,138,108)" stroke-width="1" opacity="0.9803921568627451" d="M 169.5 207 L 172 207.5 Q 169.9 210.8 169.5 207 Z " /><path fill="rgb(151,138,108)" stroke="rgb(151,138,108)" stroke-width="1" opacity="0.9803921568627451" d="M 202.5 208 Q 207.1 210.3 206 217 Q 203.3 218.1 204 215.5 L 204 213.5 L 202.5 210 L 199 209.5 L 202.5 208 Z " /><path fill="rgb(151,138,108)" stroke="rgb(151,138,108)" stroke-width="1" opacity="0.9803921568627451" d="M 207.5 208 L 208 212.5 L 207 212.5 L 207.5 208 Z " /><path fill="rgb(151,138,108)" stroke="rgb(151,138,108)" stroke-width="1" opacity="0.9803921568627451" d="M 250.5 208 L 254.5 210 Q 257.1 209.3 256 212 L 254 212.5 L 256 216 Q 253.3 217.1 254 214.5 Q 252.8 211.8 251.5 214 L 248 214.5 L 248.5 216 Q 245.5 216.7 247 213 L 250.5 212 L 252.5 212 Q 255.1 212.7 254 210 L 248.5 211 L 250.5 208 Z " /><path fill="rgb(151,138,108)" stroke="rgb(151,138,108)" stroke-width="1" opacity="0.9803921568627451" d="M 260.5 208 L 262.5 208 L 266 209.5 L 261.5 210 L 260 209.5 Q 258.6 214.1 264.5 212 L 263.5 214 L 259 213.5 L 259 211.5 L 260.5 208 Z " /><path fill="rgb(151,138,108)" stroke="rgb(151,138,108)" stroke-width="1" opacity="0.9803921568627451" d="M 74.5 209 L 74 210.5 L 73 215.5 L 73.5 217 L 72 216.5 L 71.5 218 L 70.5 216 Q 73.1 216.8 72 213.5 L 71 210.5 L 72 210.5 L 72.5 212 L 74.5 209 Z " /><path fill="rgb(151,138,108)" stroke="rgb(151,138,108)" stroke-width="1" opacity="0.9803921568627451" d="M 78.5 209 L 79 211 L 81 211.5 L 79 218.5 L 83 221.5 L 83.5 223 L 85 222.5 Q 83.8 225.3 82.5 223 L 78 222 L 77.5 220 L 74.5 221 L 74.5 220 Q 76.8 220.8 76 218.5 L 75.5 217 L 78 218.5 L 77 216.5 L 78 213.5 L 77 210.5 L 78.5 209 Z " /><path fill="rgb(151,138,108)" stroke="rgb(151,138,108)" stroke-width="1" opacity="0.9803921568627451" d="M 95.5 209 Q 99.3 208 98 211 L 96 211.5 L 99 212.5 L 97 213.5 L 99.5 217 L 101 217.5 L 99.5 218 L 97.5 217 L 98 218.5 Q 98.8 220.8 96.5 220 L 94.5 220 L 92 220.5 L 95 221 L 96 223.5 L 94 223.5 Q 94.7 226.1 92 225 Q 94.2 219.4 88.5 221 L 88.5 220 L 92 219.5 L 91.5 218 Q 95.3 218.8 96 216.5 Q 97.1 213.2 94.5 214 Q 93.3 216.3 88.5 215 L 86.5 214 L 83 216.5 L 83.5 215 Q 81.3 215.8 82 213.5 L 85.5 210 L 94.5 210 L 95.5 209 Z " /><path fill="rgb(151,138,108)" stroke="rgb(151,138,108)" stroke-width="1" opacity="0.9803921568627451" d="M 177 209 Q 179.7 207.9 179 210.5 L 178 215 L 184 215 L 184 209.5 L 185 209.5 L 186 215 L 184 215 Q 185.1 217.7 182.5 217 L 179.5 216 L 177 214.5 L 177 209 Z " /><path fill="rgb(151,138,108)" stroke="rgb(151,138,108)" stroke-width="1" opacity="0.9803921568627451" d="M 269.5 209 L 269 210.5 L 268.5 213 L 268 210.5 L 269.5 209 Z " /><path fill="rgb(151,138,108)" stroke="rgb(151,138,108)" stroke-width="1" opacity="0.9803921568627451" d="M 187.5 210 L 190 210.5 Q 187.9 213.8 187.5 210 Z " /><path fill="rgb(151,138,108)" stroke="rgb(151,138,108)" stroke-width="1" opacity="0.9803921568627451" d="M 212 210 Q 215 209 214 212 Q 211 213 212 210 Z " /><path fill="rgb(151,138,108)" stroke="rgb(151,138,108)" stroke-width="1" opacity="0.9803921568627451" d="M 320.5 210 L 321 215.5 L 320 218 L 317 216.5 L 319 216.5 Q 317.8 211.3 320.5 210 Z " /><path fill="rgb(151,138,108)" stroke="rgb(151,138,108)" stroke-width="1" opacity="0.9803921568627451" d="M 335.5 210 L 336 215.5 L 335 215.5 L 335.5 210 Z " /><path fill="rgb(151,138,108)" stroke="rgb(151,138,108)" stroke-width="1" opacity="0.9803921568627451" d="M 343.5 210 L 344 212 L 342 211.5 L 343.5 210 Z " /><path fill="rgb(151,138,108)" stroke="rgb(151,138,108)" stroke-width="1" opacity="0.9803921568627451" d="M 139.5 211 L 138.5 213 L 137 212.5 L 139.5 211 Z " /><path fill="rgb(151,138,108)" stroke="rgb(151,138,108)" stroke-width="1" opacity="0.9803921568627451" d="M 142.5 211 L 145 212.5 L 142.5 213 L 141 212.5 L 142.5 211 Z " /><path fill="rgb(151,138,108)" stroke="rgb(151,138,108)" stroke-width="1" opacity="0.9803921568627451" d="M 231.5 211 L 232 212.5 L 232 214.5 Q 232.8 216.8 230.5 216 L 231 212.5 L 231.5 211 Z " /><path fill="rgb(151,138,108)" stroke="rgb(151,138,108)" stroke-width="1" opacity="0.9803921568627451" d="M 194 212 Q 197 210.8 196 214.5 L 195.5 217 Q 193 215.8 194 212 Z " /><path fill="rgb(151,138,108)" stroke="rgb(151,138,108)" stroke-width="1" opacity="0.9803921568627451" d="M 302.5 212 L 302 213.5 Q 302.7 216.1 300 215 Q 298.9 212.3 301.5 213 L 302.5 212 Z " /><path fill="rgb(151,138,108)" stroke="rgb(151,138,108)" stroke-width="1" opacity="0.9803921568627451" d="M 314.5 212 L 315 215.5 L 314 215.5 L 314.5 212 Z " /><path fill="rgb(151,138,108)" stroke="rgb(151,138,108)" stroke-width="1" opacity="0.9803921568627451" d="M 331.5 212 L 334 212.5 L 331.5 213 L 331.5 212 Z " /><path fill="rgb(151,138,108)" stroke="rgb(151,138,108)" stroke-width="1" opacity="0.9803921568627451" d="M 192.5 213 L 191.5 215 L 192.5 213 Z " /><path fill="rgb(151,138,108)" stroke="rgb(151,138,108)" stroke-width="1" opacity="0.9803921568627451" d="M 342.5 213 L 343 214.5 L 342 215.5 L 343.5 218 L 340 216 Q 341.1 219.3 337 218 L 337 216 Q 340.7 217.5 340 214.5 L 342 214.5 L 342.5 213 Z " /><path fill="rgb(151,138,108)" stroke="rgb(151,138,108)" stroke-width="1" opacity="0.9803921568627451" d="M 199.5 214 L 200 216.5 L 199 216.5 L 199.5 214 Z " /><path fill="rgb(151,138,108)" stroke="rgb(151,138,108)" stroke-width="1" opacity="0.9803921568627451" d="M 207.5 214 L 208 216.5 L 207 216.5 L 207.5 214 Z " /><path fill="rgb(151,138,108)" stroke="rgb(151,138,108)" stroke-width="1" opacity="0.9803921568627451" d="M 273.5 214 Q 275.8 213.3 275 215.5 L 273.5 214 Z " /><path fill="rgb(151,138,108)" stroke="rgb(151,138,108)" stroke-width="1" opacity="0.9803921568627451" d="M 276.5 214 L 277 216.5 L 275 217.5 L 276.5 214 Z " /><path fill="rgb(151,138,108)" stroke="rgb(151,138,108)" stroke-width="1" opacity="0.9803921568627451" d="M 157.5 215 Q 162.3 213.7 161 217 Q 156.8 217.1 157.5 215 Z " /><path fill="rgb(151,138,108)" stroke="rgb(151,138,108)" stroke-width="1" opacity="0.9803921568627451" d="M 169 215 L 173 215 L 173 216.5 L 170.5 217 Q 167.9 217.7 169 215 Z " /><path fill="rgb(151,138,108)" stroke="rgb(151,138,108)" stroke-width="1" opacity="0.9803921568627451" d="M 327.5 215 L 331 216 L 331 218 L 325 218 L 325.5 216 L 328.5 217 L 328.5 216 L 327.5 215 Z " /><path fill="rgb(151,138,108)" stroke="rgb(151,138,108)" stroke-width="1" opacity="0.9803921568627451" d="M 364.5 215 L 364.5 218 Q 362.3 218.8 363 216.5 L 364.5 215 Z " /><path fill="rgb(151,138,108)" stroke="rgb(151,138,108)" stroke-width="1" opacity="0.9803921568627451" d="M 262.5 216 L 261.5 218 L 262.5 216 Z " /><path fill="rgb(151,138,108)" stroke="rgb(151,138,108)" stroke-width="1" opacity="0.9803921568627451" d="M 297.5 216 L 302 217.5 L 298.5 218 L 297.5 216 Z " /><path fill="rgb(151,138,108)" stroke="rgb(151,138,108)" stroke-width="1" opacity="0.9803921568627451" d="M 308 216 L 311.5 217 L 313 216.5 L 313 218 L 308 218 L 308 216 Z " /><path fill="rgb(151,138,108)" stroke="rgb(151,138,108)" stroke-width="1" opacity="0.9803921568627451" d="M 379.5 216 L 378.5 218 L 379.5 216 Z " /><path fill="rgb(151,138,108)" stroke="rgb(151,138,108)" stroke-width="1" opacity="0.9803921568627451" d="M 360.5 218 L 361 224.5 L 359 223.5 L 360.5 218 Z " /><path fill="rgb(151,138,108)" stroke="rgb(151,138,108)" stroke-width="1" opacity="0.9803921568627451" d="M 84.5 219 L 85.5 221 L 84.5 219 Z " /><path fill="rgb(151,138,108)" stroke="rgb(151,138,108)" stroke-width="1" opacity="0.9803921568627451" d="M 163.5 219 L 162.5 221 L 163.5 219 Z " /><path fill="rgb(151,138,108)" stroke="rgb(151,138,108)" stroke-width="1" opacity="0.9803921568627451" d="M 180.5 219 L 181 226.5 L 179 227.5 L 180.5 219 Z " /><path fill="rgb(151,138,108)" stroke="rgb(151,138,108)" stroke-width="1" opacity="0.9803921568627451" d="M 219 219 L 223 219 L 223 220.5 L 220.5 221 Q 217.9 221.7 219 219 Z " /><path fill="rgb(151,138,108)" stroke="rgb(151,138,108)" stroke-width="1" opacity="0.9803921568627451" d="M 228.5 219 L 230 219.5 L 227.5 221 L 228.5 219 Z " /><path fill="rgb(151,138,108)" stroke="rgb(151,138,108)" stroke-width="1" opacity="0.9803921568627451" d="M 251.5 219 L 251 220.5 Q 251.8 222.8 249.5 222 L 251.5 219 Z " /><path fill="rgb(151,138,108)" stroke="rgb(151,138,108)" stroke-width="1" opacity="0.9803921568627451" d="M 260.5 219 L 264 219.5 L 260.5 220 L 260.5 219 Z " /><path fill="rgb(151,138,108)" stroke="rgb(151,138,108)" stroke-width="1" opacity="0.9803921568627451" d="M 270.5 219 L 271 220.5 L 270 223 Q 266.7 224.1 268 220 L 270.5 219 Z " /><path fill="rgb(151,138,108)" stroke="rgb(151,138,108)" stroke-width="1" opacity="0.9803921568627451" d="M 272.5 219 L 276 220.5 L 273.5 221 L 272.5 219 Z " /><path fill="rgb(151,138,108)" stroke="rgb(151,138,108)" stroke-width="1" opacity="0.9803921568627451" d="M 280.5 219 L 281 221 L 279 221.5 L 279.5 223 Q 277.3 223.8 278 221.5 L 280.5 219 Z " /><path fill="rgb(151,138,108)" stroke="rgb(151,138,108)" stroke-width="1" opacity="0.9803921568627451" d="M 282.5 219 L 286 220.5 L 283.5 221 L 282.5 219 Z " /><path fill="rgb(151,138,108)" stroke="rgb(151,138,108)" stroke-width="1" opacity="0.9803921568627451" d="M 366.5 219 L 365.5 221 L 366.5 219 Z " /><path fill="rgb(151,138,108)" stroke="rgb(151,138,108)" stroke-width="1" opacity="0.9803921568627451" d="M 72.5 220 Q 74.9 223.3 74 229 L 78.5 230 L 85 229 Q 84.2 234 87.5 236 L 98 240.5 L 95 241.5 L 97 243.5 L 97 252.5 L 97 254.5 L 96 258 L 84.5 258 L 82.5 259 Q 80 258 81 253.5 Q 84 252.5 83 247.5 L 81.5 245 L 90.5 245 L 91.5 244 Q 92.8 246.2 94 243.5 Q 95.3 239.8 91.5 241 L 82 235.5 L 82.5 234 L 75.5 233 L 72 234 L 71 229.5 L 72 228.5 L 72.5 220 Z " /><path fill="rgb(151,138,108)" stroke="rgb(151,138,108)" stroke-width="1" opacity="0.9803921568627451" d="M 158.5 220 L 159.5 222 L 158.5 220 Z " /><path fill="rgb(151,138,108)" stroke="rgb(151,138,108)" stroke-width="1" opacity="0.9803921568627451" d="M 194 220 L 196 220.5 L 196 222.5 L 196 226 L 194 226 Q 195.1 228.7 192.5 228 L 190.5 228 Q 188.3 228.8 189 226.5 L 191.5 226 L 194 226 L 194 220 Z " /><path fill="rgb(151,138,108)" stroke="rgb(151,138,108)" stroke-width="1" opacity="0.9803921568627451" d="M 197.5 220 Q 200.3 221.2 198 222.5 L 197.5 224 L 197 222.5 L 197.5 220 Z " /><path fill="rgb(151,138,108)" stroke="rgb(151,138,108)" stroke-width="1" opacity="0.9803921568627451" d="M 204.5 220 L 206 226 L 202 228 Q 201 225 204 226 L 204 223.5 L 204 221.5 L 204.5 220 Z " /><path fill="rgb(151,138,108)" stroke="rgb(151,138,108)" stroke-width="1" opacity="0.9803921568627451" d="M 291.5 220 Q 293.8 219.3 293 221.5 L 291.5 220 Z " /><path fill="rgb(151,138,108)" stroke="rgb(151,138,108)" stroke-width="1" opacity="0.9803921568627451" d="M 294.5 221 L 296 225.5 L 293.5 229 L 294 227.5 L 295 225.5 L 294.5 221 Z " /><path fill="rgb(151,138,108)" stroke="rgb(151,138,108)" stroke-width="1" opacity="0.9803921568627451" d="M 187.5 222 L 188 224.5 L 187 224.5 L 187.5 222 Z " /><path fill="rgb(151,138,108)" stroke="rgb(151,138,108)" stroke-width="1" opacity="0.9803921568627451" d="M 207.5 222 L 208 225.5 L 207 225.5 L 207.5 222 Z " /><path fill="rgb(151,138,108)" stroke="rgb(151,138,108)" stroke-width="1" opacity="0.9803921568627451" d="M 209.5 222 Q 213.3 221.3 214 223.5 L 212.5 223 Q 208.5 223.8 209.5 222 Z " /><path fill="rgb(151,138,108)" stroke="rgb(151,138,108)" stroke-width="1" opacity="0.9803921568627451" d="M 218.5 222 L 221 222.5 L 218.5 223 L 218.5 222 Z " /><path fill="rgb(151,138,108)" stroke="rgb(151,138,108)" stroke-width="1" opacity="0.9803921568627451" d="M 370.5 222 L 371.5 224 L 370.5 222 Z " /><path fill="rgb(151,138,108)" stroke="rgb(151,138,108)" stroke-width="1" opacity="0.9803921568627451" d="M 86.5 223 L 87.5 225 L 89 224.5 Q 88.3 226.8 90.5 226 Q 91.7 228.2 96.5 227 L 98.5 229 L 100 228.5 L 99 230.5 L 101 231.5 L 97.5 236 L 94.5 237 L 94 233.5 L 94.5 231 Q 97.8 229.9 97 232.5 L 98 232.5 L 96.5 229 L 94.5 230 L 94 228 Q 91.9 229.6 86.5 229 L 88 226.5 L 86.5 225 L 85 224.5 L 86.5 223 Z " /><path fill="rgb(151,138,108)" stroke="rgb(151,138,108)" stroke-width="1" opacity="0.9803921568627451" d="M 241.5 223 L 245 224.5 L 242.5 225 L 241.5 223 Z " /><path fill="rgb(151,138,108)" stroke="rgb(151,138,108)" stroke-width="1" opacity="0.9803921568627451" d="M 264.5 223 L 265.5 225 L 264.5 223 Z " /><path fill="rgb(151,138,108)" stroke="rgb(151,138,108)" stroke-width="1" opacity="0.9803921568627451" d="M 289.5 223 L 292 224 Q 293.1 226.7 290.5 226 L 288 225.5 L 289.5 223 Z " /><path fill="rgb(151,138,108)" stroke="rgb(151,138,108)" stroke-width="1" opacity="0.9803921568627451" d="M 168.5 224 L 167.5 226 L 168.5 224 Z " /><path fill="rgb(151,138,108)" stroke="rgb(151,138,108)" stroke-width="1" opacity="0.9803921568627451" d="M 357.5 224 L 358.5 226 L 357.5 224 Z " /><path fill="rgb(151,138,108)" stroke="rgb(151,138,108)" stroke-width="1" opacity="0.9803921568627451" d="M 286.5 225 L 284.5 228 L 286.5 225 Z " /><path fill="rgb(151,138,108)" stroke="rgb(151,138,108)" stroke-width="1" opacity="0.9803921568627451" d="M 169.5 226 L 170.5 228 L 168 227.5 L 169.5 226 Z " /><path fill="rgb(151,138,108)" stroke="rgb(151,138,108)" stroke-width="1" opacity="0.9803921568627451" d="M 199.5 226 L 200.5 228 Q 197.7 228.7 199.5 226 Z " /><path fill="rgb(151,138,108)" stroke="rgb(151,138,108)" stroke-width="1" opacity="0.9803921568627451" d="M 214.5 226 L 213.5 228 L 214.5 226 Z " /><path fill="rgb(151,138,108)" stroke="rgb(151,138,108)" stroke-width="1" opacity="0.9803921568627451" d="M 253.5 227 L 252.5 229 L 253.5 227 Z " /><path fill="rgb(151,138,108)" stroke="rgb(151,138,108)" stroke-width="1" opacity="0.9803921568627451" d="M 262.5 227 L 265 227.5 Q 262.9 230.8 262.5 227 Z " /><path fill="rgb(151,138,108)" stroke="rgb(151,138,108)" stroke-width="1" opacity="0.9803921568627451" d="M 73.5 237 L 75 237.5 L 74 238.5 L 72.5 270 L 71.5 253 Q 70.3 255.2 69 252.5 L 69.5 249 L 70.5 253 L 73 246.5 L 72 241.5 L 73 239.5 Q 70.8 238.2 73.5 237 Z " /><path fill="rgb(151,138,108)" stroke="rgb(151,138,108)" stroke-width="1" opacity="0.9803921568627451" d="M 103.5 242 L 105 244.5 L 103.5 249 L 103 245.5 L 103 243.5 L 103.5 242 Z " /><path fill="rgb(151,138,108)" stroke="rgb(151,138,108)" stroke-width="1" opacity="0.9803921568627451" d="M 400 244 L 402 244.5 L 400 245.5 L 400 244 Z " /><path fill="rgb(151,138,108)" stroke="rgb(151,138,108)" stroke-width="1" opacity="0.9803921568627451" d="M 76.5 245 L 79 250.5 L 80 259.5 L 79 262.5 L 76.5 266 L 76.5 245 Z " /><path fill="rgb(151,138,108)" stroke="rgb(151,138,108)" stroke-width="1" opacity="0.9803921568627451" d="M 105.5 258 L 107 260.5 L 105 259.5 L 105.5 258 Z " /><path fill="rgb(151,138,108)" stroke="rgb(151,138,108)" stroke-width="1" opacity="0.9803921568627451" d="M 107.5 262 L 108.5 264 L 107.5 262 Z " /><path fill="rgb(151,138,108)" stroke="rgb(151,138,108)" stroke-width="1" opacity="0.9803921568627451" d="M 160.5 262 L 167.5 263 Q 169.2 260.3 175.5 262 L 177.5 262 L 181.5 263 L 186.5 262 L 188.5 262 L 193.5 263 L 195.5 262 L 198.5 263 L 208.5 263 L 209.5 262 L 210.5 263 L 287.5 263 L 292.5 264 L 295.5 263 L 296.5 264 L 343 264.5 L 253.5 265 Q 252.2 262.8 247.5 264 L 243.5 264 L 241.5 265 L 239.5 265 Q 233.2 266.8 231.5 264 L 177.5 264 L 173.5 265 L 170.5 264 L 167.5 265 L 166.5 264 L 152.5 264 Q 151 266.5 145.5 265 L 143.5 265 L 120 264.5 L 133.5 264 L 134.5 263 L 159.5 263 L 160.5 262 Z " /><path fill="rgb(151,138,108)" stroke="rgb(151,138,108)" stroke-width="1" opacity="0.9803921568627451" d="M 353.5 264 L 355.5 265 L 423.5 265 L 425.5 266 L 430 265 Q 429.3 268.4 432 269.5 L 430.5 270 L 429.5 269 L 136.5 269 L 135.5 268 L 110.5 268 L 109 266.5 L 116.5 266 L 117.5 267 L 401.5 267 L 401.5 266 L 344 265.5 L 352.5 265 L 353.5 264 Z " /><path fill="rgb(151,138,108)" stroke="rgb(151,138,108)" stroke-width="1" opacity="0.9803921568627451" d="M 97.5 266 L 99 266.5 L 96.5 268 L 97.5 266 Z " /><path fill="rgb(151,138,108)" stroke="rgb(151,138,108)" stroke-width="1" opacity="0.9803921568627451" d="M 77.5 267 L 80 267.5 L 77 269.5 L 77.5 267 Z " /><path fill="rgb(151,138,108)" stroke="rgb(151,138,108)" stroke-width="1" opacity="0.9803921568627451" d="M 87.5 267 L 92 269.5 L 89.5 270 L 87.5 269 L 84.5 270 L 85.5 268 L 87.5 267 Z " /><path fill="rgb(151,138,108)" stroke="rgb(151,138,108)" stroke-width="1" opacity="0.9803921568627451" d="M 101.5 267 Q 104.1 266.3 103 269 L 100 268.5 L 101.5 267 Z " /><path fill="rgb(151,138,108)" stroke="rgb(151,138,108)" stroke-width="1" opacity="0.9803921568627451" d="M 103.5 270 L 106 270.5 L 103.5 271 L 103.5 270 Z " /><path fill="rgb(151,138,108)" stroke="rgb(151,138,108)" stroke-width="1" opacity="0.9803921568627451" d="M 126.5 270 L 157 270.5 L 126.5 271 L 126.5 270 Z " /><path fill="rgb(151,138,108)" stroke="rgb(151,138,108)" stroke-width="1" opacity="0.9803921568627451" d="M 111.5 271 L 115 271.5 L 111.5 272 L 111.5 271 Z " /><path fill="rgb(151,138,108)" stroke="rgb(151,138,108)" stroke-width="1" opacity="0.9803921568627451" d="M 215.5 271 L 274 271.5 L 215.5 272 L 215.5 271 Z " /><path fill="rgb(151,138,108)" stroke="rgb(151,138,108)" stroke-width="1" opacity="0.9803921568627451" d="M 310.5 271 L 424 271.5 L 310.5 272 L 310.5 271 Z " /><path fill="rgb(151,138,108)" stroke="rgb(151,138,108)" stroke-width="1" opacity="0.9803921568627451" d="M 145.5 272 L 191.5 272 L 192.5 274 L 253.5 274 L 254.5 273 L 409.5 273 L 409.5 274 L 120.5 275 L 117.5 274 L 114.5 275 L 111.5 274 L 107.5 275 L 108.5 273 L 144.5 273 L 145.5 272 Z " /><path fill="rgb(151,138,108)" stroke="rgb(151,138,108)" stroke-width="1" opacity="0.9803921568627451" d="M 418.5 273 L 424 273.5 L 418.5 274 L 418.5 273 Z " /><path fill="rgb(151,138,108)" stroke="rgb(151,138,108)" stroke-width="1" opacity="0.9803921568627451" d="M 96.5 274 L 101 274.5 L 96.5 275 L 96.5 274 Z " /><path fill="rgb(151,138,108)" stroke="rgb(151,138,108)" stroke-width="1" opacity="0.9803921568627451" d="M 79.5 280 L 80.5 282 L 79.5 280 Z " /><path fill="rgb(151,138,108)" stroke="rgb(151,138,108)" stroke-width="1" opacity="0.9803921568627451" d="M 281.5 356 L 282.5 358 L 281.5 356 Z " /><path fill="rgb(151,138,108)" stroke="rgb(151,138,108)" stroke-width="1" opacity="0.9803921568627451" d="M 289.5 361 L 290.5 363 L 289.5 361 Z " /><path fill="rgb(151,138,108)" stroke="rgb(151,138,108)" stroke-width="1" opacity="0.9803921568627451" d="M 321.5 382 L 323 386.5 L 319 389.5 L 319.5 391 Q 316.2 392.1 317 389.5 L 321.5 382 Z " /><path fill="rgb(223,224,215)" stroke="rgb(223,224,215)" stroke-width="1" opacity="0.9764705882352941" d="M 75.5 154 L 115 154.5 L 75.5 155 L 75.5 154 Z " /><path fill="rgb(223,224,215)" stroke="rgb(223,224,215)" stroke-width="1" opacity="0.9764705882352941" d="M 254.5 154 L 279 154.5 L 254.5 155 L 254.5 154 Z " /><path fill="rgb(223,224,215)" stroke="rgb(223,224,215)" stroke-width="1" opacity="0.9764705882352941" d="M 120.5 155 L 229 155.5 L 120.5 156 L 120.5 155 Z " /><path fill="rgb(223,224,215)" stroke="rgb(223,224,215)" stroke-width="1" opacity="0.9764705882352941" d="M 287.5 155 L 349 155.5 L 312.5 156 L 311.5 157 L 259.5 157 L 259.5 156 L 286.5 156 L 287.5 155 Z " /><path fill="rgb(223,224,215)" stroke="rgb(223,224,215)" stroke-width="1" opacity="0.9764705882352941" d="M 104.5 156 L 107.5 157 L 110.5 156 L 110.5 157 L 107.5 158 L 104.5 157 L 104.5 156 Z " /><path fill="rgb(223,224,215)" stroke="rgb(223,224,215)" stroke-width="1" opacity="0.9764705882352941" d="M 376.5 156 L 434 156.5 L 376.5 157 L 376.5 156 Z " /><path fill="rgb(223,224,215)" stroke="rgb(223,224,215)" stroke-width="1" opacity="0.9764705882352941" d="M 337.5 157 L 341 157.5 L 337.5 158 L 337.5 157 Z " /><path fill="rgb(223,224,215)" stroke="rgb(223,224,215)" stroke-width="1" opacity="0.9764705882352941" d="M 343.5 157 L 358 157.5 L 343.5 158 L 343.5 157 Z " /><path fill="rgb(223,224,215)" stroke="rgb(223,224,215)" stroke-width="1" opacity="0.9764705882352941" d="M 435.5 157 L 437 160.5 Q 433.1 162.1 434 168.5 L 435 169.5 L 435 179.5 L 434 179.5 L 433 164.5 L 436 158.5 L 435.5 157 Z " /><path fill="rgb(223,224,215)" stroke="rgb(223,224,215)" stroke-width="1" opacity="0.9764705882352941" d="M 112.5 161 L 125.5 162 L 126.5 163 L 131.5 162 L 132.5 163 L 278.5 163 L 279.5 164 L 280.5 163 L 294.5 163 L 296.5 163 Q 302 161.5 303.5 164 L 412.5 164 L 413.5 165 L 418.5 164 L 423 166 L 424 168.5 L 422.5 170 L 416.5 170 L 414.5 172 L 406.5 173 L 405 174.5 L 408 175.5 L 405 176 Q 403.9 178.7 406.5 178 L 408 177.5 Q 409.1 180.8 406.5 180 L 406.5 181 Q 410.9 179.5 410 182.5 L 409.5 184 L 413.5 183 L 414 186 L 418 185 L 419 191.5 L 417 192 L 417 189 L 408 189 L 408 193 L 409.5 193 L 413.5 192 L 413.5 193 L 401.5 196 L 400 195.5 L 401 198.5 L 399.5 198 L 396 198.5 L 400 200.5 L 390 203.5 Q 391.3 206.3 392.5 204 Q 397.9 202.1 397 205.5 L 394 207.5 L 398 210 Q 396.8 207 400.5 208 L 402.5 207 L 405 208.5 L 402 210.5 L 404.5 212 Q 407.5 208.1 414 209 L 415.5 212 L 417.5 209 Q 422 210 421 216.5 L 420 221 L 416 221 L 416 222.5 L 415.5 225 L 409 225.5 L 412.5 227 L 415.5 226 L 416.5 228 Q 410.8 227.3 408 229.5 L 413 230.5 Q 411.6 233.3 407 232 Q 408.1 235.3 404 234 Q 405.1 231.3 402.5 232 L 399 234.5 L 407.5 237 L 409.5 236 L 411.5 240 L 412 238 L 414.5 237 L 416.5 238 Q 418.2 234.3 420 237.5 Q 421.4 242.1 415.5 240 L 416.5 242 L 418.5 242 Q 421.1 241.3 420 244 L 416.5 245 L 414.5 244 L 406 245.5 Q 408.7 248.3 415.5 247 L 419.5 246 Q 422.5 247.5 421 253.5 L 418.5 256 L 400 256 L 399.5 258 L 379.5 258 L 379.5 260 L 377 259.5 L 377.5 258 L 367.5 260 L 332.5 260 L 327.5 259 L 326.5 260 L 317.5 260 L 313.5 259 L 312 259.5 L 311.5 257 L 311 260 L 306.5 259 L 305.5 260 L 281.5 260 L 279.5 260 L 262.5 260 L 260.5 259 L 256.5 259 L 254.5 258 L 254 260 L 247.5 259 Q 246.3 261.3 241.5 260 L 239.5 260 L 237.5 259 L 217.5 259 L 216.5 258 L 215.5 259 L 194.5 259 L 191.5 258 L 189.5 258 L 185.5 259 L 182.5 258 L 180.5 259 L 179.5 258 L 171.5 258 L 169.5 258 L 158.5 259 L 157.5 258 L 144.5 258 L 137.5 260 L 135.5 260 L 126.5 260 L 125.5 262 L 117.5 262 L 111.5 260 L 112.5 262 L 118 263.5 L 109.5 264 Q 107.3 263.3 108 259.5 Q 110.5 258 107 256.5 Q 108.3 251.8 106 250.5 Q 109.1 248.8 107.5 247 L 109 247.5 Q 109.8 244.9 106.5 246 L 106.5 244 Q 103.9 244.8 105 241.5 L 103 239.5 L 104.5 237 Q 101.1 237.9 103 232.5 Q 106.2 229.2 105 221.5 L 103 221.5 L 105 219.5 L 105 169.5 L 109.5 162 L 112.5 161 Z M 401 177 Q 400 180 404 179 Q 405 176 401 177 Z M 405 190 L 402 191 Q 401 195 406 193 L 405 190 Z M 158 196 L 157 198 L 160 199 L 160 206 L 162 206 L 162 198 Q 166 199 165 197 L 162 197 L 160 196 L 158 196 Z M 168 196 L 167 206 L 169 206 L 171 203 L 176 206 Q 177 200 175 196 L 174 203 Q 171 204 172 200 L 170 200 L 170 202 Q 170 197 168 196 Z M 289 196 L 288 204 L 292 206 L 295 205 Q 298 203 296 197 Q 292 196 294 203 L 292 204 L 289 196 Z M 188 197 Q 187 199 193 198 L 194 200 Q 188 198 189 202 L 195 201 Q 197 202 196 198 Q 194 196 188 197 Z M 200 197 L 199 198 Q 196 197 197 200 L 204 204 L 199 204 Q 198 208 205 206 Q 208 204 206 199 Q 205 196 200 197 Z M 210 197 Q 209 199 212 198 Q 213 200 214 198 L 210 197 Z M 219 197 L 217 200 L 224 199 L 225 201 L 225 198 L 219 197 Z M 229 197 L 227 199 Q 225 204 229 206 L 235 205 Q 236 201 234 202 L 234 204 L 230 204 L 231 202 Q 234 203 233 200 L 228 200 L 231 199 L 233 199 Q 234 195 229 197 Z M 237 197 Q 237 200 239 198 L 241 199 L 244 198 L 237 197 Z M 258 197 L 258 199 L 264 200 L 259 202 Q 260 204 265 204 L 262 205 L 259 204 L 258 206 L 266 206 L 266 199 L 265 197 L 258 197 Z M 278 197 L 278 199 L 285 200 L 283 200 Q 279 201 280 207 L 282 206 L 281 204 L 286 201 L 286 197 L 278 197 Z M 356 197 L 355 226 Q 356 228 358 226 L 361 227 L 361 217 L 362 216 Q 363 212 359 214 L 359 224 L 358 212 L 358 210 L 357 200 L 359 201 L 359 210 L 363 209 Q 361 214 365 216 L 367 216 Q 365 214 366 210 L 372 206 L 372 207 Q 369 206 370 209 L 368 209 L 369 216 L 374 216 Q 373 213 372 215 L 370 211 Q 372 207 377 208 Q 378 205 374 206 L 374 205 L 380 205 L 380 201 L 381 199 Q 369 197 365 202 L 365 204 L 364 204 L 362 207 L 361 203 L 361 201 L 360 198 L 359 198 L 356 197 Z M 207 198 Q 206 201 209 200 Q 210 197 207 198 Z M 215 198 Q 215 201 212 200 L 212 202 L 215 201 L 215 198 Z M 245 198 L 244 201 L 245 201 L 245 198 Z M 137 200 L 138 202 L 141 201 L 145 202 L 145 200 L 137 200 Z M 223 200 Q 221 203 224 202 L 223 200 Z M 240 200 L 239 202 L 244 202 Q 243 199 240 200 Z M 211 202 L 207 204 L 208 206 L 215 206 Q 216 203 212 204 L 212 203 L 211 202 Z M 221 202 L 217 204 L 218 206 L 225 206 Q 226 203 222 204 L 222 203 L 221 202 Z M 245 202 L 244 205 L 245 205 L 245 202 Z M 187 204 L 187 206 L 196 205 L 196 204 L 193 205 L 187 204 Z M 238 204 L 236 206 L 243 206 Q 244 202 238 204 Z M 273 204 L 271 206 L 273 206 L 273 204 Z M 159 207 L 157 208 L 157 210 Q 155 216 163 213 L 164 216 L 165 216 Q 166 211 164 212 L 162 212 L 158 211 L 158 209 L 165 209 L 165 208 L 164 208 L 159 207 Z M 169 207 Q 168 210 172 209 Q 173 211 174 209 Q 173 206 169 207 Z M 180 207 Q 179 210 177 210 L 177 216 L 180 217 L 186 216 L 186 210 L 184 209 L 184 208 L 180 207 Z M 202 208 L 199 210 Q 196 209 197 213 L 197 215 L 198 217 Q 201 218 200 215 L 203 214 L 204 217 L 206 217 L 206 210 L 202 208 Z M 207 208 L 207 217 L 210 217 L 209 214 L 209 212 L 214 212 L 214 210 L 209 210 Q 210 207 207 208 Z M 231 208 L 228 209 Q 227 212 230 211 L 230 215 Q 227 214 228 217 L 233 218 Q 231 216 232 210 L 231 208 Z M 249 208 L 249 210 L 254 210 L 254 212 L 249 212 L 248 209 L 247 216 Q 250 217 249 214 L 254 215 L 251 216 Q 248 215 249 218 L 254 218 Q 253 215 256 216 L 256 211 Q 255 207 249 208 Z M 259 208 L 258 214 L 264 214 L 264 216 L 257 217 Q 259 220 265 218 L 266 214 Q 265 211 260 212 L 260 210 L 266 210 Q 267 206 261 208 L 259 208 Z M 268 208 L 268 217 L 270 218 L 271 216 L 270 214 Q 272 207 268 208 Z M 276 208 L 275 214 Q 272 215 273 212 L 271 213 L 274 216 Q 276 215 275 218 L 277 218 Q 278 211 276 208 Z M 280 208 L 278 212 L 278 214 Q 277 217 280 218 L 280 212 L 283 213 Q 287 212 285 218 L 287 217 L 285 212 L 285 210 L 280 210 L 280 208 Z M 300 208 L 299 209 Q 296 208 297 211 L 300 210 Q 303 209 304 212 L 299 215 Q 300 217 297 216 L 297 218 L 305 218 L 305 216 L 301 216 L 304 214 Q 306 213 305 209 L 300 208 Z M 309 208 L 306 211 L 306 213 L 307 217 Q 308 219 313 218 Q 314 214 309 216 L 308 212 Q 307 208 312 210 Q 314 211 312 213 L 313 216 Q 317 217 315 211 Q 314 207 309 208 Z M 320 208 L 317 211 L 319 211 L 319 216 Q 316 215 317 218 L 323 218 L 321 216 Q 322 209 320 208 Z M 328 208 L 327 209 Q 324 208 325 211 L 328 210 Q 333 208 332 212 L 329 214 Q 326 213 327 216 L 325 216 L 325 218 L 334 218 Q 333 215 330 216 L 330 215 L 332 215 Q 331 212 334 213 L 334 211 Q 333 207 328 208 Z M 338 208 L 337 210 L 342 210 L 342 214 L 339 213 L 340 216 L 338 216 L 337 212 Q 338 209 335 210 Q 334 216 338 218 Q 342 219 341 217 L 342 217 Q 341 219 344 218 L 343 216 L 344 211 Q 343 208 340 208 L 338 208 Z M 141 209 Q 141 213 136 211 Q 135 215 140 213 L 141 215 Q 142 212 145 213 Q 146 209 141 211 L 141 209 Z M 168 209 L 167 216 L 171 217 L 173 217 L 173 215 L 169 215 Q 170 210 168 209 Z M 175 209 L 174 216 L 176 215 L 175 209 Z M 187 210 L 187 217 L 190 217 L 189 213 L 190 211 L 191 215 Q 194 216 193 213 L 194 213 Q 192 218 196 217 Q 197 212 194 210 L 192 211 L 187 210 Z M 215 212 Q 212 218 216 217 L 215 212 Z M 157 215 Q 156 218 161 217 L 163 217 Q 163 213 157 215 Z M 240 216 L 240 218 L 242 217 L 240 216 Z M 362 216 L 362 220 L 365 220 L 371 225 L 379 225 L 380 226 L 380 224 L 378 223 L 374 224 L 362 216 Z M 368 216 L 367 218 Q 370 221 377 221 L 380 222 L 381 221 L 380 216 L 378 217 L 376 216 L 373 218 Q 374 220 376 218 L 378 219 L 378 220 L 375 220 L 368 216 Z M 417 216 L 417 219 L 418 219 Q 419 215 417 216 Z M 165 218 L 162 222 L 165 221 L 165 218 Z M 156 219 L 156 221 L 159 222 Q 161 223 160 220 L 156 219 Z M 168 219 Q 165 225 168 227 Q 167 229 171 228 Q 172 225 169 226 Q 170 221 168 219 Z M 175 219 L 173 225 L 176 226 L 175 219 Z M 181 219 Q 178 220 180 222 L 179 227 Q 178 230 184 228 L 184 227 L 182 227 L 182 219 L 181 219 Z M 190 219 L 189 220 L 187 221 L 187 226 L 190 225 L 189 222 L 193 220 Q 195 221 194 226 L 196 226 L 196 220 L 190 219 Z M 200 219 L 200 220 L 204 220 L 200 219 Z M 210 219 L 208 220 L 207 223 L 207 226 Q 210 225 209 228 L 214 228 L 210 227 L 210 224 Q 215 226 214 222 L 209 222 Q 210 219 212 221 L 214 220 L 210 219 Z M 219 219 L 217 223 Q 218 225 224 224 L 224 226 L 225 226 L 225 220 L 219 219 Z M 229 219 L 230 221 L 232 220 Q 234 221 233 226 L 235 226 L 235 220 L 229 219 Z M 251 219 L 249 221 L 250 223 L 249 228 L 254 229 L 252 222 Q 253 218 251 219 Z M 260 219 L 257 220 L 259 227 L 260 225 L 263 224 L 265 226 Q 264 228 259 227 L 259 229 L 265 229 L 266 225 Q 265 221 260 222 L 265 221 Q 266 217 260 219 Z M 271 219 L 268 220 L 269 228 L 275 228 L 270 227 Q 268 222 272 220 L 275 221 L 276 227 L 277 224 L 276 221 Q 275 218 271 219 Z M 281 219 L 280 220 Q 277 219 278 226 L 280 227 Q 278 218 285 221 L 286 227 L 287 224 L 287 222 Q 287 218 283 219 L 281 219 Z M 294 219 L 288 224 L 288 226 L 293 226 Q 292 230 295 229 L 296 226 L 294 219 Z M 198 220 L 197 223 L 197 226 Q 200 225 199 228 L 204 228 Q 205 224 200 226 L 199 222 Q 200 219 198 220 Z M 204 220 L 204 226 L 206 226 L 206 220 L 204 220 Z M 228 220 L 226 222 L 227 225 Q 226 227 229 226 L 228 220 Z M 241 222 L 236 223 Q 235 227 241 225 L 243 225 Q 246 226 245 223 L 241 222 Z M 163 223 L 161 225 L 163 225 L 163 223 Z M 215 224 L 214 227 L 215 227 L 215 224 Z M 398 224 L 398 226 L 400 227 Q 401 223 398 224 Z M 156 225 L 156 227 L 158 228 Q 159 224 156 225 Z M 163 225 L 163 227 L 165 228 Q 166 224 163 225 Z M 189 226 L 189 228 L 194 228 L 194 226 L 189 226 Z M 231 226 L 229 227 L 229 228 Q 234 230 233 227 L 231 226 Z M 219 227 L 219 228 L 223 228 L 219 227 Z M 280 227 L 280 229 Q 284 230 285 228 L 280 227 Z M 402 241 L 401 243 L 404 243 L 402 241 Z M 406 242 L 407 244 Q 408 241 406 242 Z M 400 244 L 402 247 Q 404 248 403 246 L 400 244 Z M 405 245 Q 403 248 406 247 L 405 245 Z " /><path fill="rgb(223,224,215)" stroke="rgb(223,224,215)" stroke-width="1" opacity="0.9764705882352941" d="M 70.5 165 L 71 167.5 L 70 167.5 L 70.5 165 Z " /><path fill="rgb(223,224,215)" stroke="rgb(223,224,215)" stroke-width="1" opacity="0.9764705882352941" d="M 87.5 166 L 96 166.5 L 93.5 168 Q 92.2 165.7 87.5 167 L 87.5 166 Z " /><path fill="rgb(223,224,215)" stroke="rgb(223,224,215)" stroke-width="1" opacity="0.9764705882352941" d="M 69.5 170 L 70 187.5 L 69 187.5 L 69.5 170 Z " /><path fill="rgb(223,224,215)" stroke="rgb(223,224,215)" stroke-width="1" opacity="0.9764705882352941" d="M 84 171 L 93 171.5 L 91.5 174 Q 94.8 172.9 94 175.5 L 95 178.5 L 96 181.5 L 93 189.5 L 90.5 192 L 72 195 Q 70.5 198.7 73.5 198 L 72.5 200 Q 70.3 199.3 71 201.5 L 72.5 201 L 74 201.5 L 70 203 L 71 208.5 L 70 209.5 L 69.5 229 L 69 189.5 L 70 189.5 L 70.5 200 L 71 190 L 74.5 191 L 76 189.5 L 77 180.5 L 78.5 179 L 80 182.5 Q 77.3 183.6 78 187 Q 80.7 188.1 80 185.5 L 82 182 L 85 180.5 Q 83.9 177.2 86.5 178 L 84 174.5 L 84 171 Z " /><path fill="rgb(223,224,215)" stroke="rgb(223,224,215)" stroke-width="1" opacity="0.9764705882352941" d="M 434.5 186 L 435 189.5 L 434 189.5 L 434.5 186 Z " /><path fill="rgb(223,224,215)" stroke="rgb(223,224,215)" stroke-width="1" opacity="0.9764705882352941" d="M 434.5 196 L 435 208.5 L 434 208.5 L 434.5 196 Z " /><path fill="rgb(223,224,215)" stroke="rgb(223,224,215)" stroke-width="1" opacity="0.9764705882352941" d="M 200.5 198 L 204 199.5 Q 202.8 202.3 201.5 200 L 199 199.5 L 200.5 198 Z " /><path fill="rgb(223,224,215)" stroke="rgb(223,224,215)" stroke-width="1" opacity="0.9764705882352941" d="M 372.5 201 L 378 201.5 L 373 202 Q 374.3 205 370.5 204 L 369 204.5 L 372.5 201 Z " /><path fill="rgb(223,224,215)" stroke="rgb(223,224,215)" stroke-width="1" opacity="0.9764705882352941" d="M 367.5 205 L 366.5 207 L 365 206.5 L 367.5 205 Z " /><path fill="rgb(223,224,215)" stroke="rgb(223,224,215)" stroke-width="1" opacity="0.9764705882352941" d="M 180.5 209 L 184 210 Q 186.5 217.5 179 215 Q 177.8 210.4 180.5 209 Z " /><path fill="rgb(223,224,215)" stroke="rgb(223,224,215)" stroke-width="1" opacity="0.9764705882352941" d="M 200.5 210 L 204 211 Q 205.1 213.7 202.5 213 L 199 211.5 L 200.5 210 Z " /><path fill="rgb(223,224,215)" stroke="rgb(223,224,215)" stroke-width="1" opacity="0.9764705882352941" d="M 221.5 220 L 222.5 222 L 218 221.5 L 221.5 220 Z " /><path fill="rgb(223,224,215)" stroke="rgb(223,224,215)" stroke-width="1" opacity="0.9764705882352941" d="M 291.5 222 Q 294.1 221.3 293 224 L 290 223.5 L 291.5 222 Z " /><path fill="rgb(223,224,215)" stroke="rgb(223,224,215)" stroke-width="1" opacity="0.9764705882352941" d="M 418.5 222 L 420 226 Q 416.2 227.2 418.5 222 Z " /><path fill="rgb(223,224,215)" stroke="rgb(223,224,215)" stroke-width="1" opacity="0.9764705882352941" d="M 70.5 231 L 71.5 233 L 70.5 231 Z " /><path fill="rgb(223,224,215)" stroke="rgb(223,224,215)" stroke-width="1" opacity="0.9764705882352941" d="M 434.5 231 L 435 252.5 L 433 262.5 L 436 274 L 434 273.5 L 434.5 272 L 433 271.5 L 435 270.5 L 432 267.5 L 433 266.5 L 431.5 260 L 430 264 L 427.5 265 L 429 262.5 L 431.5 257 L 432.5 259 L 434 252.5 L 434.5 231 Z " /><path fill="rgb(223,224,215)" stroke="rgb(223,224,215)" stroke-width="1" opacity="0.9764705882352941" d="M 70.5 234 L 72 236.5 L 70 237.5 L 70.5 234 Z " /><path fill="rgb(223,224,215)" stroke="rgb(223,224,215)" stroke-width="1" opacity="0.9764705882352941" d="M 75 234 L 79 235.5 L 75.5 237 L 75 234 Z " /><path fill="rgb(223,224,215)" stroke="rgb(223,224,215)" stroke-width="1" opacity="0.9764705882352941" d="M 69.5 240 L 70 244.5 L 69 244.5 L 69.5 240 Z " /><path fill="rgb(223,224,215)" stroke="rgb(223,224,215)" stroke-width="1" opacity="0.9764705882352941" d="M 88.5 241 L 87.5 243 L 88.5 241 Z " /><path fill="rgb(223,224,215)" stroke="rgb(223,224,215)" stroke-width="1" opacity="0.9764705882352941" d="M 68.5 248 Q 68.1 254 72 255.5 L 72 259.5 L 71 259.5 Q 72 253.5 68 252.5 L 68.5 248 Z " /><path fill="rgb(223,224,215)" stroke="rgb(223,224,215)" stroke-width="1" opacity="0.9764705882352941" d="M 411.5 261 L 414 261.5 L 411.5 262 L 411.5 261 Z " /><path fill="rgb(223,224,215)" stroke="rgb(223,224,215)" stroke-width="1" opacity="0.9764705882352941" d="M 108.5 270 L 114 270.5 L 108.5 271 L 108.5 270 Z " /><path fill="rgb(223,224,215)" stroke="rgb(223,224,215)" stroke-width="1" opacity="0.9764705882352941" d="M 121.5 271 L 190 271.5 L 121.5 272 L 121.5 271 Z " /><path fill="rgb(223,224,215)" stroke="rgb(223,224,215)" stroke-width="1" opacity="0.9764705882352941" d="M 208.5 272 L 405 272.5 L 208.5 273 L 208.5 272 Z " /><path fill="rgb(223,224,215)" stroke="rgb(223,224,215)" stroke-width="1" opacity="0.9764705882352941" d="M 406.5 272 L 421 272.5 L 406.5 273 L 406.5 272 Z " /><path fill="rgb(223,224,215)" stroke="rgb(223,224,215)" stroke-width="1" opacity="0.9764705882352941" d="M 83.5 274 L 93 274.5 L 85.5 276 L 83.5 274 Z " /><path fill="rgb(223,224,215)" stroke="rgb(223,224,215)" stroke-width="1" opacity="0.9764705882352941" d="M 325.5 274 L 405 274.5 L 325.5 275 L 325.5 274 Z " /><path fill="rgb(223,224,215)" stroke="rgb(223,224,215)" stroke-width="1" opacity="0.9764705882352941" d="M 279.5 362 L 280.5 364 L 279.5 362 Z " /><path fill="rgb(223,224,215)" stroke="rgb(223,224,215)" stroke-width="1" opacity="0.9764705882352941" d="M 316.5 364 L 319 365.5 L 320 371.5 L 317 369.5 L 318 366.5 L 316.5 366 L 312.5 371 L 310.5 372 L 310 370 L 315 366.5 L 316.5 364 Z " /><path fill="rgb(223,224,215)" stroke="rgb(223,224,215)" stroke-width="1" opacity="0.9764705882352941" d="M 288.5 368 L 289.5 370 L 288.5 368 Z " /><path fill="rgb(223,224,215)" stroke="rgb(223,224,215)" stroke-width="1" opacity="0.9764705882352941" d="M 292.5 371 L 293.5 373 L 292.5 371 Z " /><path fill="rgb(223,224,215)" stroke="rgb(223,224,215)" stroke-width="1" opacity="0.9764705882352941" d="M 325.5 374 L 333 379.5 L 332.5 381 L 332 379 Q 326.4 377.6 325.5 374 Z " /><path fill="rgb(223,224,215)" stroke="rgb(223,224,215)" stroke-width="1" opacity="0.9764705882352941" d="M 299.5 376 L 300.5 378 L 299.5 376 Z " /><path fill="rgb(223,224,215)" stroke="rgb(223,224,215)" stroke-width="1" opacity="0.9764705882352941" d="M 303.5 379 L 306 381.5 Q 305 386.5 308 387.5 L 305 385.5 Q 305.6 380 303.5 379 Z " /><path fill="rgb(223,224,215)" stroke="rgb(223,224,215)" stroke-width="1" opacity="0.9764705882352941" d="M 332.5 383 L 333 384.5 L 328.5 391 L 329 389.5 L 332.5 383 Z " /><path fill="rgb(223,224,215)" stroke="rgb(223,224,215)" stroke-width="1" opacity="0.9764705882352941" d="M 309.5 388 L 313 389.5 L 311.5 390 L 309.5 388 Z " /><path fill="rgb(223,224,215)" stroke="rgb(223,224,215)" stroke-width="1" opacity="0.9764705882352941" d="M 314.5 390 L 322.5 397 L 328 392.5 L 324.5 397 L 321.5 398 L 317 394.5 L 314.5 390 Z " /><path fill="rgb(200,197,171)" stroke="rgb(200,197,171)" stroke-width="1" opacity="0.984313725490196" d="M 78.5 155 L 84 155.5 L 82.5 157 L 75.5 158 L 75.5 157 L 78.5 155 Z " /><path fill="rgb(200,197,171)" stroke="rgb(200,197,171)" stroke-width="1" opacity="0.984313725490196" d="M 104.5 155 L 119.5 155 L 122 156.5 L 111.5 157 L 110.5 158 L 110.5 156 L 108 156.5 L 108.5 158 L 104.5 156 L 104.5 155 Z " /><path fill="rgb(200,197,171)" stroke="rgb(200,197,171)" stroke-width="1" opacity="0.984313725490196" d="M 229.5 155 L 287 155.5 L 259.5 156 L 258.5 157 L 157.5 157 L 157.5 156 L 228.5 156 L 229.5 155 Z " /><path fill="rgb(200,197,171)" stroke="rgb(200,197,171)" stroke-width="1" opacity="0.984313725490196" d="M 99.5 156 L 102 156.5 L 99.5 157 L 99.5 156 Z " /><path fill="rgb(200,197,171)" stroke="rgb(200,197,171)" stroke-width="1" opacity="0.984313725490196" d="M 312.5 156 L 332.5 156 L 337 157.5 L 272.5 158 L 272.5 157 L 311.5 157 L 312.5 156 Z " /><path fill="rgb(200,197,171)" stroke="rgb(200,197,171)" stroke-width="1" opacity="0.984313725490196" d="M 354.5 156 L 402.5 157 L 405 158.5 L 352.5 159 L 352.5 158 L 358 157.5 Q 353.6 157.9 354.5 156 Z " /><path fill="rgb(200,197,171)" stroke="rgb(200,197,171)" stroke-width="1" opacity="0.984313725490196" d="M 425.5 157 L 434.5 157 L 436 158.5 L 434 162.5 L 433.5 164 L 433 162.5 L 434.5 160 L 417.5 160 L 416 158.5 L 424.5 158 L 425.5 157 Z M 430 158 L 430 159 L 435 159 L 430 158 Z " /><path fill="rgb(200,197,171)" stroke="rgb(200,197,171)" stroke-width="1" opacity="0.984313725490196" d="M 407.5 158 L 415 158.5 L 407.5 159 L 407.5 158 Z " /><path fill="rgb(200,197,171)" stroke="rgb(200,197,171)" stroke-width="1" opacity="0.984313725490196" d="M 118.5 159 L 279 159.5 L 118.5 160 L 118.5 159 Z " /><path fill="rgb(200,197,171)" stroke="rgb(200,197,171)" stroke-width="1" opacity="0.984313725490196" d="M 70.5 160 L 72 162.5 Q 69.8 163.8 72.5 165 L 77 166.5 Q 75.8 169 72 168 L 70.5 175 L 70 168.5 L 71 165.5 L 70 163.5 L 71 161.5 L 70.5 160 Z " /><path fill="rgb(200,197,171)" stroke="rgb(200,197,171)" stroke-width="1" opacity="0.984313725490196" d="M 110.5 160 L 111.5 162 Q 108.7 162.7 110.5 160 Z " /><path fill="rgb(200,197,171)" stroke="rgb(200,197,171)" stroke-width="1" opacity="0.984313725490196" d="M 385.5 160 L 397 160.5 L 385.5 161 L 385.5 160 Z " /><path fill="rgb(200,197,171)" stroke="rgb(200,197,171)" stroke-width="1" opacity="0.984313725490196" d="M 398.5 160 L 401 160.5 L 398.5 161 L 398.5 160 Z " /><path fill="rgb(200,197,171)" stroke="rgb(200,197,171)" stroke-width="1" opacity="0.984313725490196" d="M 402.5 160 L 410 160.5 L 402.5 161 L 402.5 160 Z " /><path fill="rgb(200,197,171)" stroke="rgb(200,197,171)" stroke-width="1" opacity="0.984313725490196" d="M 77 161 L 80 162.5 Q 79.3 164.8 81.5 164 Q 84.5 165.5 81.5 167 L 78 168 L 78 164 L 76.5 164 L 75 164.5 Q 74.3 161.9 77 163 L 77 161 Z " /><path fill="rgb(200,197,171)" stroke="rgb(200,197,171)" stroke-width="1" opacity="0.984313725490196" d="M 117.5 161 L 123 161.5 L 117.5 162 L 117.5 161 Z " /><path fill="rgb(200,197,171)" stroke="rgb(200,197,171)" stroke-width="1" opacity="0.984313725490196" d="M 131.5 161 L 132.5 162 L 302.5 162 L 306.5 163 L 308.5 163 L 422.5 163 L 428 165.5 L 433 177.5 L 433.5 185 L 434.5 180 L 435 185.5 L 434 189.5 Q 436.2 190.8 435 195.5 L 434 196.5 L 434 208.5 L 435 209.5 L 435 230.5 L 434 231.5 L 434 252.5 L 432.5 259 L 431.5 257 L 428 263.5 L 430 264 L 431.5 260 L 433 266.5 L 432 267.5 L 434.5 271 L 430 267.5 Q 431.1 264.2 428.5 265 Q 427 262.5 425.5 266 L 423.5 265 L 355.5 265 L 353.5 264 L 352.5 265 L 343.5 265 L 342.5 264 L 296.5 264 L 293.5 263 L 288.5 264 L 287.5 263 L 210.5 263 L 209.5 262 L 208.5 263 L 198.5 263 L 195.5 262 L 191.5 263 L 188.5 262 L 186.5 262 L 181.5 263 L 177.5 262 L 175.5 262 L 162.5 263 L 160.5 262 L 159.5 263 L 134.5 263 L 133.5 264 L 111.5 265 L 111.5 264 L 118 263.5 L 111.5 261 Q 110.2 263.3 109 260.5 L 111.5 260 Q 117.1 263.1 126 262 L 126.5 260 L 135.5 260 L 137.5 260 L 144.5 258 L 157.5 258 Q 159 260.5 164.5 259 L 169.5 258 L 171.5 258 Q 178.3 256.7 181.5 259 L 184.5 258 L 186.5 259 L 189.5 258 L 191.5 258 L 194.5 259 L 215.5 259 L 217.5 259 L 237.5 259 L 239.5 260 L 241.5 260 L 248.5 259 L 254 260 L 254.5 258 L 257.5 260 L 260.5 259 L 262.5 260 L 279.5 260 L 281.5 260 L 305.5 260 L 307.5 259 L 311 260 L 311.5 257 L 312.5 260 L 316.5 259 L 317.5 260 L 326.5 260 L 331.5 259 L 332.5 260 L 367.5 260 L 367.5 258 Q 369 260.5 374.5 259 L 377.5 258 L 377.5 260 L 380 259.5 L 379.5 258 L 399.5 258 L 400.5 256 L 418.5 256 Q 422.5 254.5 421 247.5 Q 420.3 245.3 416.5 246 L 407.5 248 L 407.5 246 L 404 247 L 403.5 245 L 403 247 L 401 246.5 L 406 243.5 Q 404.8 240.8 403.5 243 Q 400.2 244.1 401 241.5 L 403 240.5 L 402.5 242 Q 404.8 242.8 404 240.5 L 405 240.5 Q 404.3 242.8 406.5 242 L 408 241.5 L 406 244.5 L 413.5 245 L 415.5 244 L 417.5 245 L 420 244 Q 421.1 241.3 418.5 242 L 415 240.5 L 420 240 L 418.5 236 L 415.5 238 L 413.5 238 Q 411.3 237.3 412 239.5 L 411 239.5 L 409.5 236 L 406.5 237 L 399 234.5 L 404 232 Q 402.9 235.3 407 234 Q 405.6 230.3 411.5 232 L 412.5 230 L 408 229.5 L 417 227.5 L 413.5 226 L 410.5 227 L 409.5 225 L 416 224.5 L 416 222.5 L 416 221 L 420 221 L 420 217.5 L 421 212.5 L 417.5 209 L 416 210.5 L 415.5 212 L 414 209 Q 407.1 208.2 403.5 212 L 402.5 210 L 405 208.5 L 401.5 207 L 398 208 Q 399.1 210.7 396.5 210 L 394.5 207 L 397 205.5 Q 397.9 202.1 392.5 204 Q 391.3 206.3 390 203.5 L 400 200.5 L 396 198.5 L 400 198 L 400.5 195 L 403.5 196 L 414 192.5 L 410.5 192 L 408 193 L 408 189 L 417 189 Q 415.5 192.8 418.5 192 L 418 190.5 Q 419.3 184.4 416.5 185 L 414 186 L 413.5 183 L 409 184 L 408.5 186 L 408 184 L 406 183.5 L 407.5 183 Q 408.8 185.3 410 182.5 Q 410.9 179.5 406.5 181 L 406.5 180 Q 409.1 180.8 408 177.5 L 406.5 178 Q 403.9 178.7 405 176 L 408 175.5 L 405 174.5 L 406.5 173 L 411.5 173 L 416.5 170 Q 422.5 171.5 424 168.5 L 423 166 Q 420.7 163.4 414.5 164 L 412.5 164 L 303.5 164 Q 302 161.5 296.5 163 L 294.5 163 L 280.5 163 L 279.5 164 L 278.5 163 L 132.5 163 L 131.5 161 Z M 426 165 Q 424 168 427 167 L 426 165 Z M 419 222 Q 416 227 420 226 L 419 222 Z M 412 261 L 412 262 L 414 262 L 412 261 Z " /><path fill="rgb(200,197,171)" stroke="rgb(200,197,171)" stroke-width="1" opacity="0.984313725490196" d="M 107.5 164 L 106.5 166 L 107.5 164 Z " /><path fill="rgb(200,197,171)" stroke="rgb(200,197,171)" stroke-width="1" opacity="0.984313725490196" d="M 432.5 165 L 433 168.5 L 432 168.5 L 432.5 165 Z " /><path fill="rgb(200,197,171)" stroke="rgb(200,197,171)" stroke-width="1" opacity="0.984313725490196" d="M 85.5 166 L 93.5 168 L 97.5 166 L 97 167.5 L 97.5 169 L 99 168.5 Q 98.3 170.8 100.5 170 L 102 169.5 L 102 177.5 L 100.5 179 Q 98.3 178.3 99 180.5 L 97.5 187 L 96.5 178 L 95.5 181 L 94 177.5 L 94 175.5 Q 94.8 172.9 91.5 174 L 92.5 171 L 84 171 L 84 174.5 L 86.5 178 Q 83.9 177.2 85 180.5 L 82 182 L 80 187 Q 77.3 185.9 78 188.5 L 77 188.5 L 80 180.5 Q 78.5 177.5 77 180.5 L 76 189.5 L 74.5 191 L 71 190 L 71 199.5 L 72.5 200 L 73.5 198 Q 70.5 198.7 72 195 Q 74.8 193.1 81 194 L 80 197.5 L 82 198.5 Q 80.3 193.7 84.5 195 L 84.5 194 L 83 193.5 L 90.5 192 L 93 189.5 L 95.5 182 L 96 186.5 L 95 187.5 L 95 194 L 86 194 L 86 197.5 L 83 204 L 79 205.5 L 78.5 207 L 76.5 206 L 72.5 212 L 71.5 210 L 71 212.5 L 72 216 Q 68.5 217.1 70 209.5 L 71 206.5 L 70 203 L 72 202.5 L 70 199.5 L 70 180.5 L 71 180.5 Q 69.1 185.9 72.5 185 L 74 182 Q 71 183 72 180 Q 76.7 181 78 177.5 Q 79.1 174.2 76.5 175 L 77 173.5 L 76 170.5 Q 77 168 81.5 169 L 84 170 L 85.5 166 Z M 81 173 L 82 180 L 84 180 L 83 174 L 81 173 Z M 77 202 L 75 203 L 74 205 L 78 204 Q 79 201 77 202 Z " /><path fill="rgb(200,197,171)" stroke="rgb(200,197,171)" stroke-width="1" opacity="0.984313725490196" d="M 433.5 170 L 434 175.5 L 433 175.5 L 433.5 170 Z " /><path fill="rgb(200,197,171)" stroke="rgb(200,197,171)" stroke-width="1" opacity="0.984313725490196" d="M 70.5 176 L 71 178.5 L 70 178.5 L 70.5 176 Z " /><path fill="rgb(200,197,171)" stroke="rgb(200,197,171)" stroke-width="1" opacity="0.984313725490196" d="M 104.5 177 L 105 219.5 L 105 221.5 L 105 228.5 Q 102.2 231.5 103 237 L 105 237.5 Q 101 239.5 105 241.5 Q 103.9 244.8 106.5 244 L 106.5 246 Q 109.8 244.9 109 247.5 L 106 250.5 L 107 251.5 Q 105.7 257.2 109 258.5 L 107.5 262 L 104 253.5 L 104 245.5 L 104 243.5 Q 104.8 241.3 102.5 242 Q 92.5 240 86 234.5 L 85 229 Q 91.2 229.9 94 228 L 94.5 237 L 99 234.5 L 101 231.5 L 99 230.5 L 100 228.5 Q 98.3 230.1 96.5 227 Q 91.1 227.9 89 225.5 L 94 225 L 93 222.5 L 95 222.5 Q 95.8 219.9 92.5 221 L 89 219.5 L 91.5 219 L 94.5 220 L 96.5 220 Q 98.8 220.8 98 218.5 L 97.5 217 L 99 216.5 L 97 213.5 L 101.5 213 Q 102.7 215.3 104 212.5 L 103 205.5 L 104 204.5 L 104.5 177 Z " /><path fill="rgb(200,197,171)" stroke="rgb(200,197,171)" stroke-width="1" opacity="0.984313725490196" d="M 401 177 Q 405.1 175.7 404 179 Q 399.9 180.3 401 177 Z " /><path fill="rgb(200,197,171)" stroke="rgb(200,197,171)" stroke-width="1" opacity="0.984313725490196" d="M 404.5 190 L 406 193 Q 400.8 194.7 402 191 L 404.5 190 Z " /><path fill="rgb(200,197,171)" stroke="rgb(200,197,171)" stroke-width="1" opacity="0.984313725490196" d="M 288.5 196 L 289.5 198 L 288.5 196 Z " /><path fill="rgb(200,197,171)" stroke="rgb(200,197,171)" stroke-width="1" opacity="0.984313725490196" d="M 218.5 197 L 222 198.5 L 218.5 200 L 218.5 197 Z " /><path fill="rgb(200,197,171)" stroke="rgb(200,197,171)" stroke-width="1" opacity="0.984313725490196" d="M 228.5 197 L 229 199 L 227 198.5 L 228.5 197 Z " /><path fill="rgb(200,197,171)" stroke="rgb(200,197,171)" stroke-width="1" opacity="0.984313725490196" d="M 264.5 199 L 265 201 L 263 200.5 L 264.5 199 Z " /><path fill="rgb(200,197,171)" stroke="rgb(200,197,171)" stroke-width="1" opacity="0.984313725490196" d="M 136.5 200 L 137.5 202 L 136.5 200 Z " /><path fill="rgb(200,197,171)" stroke="rgb(200,197,171)" stroke-width="1" opacity="0.984313725490196" d="M 240.5 200 L 244 201.5 L 242.5 201 Q 239.5 201.5 240.5 200 Z " /><path fill="rgb(200,197,171)" stroke="rgb(200,197,171)" stroke-width="1" opacity="0.984313725490196" d="M 282.5 200 Q 285.5 201.5 282.5 203 L 281 202.5 L 283 201.5 L 282.5 200 Z " /><path fill="rgb(200,197,171)" stroke="rgb(200,197,171)" stroke-width="1" opacity="0.984313725490196" d="M 360.5 200 Q 363.3 201.3 361 202.5 L 362 207.5 L 360 206.5 L 361 201.5 L 360.5 200 Z " /><path fill="rgb(200,197,171)" stroke="rgb(200,197,171)" stroke-width="1" opacity="0.984313725490196" d="M 170.5 201 L 169.5 203 L 170.5 201 Z " /><path fill="rgb(200,197,171)" stroke="rgb(200,197,171)" stroke-width="1" opacity="0.984313725490196" d="M 366.5 201 L 367 203 L 364 202.5 L 366.5 201 Z " /><path fill="rgb(200,197,171)" stroke="rgb(200,197,171)" stroke-width="1" opacity="0.984313725490196" d="M 203.5 202 L 204.5 204 L 203.5 202 Z " /><path fill="rgb(200,197,171)" stroke="rgb(200,197,171)" stroke-width="1" opacity="0.984313725490196" d="M 229.5 202 L 229.5 205 Q 226.5 203.5 229.5 202 Z " /><path fill="rgb(200,197,171)" stroke="rgb(200,197,171)" stroke-width="1" opacity="0.984313725490196" d="M 370.5 202 L 369 204.5 L 368.5 208 L 368 204.5 L 370.5 202 Z " /><path fill="rgb(200,197,171)" stroke="rgb(200,197,171)" stroke-width="1" opacity="0.984313725490196" d="M 171.5 203 L 174 204.5 L 172.5 205 L 171.5 203 Z " /><path fill="rgb(200,197,171)" stroke="rgb(200,197,171)" stroke-width="1" opacity="0.984313725490196" d="M 220.5 203 L 221.5 205 Q 218.7 205.7 220.5 203 Z " /><path fill="rgb(200,197,171)" stroke="rgb(200,197,171)" stroke-width="1" opacity="0.984313725490196" d="M 290.5 203 L 291.5 205 L 290.5 203 Z " /><path fill="rgb(200,197,171)" stroke="rgb(200,197,171)" stroke-width="1" opacity="0.984313725490196" d="M 86.5 204 L 91 204.5 L 86.5 205 L 86.5 204 Z " /><path fill="rgb(200,197,171)" stroke="rgb(200,197,171)" stroke-width="1" opacity="0.984313725490196" d="M 189.5 204 L 190.5 206 Q 187.7 206.7 189.5 204 Z " /><path fill="rgb(200,197,171)" stroke="rgb(200,197,171)" stroke-width="1" opacity="0.984313725490196" d="M 258.5 204 L 257.5 206 L 258.5 204 Z " /><path fill="rgb(200,197,171)" stroke="rgb(200,197,171)" stroke-width="1" opacity="0.984313725490196" d="M 262.5 204 L 266 205.5 L 264.5 205 Q 261.5 205.5 262.5 204 Z " /><path fill="rgb(200,197,171)" stroke="rgb(200,197,171)" stroke-width="1" opacity="0.984313725490196" d="M 363.5 204 L 364 207 L 366 207.5 L 364 208 L 363.5 215 L 363 208.5 L 363 206.5 L 363.5 204 Z " /><path fill="rgb(200,197,171)" stroke="rgb(200,197,171)" stroke-width="1" opacity="0.984313725490196" d="M 373.5 204 L 379 204.5 L 370.5 206 L 370.5 205 L 373.5 204 Z " /><path fill="rgb(200,197,171)" stroke="rgb(200,197,171)" stroke-width="1" opacity="0.984313725490196" d="M 309.5 208 Q 314.3 207.3 315 210.5 L 314.5 212 L 313.5 210 L 312 210.5 L 312.5 209 Q 308.5 209.8 309.5 208 Z " /><path fill="rgb(200,197,171)" stroke="rgb(200,197,171)" stroke-width="1" opacity="0.984313725490196" d="M 319.5 208 L 320.5 210 L 318 209.5 L 319.5 208 Z " /><path fill="rgb(200,197,171)" stroke="rgb(200,197,171)" stroke-width="1" opacity="0.984313725490196" d="M 327.5 208 Q 332 207 333 209.5 L 331.5 209 L 325.5 210 L 325.5 209 L 327.5 208 Z " /><path fill="rgb(200,197,171)" stroke="rgb(200,197,171)" stroke-width="1" opacity="0.984313725490196" d="M 339.5 208 L 343 209.5 L 341.5 209 Q 338.5 209.5 339.5 208 Z " /><path fill="rgb(200,197,171)" stroke="rgb(200,197,171)" stroke-width="1" opacity="0.984313725490196" d="M 181.5 209 L 184 209.5 L 181.5 210 L 181.5 209 Z " /><path fill="rgb(200,197,171)" stroke="rgb(200,197,171)" stroke-width="1" opacity="0.984313725490196" d="M 365.5 209 L 366 214.5 L 365 214.5 L 365.5 209 Z " /><path fill="rgb(200,197,171)" stroke="rgb(200,197,171)" stroke-width="1" opacity="0.984313725490196" d="M 368.5 209 L 369 213.5 L 368 213.5 L 368.5 209 Z " /><path fill="rgb(200,197,171)" stroke="rgb(200,197,171)" stroke-width="1" opacity="0.984313725490196" d="M 190.5 210 L 191 212.5 L 189 213.5 L 190.5 210 Z " /><path fill="rgb(200,197,171)" stroke="rgb(200,197,171)" stroke-width="1" opacity="0.984313725490196" d="M 192.5 210 L 193 212.5 L 192 212.5 L 192.5 210 Z " /><path fill="rgb(200,197,171)" stroke="rgb(200,197,171)" stroke-width="1" opacity="0.984313725490196" d="M 197.5 210 L 198 212.5 L 197 212.5 L 197.5 210 Z " /><path fill="rgb(200,197,171)" stroke="rgb(200,197,171)" stroke-width="1" opacity="0.984313725490196" d="M 281.5 210 L 285 210.5 L 281.5 211 L 281.5 210 Z " /><path fill="rgb(200,197,171)" stroke="rgb(200,197,171)" stroke-width="1" opacity="0.984313725490196" d="M 158.5 211 L 161 211.5 L 158.5 212 L 158.5 211 Z " /><path fill="rgb(200,197,171)" stroke="rgb(200,197,171)" stroke-width="1" opacity="0.984313725490196" d="M 162.5 211 L 165 212.5 L 163.5 213 L 162.5 211 Z " /><path fill="rgb(200,197,171)" stroke="rgb(200,197,171)" stroke-width="1" opacity="0.984313725490196" d="M 175.5 211 L 176 214.5 L 174 215.5 L 175.5 211 Z " /><path fill="rgb(200,197,171)" stroke="rgb(200,197,171)" stroke-width="1" opacity="0.984313725490196" d="M 187.5 211 L 188 216.5 L 187 216.5 L 187.5 211 Z " /><path fill="rgb(200,197,171)" stroke="rgb(200,197,171)" stroke-width="1" opacity="0.984313725490196" d="M 357.5 211 L 358 223.5 L 359 224.5 L 357 223.5 L 357.5 211 Z " /><path fill="rgb(200,197,171)" stroke="rgb(200,197,171)" stroke-width="1" opacity="0.984313725490196" d="M 254.5 212 Q 256.8 211.3 256 213.5 L 254.5 212 Z " /><path fill="rgb(200,197,171)" stroke="rgb(200,197,171)" stroke-width="1" opacity="0.984313725490196" d="M 271.5 212 L 272.5 214 L 271.5 212 Z " /><path fill="rgb(200,197,171)" stroke="rgb(200,197,171)" stroke-width="1" opacity="0.984313725490196" d="M 282.5 212 L 285 212.5 L 282.5 213 L 282.5 212 Z " /><path fill="rgb(200,197,171)" stroke="rgb(200,197,171)" stroke-width="1" opacity="0.984313725490196" d="M 308.5 212 L 309 215.5 L 307 216.5 L 308.5 212 Z " /><path fill="rgb(200,197,171)" stroke="rgb(200,197,171)" stroke-width="1" opacity="0.984313725490196" d="M 337.5 212 L 338 215.5 L 336 216.5 L 337.5 212 Z " /><path fill="rgb(200,197,171)" stroke="rgb(200,197,171)" stroke-width="1" opacity="0.984313725490196" d="M 370.5 212 L 371 214.5 L 370 214.5 L 370.5 212 Z " /><path fill="rgb(200,197,171)" stroke="rgb(200,197,171)" stroke-width="1" opacity="0.984313725490196" d="M 264 213 L 266 213.5 L 264.5 216 L 264 213 Z " /><path fill="rgb(200,197,171)" stroke="rgb(200,197,171)" stroke-width="1" opacity="0.984313725490196" d="M 278.5 213 L 279 216.5 L 278 216.5 L 278.5 213 Z " /><path fill="rgb(200,197,171)" stroke="rgb(200,197,171)" stroke-width="1" opacity="0.984313725490196" d="M 339.5 213 L 343 215.5 L 340.5 214 L 339.5 213 Z " /><path fill="rgb(200,197,171)" stroke="rgb(200,197,171)" stroke-width="1" opacity="0.984313725490196" d="M 209.5 214 L 210 216.5 L 209 216.5 L 209.5 214 Z " /><path fill="rgb(200,197,171)" stroke="rgb(200,197,171)" stroke-width="1" opacity="0.984313725490196" d="M 286.5 214 L 287 216.5 L 285 217.5 L 286.5 214 Z " /><path fill="rgb(200,197,171)" stroke="rgb(200,197,171)" stroke-width="1" opacity="0.984313725490196" d="M 299.5 214 L 300.5 216 L 299.5 214 Z " /><path fill="rgb(200,197,171)" stroke="rgb(200,197,171)" stroke-width="1" opacity="0.984313725490196" d="M 359.5 214 L 362 214.5 L 359.5 215 L 359.5 214 Z " /><path fill="rgb(200,197,171)" stroke="rgb(200,197,171)" stroke-width="1" opacity="0.984313725490196" d="M 372.5 214 L 376 216.5 L 374.5 217 L 372.5 214 Z " /><path fill="rgb(200,197,171)" stroke="rgb(200,197,171)" stroke-width="1" opacity="0.984313725490196" d="M 268.5 215 L 270 217.5 L 268 216.5 L 268.5 215 Z " /><path fill="rgb(200,197,171)" stroke="rgb(200,197,171)" stroke-width="1" opacity="0.984313725490196" d="M 321.5 216 L 322.5 218 L 321.5 216 Z " /><path fill="rgb(200,197,171)" stroke="rgb(200,197,171)" stroke-width="1" opacity="0.984313725490196" d="M 367.5 216 L 369 218.5 L 368 218.5 L 367.5 216 Z " /><path fill="rgb(200,197,171)" stroke="rgb(200,197,171)" stroke-width="1" opacity="0.984313725490196" d="M 416.5 216 Q 419.1 215.2 418 218.5 L 417 218.5 L 416.5 216 Z " /><path fill="rgb(200,197,171)" stroke="rgb(200,197,171)" stroke-width="1" opacity="0.984313725490196" d="M 70.5 217 L 72.5 218 L 74.5 217 L 76 220 L 72 220 L 72 228.5 L 71 230.5 L 71.5 232 L 70 230.5 L 70.5 217 Z " /><path fill="rgb(200,197,171)" stroke="rgb(200,197,171)" stroke-width="1" opacity="0.984313725490196" d="M 230.5 217 L 233 217.5 L 230.5 218 L 230.5 217 Z " /><path fill="rgb(200,197,171)" stroke="rgb(200,197,171)" stroke-width="1" opacity="0.984313725490196" d="M 262.5 217 L 265 217.5 L 262.5 218 L 262.5 217 Z " /><path fill="rgb(200,197,171)" stroke="rgb(200,197,171)" stroke-width="1" opacity="0.984313725490196" d="M 379.5 217 L 380 218.5 Q 378.8 221.2 377.5 219 L 376 218.5 L 379.5 217 Z " /><path fill="rgb(200,197,171)" stroke="rgb(200,197,171)" stroke-width="1" opacity="0.984313725490196" d="M 370.5 218 L 373.5 219 L 375 218.5 L 373.5 221 L 373 219 Q 369.7 219.8 370.5 218 Z " /><path fill="rgb(200,197,171)" stroke="rgb(200,197,171)" stroke-width="1" opacity="0.984313725490196" d="M 85.5 219 L 88 220.5 L 86.5 221 L 85.5 219 Z " /><path fill="rgb(200,197,171)" stroke="rgb(200,197,171)" stroke-width="1" opacity="0.984313725490196" d="M 231.5 219 L 235 220.5 L 232.5 221 L 231.5 219 Z " /><path fill="rgb(200,197,171)" stroke="rgb(200,197,171)" stroke-width="1" opacity="0.984313725490196" d="M 259.5 219 L 263.5 220 L 265 219.5 Q 265.9 222.9 260.5 221 L 260.5 222 L 264 222.5 L 260.5 223 Q 258 222 259.5 219 Z " /><path fill="rgb(200,197,171)" stroke="rgb(200,197,171)" stroke-width="1" opacity="0.984313725490196" d="M 271.5 219 L 272.5 221 L 271.5 219 Z " /><path fill="rgb(200,197,171)" stroke="rgb(200,197,171)" stroke-width="1" opacity="0.984313725490196" d="M 293.5 219 L 294.5 221 L 293.5 219 Z " /><path fill="rgb(200,197,171)" stroke="rgb(200,197,171)" stroke-width="1" opacity="0.984313725490196" d="M 189.5 220 L 188.5 222 L 187 221.5 L 189.5 220 Z " /><path fill="rgb(200,197,171)" stroke="rgb(200,197,171)" stroke-width="1" opacity="0.984313725490196" d="M 209.5 220 L 208.5 222 L 209.5 220 Z " /><path fill="rgb(200,197,171)" stroke="rgb(200,197,171)" stroke-width="1" opacity="0.984313725490196" d="M 223.5 220 L 224 223.5 L 223 223.5 L 223.5 220 Z " /><path fill="rgb(200,197,171)" stroke="rgb(200,197,171)" stroke-width="1" opacity="0.984313725490196" d="M 257.5 220 L 258 223.5 L 257 223.5 L 257.5 220 Z " /><path fill="rgb(200,197,171)" stroke="rgb(200,197,171)" stroke-width="1" opacity="0.984313725490196" d="M 168.5 221 L 169 223.5 L 168 223.5 L 168.5 221 Z " /><path fill="rgb(200,197,171)" stroke="rgb(200,197,171)" stroke-width="1" opacity="0.984313725490196" d="M 226.5 221 L 227 223.5 L 226 223.5 L 226.5 221 Z " /><path fill="rgb(200,197,171)" stroke="rgb(200,197,171)" stroke-width="1" opacity="0.984313725490196" d="M 290.5 221 L 289.5 223 L 290.5 221 Z " /><path fill="rgb(200,197,171)" stroke="rgb(200,197,171)" stroke-width="1" opacity="0.984313725490196" d="M 83.5 222 L 86 223.5 L 84.5 224 L 83.5 222 Z " /><path fill="rgb(200,197,171)" stroke="rgb(200,197,171)" stroke-width="1" opacity="0.984313725490196" d="M 250.5 222 L 251 227 L 249 226.5 L 250.5 222 Z " /><path fill="rgb(200,197,171)" stroke="rgb(200,197,171)" stroke-width="1" opacity="0.984313725490196" d="M 252.5 222 L 253 226.5 L 252 226.5 L 252.5 222 Z " /><path fill="rgb(200,197,171)" stroke="rgb(200,197,171)" stroke-width="1" opacity="0.984313725490196" d="M 371.5 222 L 372.5 224 L 371.5 222 Z " /><path fill="rgb(200,197,171)" stroke="rgb(200,197,171)" stroke-width="1" opacity="0.984313725490196" d="M 162.5 223 L 161.5 225 L 162.5 223 Z " /><path fill="rgb(200,197,171)" stroke="rgb(200,197,171)" stroke-width="1" opacity="0.984313725490196" d="M 236.5 223 L 241 224.5 L 236 225 L 236.5 223 Z " /><path fill="rgb(200,197,171)" stroke="rgb(200,197,171)" stroke-width="1" opacity="0.984313725490196" d="M 374.5 223 L 378 223.5 L 374.5 224 L 374.5 223 Z " /><path fill="rgb(200,197,171)" stroke="rgb(200,197,171)" stroke-width="1" opacity="0.984313725490196" d="M 199.5 224 L 201 226.5 L 199 225.5 L 199.5 224 Z " /><path fill="rgb(200,197,171)" stroke="rgb(200,197,171)" stroke-width="1" opacity="0.984313725490196" d="M 209.5 224 L 210 226.5 L 209 226.5 L 209.5 224 Z " /><path fill="rgb(200,197,171)" stroke="rgb(200,197,171)" stroke-width="1" opacity="0.984313725490196" d="M 233.5 224 L 234 225.5 L 232 226.5 L 233.5 224 Z " /><path fill="rgb(200,197,171)" stroke="rgb(200,197,171)" stroke-width="1" opacity="0.984313725490196" d="M 398 224 Q 401 222.8 400 226.5 L 398 225.5 L 398 224 Z " /><path fill="rgb(200,197,171)" stroke="rgb(200,197,171)" stroke-width="1" opacity="0.984313725490196" d="M 355.5 225 L 356.5 227 L 355.5 225 Z " /><path fill="rgb(200,197,171)" stroke="rgb(200,197,171)" stroke-width="1" opacity="0.984313725490196" d="M 258.5 226 L 263 228.5 L 259 229 L 258.5 226 Z " /><path fill="rgb(200,197,171)" stroke="rgb(200,197,171)" stroke-width="1" opacity="0.984313725490196" d="M 280.5 228 L 284 228.5 L 280.5 229 L 280.5 228 Z " /><path fill="rgb(200,197,171)" stroke="rgb(200,197,171)" stroke-width="1" opacity="0.984313725490196" d="M 71.5 233 L 74.5 234 L 79.5 233 L 83 234.5 Q 80.3 236.3 84.5 238 L 94 241 L 92.5 245 L 90.5 245 L 79.5 245 L 78.5 244 L 75 245 L 75 237.5 L 73.5 237 Q 70.8 238.2 73 239.5 L 72 245.5 L 73 248.5 L 71 252.5 L 72 254.5 L 71 254.5 L 69 245.5 Q 71.5 244 70 238.5 L 72 236.5 L 71.5 233 Z M 75 234 L 76 237 L 79 236 L 75 234 Z " /><path fill="rgb(200,197,171)" stroke="rgb(200,197,171)" stroke-width="1" opacity="0.984313725490196" d="M 82.5 247 L 83 251.5 L 82 251.5 L 82.5 247 Z " /><path fill="rgb(200,197,171)" stroke="rgb(200,197,171)" stroke-width="1" opacity="0.984313725490196" d="M 77.5 257 L 80 260.5 L 77 258.5 L 77.5 257 Z " /><path fill="rgb(200,197,171)" stroke="rgb(200,197,171)" stroke-width="1" opacity="0.984313725490196" d="M 114.5 270 L 126 270.5 L 115.5 272 L 114.5 270 Z " /><path fill="rgb(200,197,171)" stroke="rgb(200,197,171)" stroke-width="1" opacity="0.984313725490196" d="M 190.5 271 L 211 271.5 L 207.5 273 L 192.5 273 L 190.5 271 Z " /><path fill="rgb(200,197,171)" stroke="rgb(200,197,171)" stroke-width="1" opacity="0.984313725490196" d="M 212.5 271 L 215 271.5 L 212.5 272 L 212.5 271 Z " /><path fill="rgb(200,197,171)" stroke="rgb(200,197,171)" stroke-width="1" opacity="0.984313725490196" d="M 424.5 271 L 432.5 271 L 433 272.5 L 435 272.5 L 433.5 274 L 424.5 274 L 421 272.5 L 424.5 271 Z " /><path fill="rgb(200,197,171)" stroke="rgb(200,197,171)" stroke-width="1" opacity="0.984313725490196" d="M 410.5 273 L 418 273.5 L 410.5 274 L 410.5 273 Z " /><path fill="rgb(200,197,171)" stroke="rgb(200,197,171)" stroke-width="1" opacity="0.984313725490196" d="M 93.5 274 L 96 274.5 L 93.5 275 L 93.5 274 Z " /><path fill="rgb(200,197,171)" stroke="rgb(200,197,171)" stroke-width="1" opacity="0.984313725490196" d="M 101.5 274 L 107 274.5 L 101.5 275 L 101.5 274 Z " /><path fill="rgb(200,197,171)" stroke="rgb(200,197,171)" stroke-width="1" opacity="0.984313725490196" d="M 296.5 274 L 325 274.5 L 296.5 275 L 296.5 274 Z " /><path fill="rgb(200,197,171)" stroke="rgb(200,197,171)" stroke-width="1" opacity="0.984313725490196" d="M 84.5 275 L 85.5 277 L 84.5 275 Z " /><path fill="rgb(200,197,171)" stroke="rgb(200,197,171)" stroke-width="1" opacity="0.984313725490196" d="M 316.5 366 L 318 366.5 L 317 369.5 L 332 379 L 333 382.5 L 328 391.5 L 322.5 397 L 314.5 390 L 308.5 388 L 306 385.5 L 305 380.5 L 310 372.5 L 309.5 371 L 311.5 371 L 315 368.5 L 316.5 366 Z M 322 382 L 317 391 Q 322 393 320 388 L 323 387 L 322 382 Z " /></svg>