<svg width="311" height="296" viewBox="0 0 311 296" fill="none" xmlns="http://www.w3.org/2000/svg">
<path d="M155.5 32C155.5 32 143 40.1593 138.5 45.7686C134.013 51.3622 128.033 59.491 128 59.5361H95V186C80.6406 186 69 174.359 69 160V59.5361H11V59C11 44.0883 23.0883 32 38 32H155.5Z" fill="black"/>
<path d="M232 32.2705C266.092 42.2133 291 73.6974 291 111C291 156.287 254.287 193 209 193C163.713 193 127 156.287 127 111C127 73.6974 151.908 42.2133 186 32.2705V61.0264C167.111 69.7343 154 88.8357 154 111C154 141.376 178.624 166 209 166C239.376 166 264 141.376 264 111C264 88.8357 250.889 69.7343 232 61.0264V32.2705Z" fill="black"/>
<rect x="198" width="22" height="100" rx="11" fill="#2665FE"/>
<path d="M2.57812 230.125V220.438H48.9062V230.125H31.5625V277H19.9219V230.125H2.57812ZM68.9844 277.859C56.0156 277.859 48.0469 269.422 48.0469 255.984C48.0469 242.859 56.0938 234.031 68.5156 234.031C79.6875 234.031 88.4375 241.062 88.4375 255.516V258.797H59.4531C59.4531 265.203 63.2812 269.188 69.2188 269.188C73.125 269.188 75.9375 267.469 77.1094 264.891H88.125C86.4844 272.703 79.4531 277.859 68.9844 277.859ZM59.4531 251.531H77.5C77.5 246.375 73.9062 242.703 68.75 242.703C63.4375 242.703 59.6484 246.648 59.4531 251.531ZM114.766 277.859C101.797 277.859 93.9844 268.875 93.9844 255.906C93.9844 242.938 101.875 234.031 114.766 234.031C125.703 234.031 133.125 240.438 133.594 250.125H122.734C122.031 245.906 119.297 243.016 114.922 243.016C109.375 243.016 105.703 247.703 105.703 255.75C105.703 263.953 109.297 268.641 114.922 268.641C118.984 268.641 122.031 266.141 122.734 261.609H133.594C133.047 271.219 126.016 277.859 114.766 277.859ZM152.344 252.469V277H140.781V220.438H152.031V242H152.5C154.453 237.078 158.75 234.031 165.156 234.031C173.984 234.031 179.844 239.969 179.844 249.969V277H168.281V252C168.281 246.766 165.469 243.641 160.625 243.641C155.781 243.641 152.344 246.844 152.344 252.469Z" fill="black"/>
<path d="M259.219 248.719C259.219 267.156 247.734 277.781 232.812 277.781C217.734 277.781 206.328 267.078 206.328 248.719C206.328 230.281 217.734 219.656 232.812 219.656C247.734 219.656 259.219 230.281 259.219 248.719ZM247.266 248.719C247.266 236.609 241.562 230.047 232.812 230.047C224.062 230.047 218.281 236.609 218.281 248.719C218.281 260.828 224.062 267.391 232.812 267.391C241.562 267.391 247.266 260.828 247.266 248.719ZM278.984 252.469V277H267.422V234.578H278.438V242H278.906C280.859 237.078 285.391 234.031 291.641 234.031C300.469 234.031 306.328 240.047 306.25 249.969V277H294.766V252C294.766 246.766 291.875 243.641 287.109 243.641C282.266 243.641 278.984 246.844 278.984 252.469Z" fill="#2665FE"/>
</svg>
