<svg width="25" height="17" viewBox="0 0 25 17" fill="none" xmlns="http://www.w3.org/2000/svg">
<path d="M12.7275 2.81878C12.7066 2.83247 11.623 3.54237 11.2305 4.03167C10.8341 4.52575 10.3057 5.24456 10.3057 5.24456H7.39941V16.3832C6.1346 16.3832 5.1084 15.358 5.1084 14.0932V5.24456H0C0 3.905 1.08622 2.81878 2.42578 2.81878H12.7275Z" fill="black"/>
<path d="M19.4667 2.8446C22.469 3.7207 24.6629 6.49191 24.663 9.77722C24.6629 13.7662 21.4293 16.9999 17.4403 16.9999C13.4513 16.9998 10.2177 13.7662 10.2177 9.77722C10.2177 6.49163 12.4122 3.72044 15.4149 2.8446V5.37585C13.751 6.14292 12.5956 7.82493 12.5956 9.77722C12.5956 12.4527 14.7648 14.6219 17.4403 14.6219C20.1159 14.6219 22.285 12.4528 22.285 9.77722C22.285 7.82521 21.1302 6.14307 19.4667 5.37585V2.8446Z" fill="black"/>
<rect x="16.4716" y="0.0001297" width="1.93782" height="8.80829" rx="0.968912" fill="#2665FE"/>
</svg>
