<svg width="20" height="20" viewBox="0 0 20 20" fill="none" xmlns="http://www.w3.org/2000/svg">
<path d="M19.8974 19.1201C19.8299 19.2356 19.7327 19.3315 19.6158 19.3982C19.4988 19.4649 19.3661 19.5 19.231 19.5H0.768484C0.633516 19.4999 0.500959 19.4647 0.384124 19.3979C0.26729 19.3312 0.17029 19.2352 0.102866 19.1197C0.0354414 19.0042 -3.46252e-05 18.8732 2.53589e-08 18.7399C3.46759e-05 18.6066 0.0355787 18.4756 0.103063 18.3602C1.56757 15.8591 3.82442 14.0658 6.45822 13.2157C5.15542 12.4495 4.14323 11.2822 3.57709 9.89281C3.01094 8.50345 2.92215 6.96893 3.32434 5.52489C3.72653 4.08085 4.59746 2.80715 5.8034 1.89939C7.00934 0.991631 8.48359 0.5 9.99976 0.5C11.5159 0.5 12.9902 0.991631 14.1961 1.89939C15.4021 2.80715 16.273 4.08085 16.6752 5.52489C17.0774 6.96893 16.9886 8.50345 16.4224 9.89281C15.8563 11.2822 14.8441 12.4495 13.5413 13.2157C16.1751 14.0658 18.432 15.8591 19.8965 18.3602C19.9641 18.4756 19.9998 18.6066 20 18.74C20.0002 18.8734 19.9648 19.0044 19.8974 19.1201Z" fill="#408EFD"/>
</svg>
