<svg width="18" height="13" viewBox="0 0 18 13" fill="none" xmlns="http://www.w3.org/2000/svg">
<path d="M16.7143 0H1.28571C0.944722 0 0.617695 0.136964 0.376577 0.380761C0.135459 0.624558 0 0.955218 0 1.3V11.7C0 12.0448 0.135459 12.3754 0.376577 12.6192C0.617695 12.863 0.944722 13 1.28571 13H16.7143C17.0553 13 17.3823 12.863 17.6234 12.6192C17.8645 12.3754 18 12.0448 18 11.7V1.3C18 0.955218 17.8645 0.624558 17.6234 0.380761C17.3823 0.136964 17.0553 0 16.7143 0ZM9.64286 10.4H8.35714C8.18665 10.4 8.02313 10.3315 7.90257 10.2096C7.78202 10.0877 7.71429 9.92239 7.71429 9.75C7.71429 9.57761 7.78202 9.41228 7.90257 9.29038C8.02313 9.16848 8.18665 9.1 8.35714 9.1H9.64286C9.81335 9.1 9.97687 9.16848 10.0974 9.29038C10.218 9.41228 10.2857 9.57761 10.2857 9.75C10.2857 9.92239 10.218 10.0877 10.0974 10.2096C9.97687 10.3315 9.81335 10.4 9.64286 10.4ZM14.7857 10.4H12.2143C12.0438 10.4 11.8803 10.3315 11.7597 10.2096C11.6392 10.0877 11.5714 9.92239 11.5714 9.75C11.5714 9.57761 11.6392 9.41228 11.7597 9.29038C11.8803 9.16848 12.0438 9.1 12.2143 9.1H14.7857C14.9562 9.1 15.1197 9.16848 15.2403 9.29038C15.3608 9.41228 15.4286 9.57761 15.4286 9.75C15.4286 9.92239 15.3608 10.0877 15.2403 10.2096C15.1197 10.3315 14.9562 10.4 14.7857 10.4ZM1.28571 3.25V1.3H16.7143V3.25H1.28571Z" fill="black"/>
</svg>
