<svg width="11" height="5" viewBox="0 0 11 5" fill="none" xmlns="http://www.w3.org/2000/svg">
<path d="M10.3667 4.87781C10.3245 4.91655 10.2744 4.94728 10.2192 4.96824C10.164 4.98921 10.1049 5 10.0451 5C9.98539 5 9.92625 4.98921 9.87107 4.96824C9.81589 4.94728 9.76577 4.91655 9.72355 4.87781L5.49995 1.00593L1.27634 4.87781C1.19106 4.95599 1.07538 4.9999 0.95477 4.9999C0.834158 4.9999 0.718485 4.95599 0.633199 4.87781C0.547913 4.79964 0.5 4.69361 0.5 4.58306C0.5 4.47251 0.547913 4.36648 0.633199 4.28831L5.17838 0.122187C5.22059 0.0834515 5.27072 0.0527229 5.32589 0.0317572C5.38107 0.0107915 5.44022 0 5.49995 0C5.55968 0 5.61882 0.0107915 5.674 0.0317572C5.72918 0.0527229 5.77931 0.0834515 5.82152 0.122187L10.3667 4.28831C10.409 4.327 10.4425 4.37295 10.4654 4.42352C10.4882 4.4741 10.5 4.52831 10.5 4.58306C10.5 4.63781 10.4882 4.69202 10.4654 4.7426C10.4425 4.79317 10.409 4.83912 10.3667 4.87781Z" fill="black"/>
</svg>
