<svg width="14" height="18" viewBox="0 0 14 18" fill="none" xmlns="http://www.w3.org/2000/svg">
<path d="M3.18182 8.34615H10.8182C10.987 8.34615 11.1488 8.27727 11.2682 8.15465C11.3875 8.03203 11.4545 7.86572 11.4545 7.69231V3.76923C11.4545 3.59582 11.3875 3.42951 11.2682 3.30689C11.1488 3.18427 10.987 3.11538 10.8182 3.11538H3.18182C3.01304 3.11538 2.85118 3.18427 2.73184 3.30689C2.6125 3.42951 2.54545 3.59582 2.54545 3.76923V7.69231C2.54545 7.86572 2.6125 8.03203 2.73184 8.15465C2.85118 8.27727 3.01304 8.34615 3.18182 8.34615ZM3.81818 4.42308H10.1818V7.03846H3.81818V4.42308ZM12.7273 0.5H1.27273C0.935179 0.5 0.611456 0.637774 0.372773 0.883014C0.13409 1.12825 0 1.46087 0 1.80769V16.1923C0 16.5391 0.13409 16.8717 0.372773 17.117C0.611456 17.3622 0.935179 17.5 1.27273 17.5H12.7273C13.0648 17.5 13.3885 17.3622 13.6272 17.117C13.8659 16.8717 14 16.5391 14 16.1923V1.80769C14 1.46087 13.8659 1.12825 13.6272 0.883014C13.3885 0.637774 13.0648 0.5 12.7273 0.5ZM12.7273 16.1923H1.27273V1.80769H12.7273V16.1923ZM4.77273 10.6346C4.77273 10.8286 4.71674 11.0182 4.61186 11.1795C4.50697 11.3408 4.35789 11.4665 4.18347 11.5407C4.00905 11.615 3.81712 11.6344 3.63196 11.5965C3.4468 11.5587 3.27671 11.4653 3.14322 11.3281C3.00972 11.191 2.91881 11.0162 2.88198 10.826C2.84515 10.6357 2.86405 10.4385 2.9363 10.2593C3.00854 10.0801 3.13089 9.9269 3.28786 9.81914C3.44484 9.71137 3.62939 9.65385 3.81818 9.65385C4.07134 9.65385 4.31414 9.75718 4.49315 9.94111C4.67216 10.125 4.77273 10.3745 4.77273 10.6346ZM7.95455 10.6346C7.95455 10.8286 7.89856 11.0182 7.79367 11.1795C7.68879 11.3408 7.53971 11.4665 7.36529 11.5407C7.19087 11.615 6.99894 11.6344 6.81378 11.5965C6.62861 11.5587 6.45853 11.4653 6.32503 11.3281C6.19154 11.191 6.10063 11.0162 6.0638 10.826C6.02696 10.6357 6.04587 10.4385 6.11811 10.2593C6.19036 10.0801 6.31271 9.9269 6.46968 9.81914C6.62666 9.71137 6.81121 9.65385 7 9.65385C7.25316 9.65385 7.49595 9.75718 7.67496 9.94111C7.85398 10.125 7.95455 10.3745 7.95455 10.6346ZM11.1364 10.6346C11.1364 10.8286 11.0804 11.0182 10.9755 11.1795C10.8706 11.3408 10.7215 11.4665 10.5471 11.5407C10.3727 11.615 10.1808 11.6344 9.9956 11.5965C9.81043 11.5587 9.64035 11.4653 9.50685 11.3281C9.37336 11.191 9.28244 11.0162 9.24561 10.826C9.20878 10.6357 9.22769 10.4385 9.29993 10.2593C9.37218 10.0801 9.49453 9.9269 9.6515 9.81914C9.80848 9.71137 9.99303 9.65385 10.1818 9.65385C10.435 9.65385 10.6778 9.75718 10.8568 9.94111C11.0358 10.125 11.1364 10.3745 11.1364 10.6346ZM4.77273 13.9038C4.77273 14.0978 4.71674 14.2874 4.61186 14.4487C4.50697 14.61 4.35789 14.7357 4.18347 14.81C4.00905 14.8842 3.81712 14.9036 3.63196 14.8658C3.4468 14.8279 3.27671 14.7345 3.14322 14.5974C3.00972 14.4602 2.91881 14.2854 2.88198 14.0952C2.84515 13.9049 2.86405 13.7077 2.9363 13.5285C3.00854 13.3493 3.13089 13.1961 3.28786 13.0884C3.44484 12.9806 3.62939 12.9231 3.81818 12.9231C4.07134 12.9231 4.31414 13.0264 4.49315 13.2103C4.67216 13.3943 4.77273 13.6437 4.77273 13.9038ZM7.95455 13.9038C7.95455 14.0978 7.89856 14.2874 7.79367 14.4487C7.68879 14.61 7.53971 14.7357 7.36529 14.81C7.19087 14.8842 6.99894 14.9036 6.81378 14.8658C6.62861 14.8279 6.45853 14.7345 6.32503 14.5974C6.19154 14.4602 6.10063 14.2854 6.0638 14.0952C6.02696 13.9049 6.04587 13.7077 6.11811 13.5285C6.19036 13.3493 6.31271 13.1961 6.46968 13.0884C6.62666 12.9806 6.81121 12.9231 7 12.9231C7.25316 12.9231 7.49595 13.0264 7.67496 13.2103C7.85398 13.3943 7.95455 13.6437 7.95455 13.9038ZM11.1364 13.9038C11.1364 14.0978 11.0804 14.2874 10.9755 14.4487C10.8706 14.61 10.7215 14.7357 10.5471 14.81C10.3727 14.8842 10.1808 14.9036 9.9956 14.8658C9.81043 14.8279 9.64035 14.7345 9.50685 14.5974C9.37336 14.4602 9.28244 14.2854 9.24561 14.0952C9.20878 13.9049 9.22769 13.7077 9.29993 13.5285C9.37218 13.3493 9.49453 13.1961 9.6515 13.0884C9.80848 12.9806 9.99303 12.9231 10.1818 12.9231C10.435 12.9231 10.6778 13.0264 10.8568 13.2103C11.0358 13.3943 11.1364 13.6437 11.1364 13.9038Z" fill="#2665FE"/>
</svg>
